<?xml version="1.0" encoding="utf-8"?>
<!-- Generator: Adobe Illustrator 21.0.2, SVG Export Plug-In . SVG Version: 6.00 Build 0)  -->
<svg version="1.1" id="Layer_1" xmlns="http://www.w3.org/2000/svg" xmlns:xlink="http://www.w3.org/1999/xlink" x="0px" y="0px"
	 viewBox="0 0 2234.8 805" style="enable-background:new 0 0 2234.8 805;" xml:space="preserve">
<style type="text/css">
	.st0{display:none;fill:url(#XMLID_16_);}
	.st1{opacity:0.6;fill:url(#XMLID_17_);enable-background:new    ;}
	.st2{opacity:0.55;fill:url(#XMLID_20_);enable-background:new    ;}
	.st3{opacity:0.3;fill:url(#XMLID_21_);enable-background:new    ;}
	.st4{opacity:0.19;fill:url(#XMLID_29_);enable-background:new    ;}
	.st5{fill:url(#XMLID_31_);}
	.st6{fill:#211F1F;}
	.st7{display:none;fill:#FCFCFC;enable-background:new    ;}
	.st8{font-family:'ArialMT';}
	.st9{font-size:88.2028px;}
	.st10{letter-spacing:16;}
	.st11{display:none;}
	.st12{display:inline;fill:#FCFCFC;}
	.st13{display:inline;fill:#666666;}
	.st14{fill:none;stroke:#666666;stroke-width:300;stroke-miterlimit:10;}
</style>
<g id="Layer_4">
	
		<linearGradient id="XMLID_16_" gradientUnits="userSpaceOnUse" x1="1117.4" y1="-276.9997" x2="1117.4" y2="805.0003" gradientTransform="matrix(1 0 0 -1 0 528.0006)">
		<stop  offset="0" style="stop-color:#4F8F40"/>
		<stop  offset="1" style="stop-color:#F3EA59"/>
	</linearGradient>
	<rect id="XMLID_1_" y="-277" class="st0" width="2234.8" height="1082"/>
</g>
<g id="Layer_5">
	
		<linearGradient id="XMLID_17_" gradientUnits="userSpaceOnUse" x1="1146.6" y1="-600.7997" x2="1146.6" y2="46.8003" gradientTransform="matrix(1 0 0 -1 0 528.0006)">
		<stop  offset="0" style="stop-color:#4F8F40"/>
		<stop  offset="1" style="stop-color:#F3EA59"/>
	</linearGradient>
	<circle id="XMLID_18_" class="st1" cx="1146.6" cy="805" r="323.8"/>
	
		<linearGradient id="XMLID_20_" gradientUnits="userSpaceOnUse" x1="1146.6" y1="-643.7997" x2="1146.6" y2="89.8003" gradientTransform="matrix(1 0 0 -1 0 528.0006)">
		<stop  offset="0" style="stop-color:#4F8F40"/>
		<stop  offset="1" style="stop-color:#F3EA59"/>
	</linearGradient>
	<circle id="XMLID_26_" class="st2" cx="1146.6" cy="805" r="366.8"/>
	
		<linearGradient id="XMLID_21_" gradientUnits="userSpaceOnUse" x1="1146.6" y1="-683.6996" x2="1146.6" y2="129.7003" gradientTransform="matrix(1 0 0 -1 0 528.0006)">
		<stop  offset="0" style="stop-color:#4F8F40"/>
		<stop  offset="1" style="stop-color:#F3EA59"/>
	</linearGradient>
	<circle id="XMLID_27_" class="st3" cx="1146.6" cy="805" r="406.7"/>
	
		<linearGradient id="XMLID_29_" gradientUnits="userSpaceOnUse" x1="1146.6" y1="-721.3997" x2="1146.6" y2="167.4003" gradientTransform="matrix(1 0 0 -1 0 528.0006)">
		<stop  offset="0" style="stop-color:#4F8F40"/>
		<stop  offset="1" style="stop-color:#F3EA59"/>
	</linearGradient>
	<circle id="XMLID_28_" class="st4" cx="1146.6" cy="805" r="444.4"/>
	
		<linearGradient id="XMLID_31_" gradientUnits="userSpaceOnUse" x1="1146.6" y1="-555.3997" x2="1146.6" y2="1.4003" gradientTransform="matrix(1 0 0 -1 0 528.0006)">
		<stop  offset="0" style="stop-color:#4F8F40"/>
		<stop  offset="1" style="stop-color:#F3EA59"/>
	</linearGradient>
	<circle id="XMLID_11_" class="st5" cx="1146.6" cy="805" r="278.4"/>
</g>
<g id="Layer_3">
	<g id="XMLID_30_">
		<path id="XMLID_10_" class="st6" d="M1059.2,1116.8c-0.1-10.1-0.4-36.2-0.4-36.2l0.5-37.4c0,0-28.7-131.2-30.7-177.6
			s-9.4-61.8-13.4-113.6l-21.8-17.2c0,0-41.7-18-107.6-63.4c-66-45.5-89.7-45.6-89.7-45.6S628,572.1,610.3,576.3c0,0-2.1-6,43.6,1.7
			c45.8,7.6,141.1,36.3,141.1,36.3c55.5,19.7,105.3,49.6,105.3,49.6s-1.2,3.5,35.3,18.5c35.8,14.6,36.9,6.8,36.9,6.8l9.7,3.4
			l18.9,20.3c22.4,17.4,35.2-1.5,35.2-1.5s5.4-39.8-10.9-94.4c-16.3-54.6,15.1,5.4-106.9-72.6c0,0-60.7-24.7-68.8-70.7
			c0,0,5.4,1-45.8-42.5c-59.6-50.6-62.2-74-62.2-74s12.3-30.3-30.8-64.5c0,0,33.1,15.9,38.5,38.5s54.6-53.8,69.6-48.5
			c0,0-41.9,37.1-58.6,62.4c-15.7,23.9,2.6,40.2,90.5,111.7c0,0,9.9,1.6,42.1,58.5c0,0,86.7,48.4,104,47.5s-11.3-49.7-11.3-49.7
			s-13.1-63.7,17.7-113.4c0,0,12-11.1-29-46.5c0,0-9.3-27.7-4.2-33.8l12.5,33.2c0,0,19.7,6.5,27.1,28.8c0,0,9.3,22.7,3.9,31
			c0,0-19.3,25-15.7,58.5c3,28.4,8.7,40.1,24.2,73.2c15.5,33.1,35.7,43.4,35.7,43.4c8.3,1.8,16.7,50,20.3,74.2
			c0.9,6,8.3,9.1,13.4,5.7l20.6-6.7l8.1-8.5l11.5-3.8l9.5,8.1c0,0,13.6,0.1,29.4-9.6c10.2-6.3,16.1-9.7,22.4-14.2
			c4.4-3.1,8.5-6.6,11.3-8.9c5.2-4.2,5.8-4.7,8.9-7.4c0,0,49.6-12.9,73.6-20.4l2.6-0.7c37-11.7,44.2-14.4,44.2-14.4l35.4-11
			c13.7,0.9,22.6,1,22.6,1l25,6.1l-29.3-2.5L1364,578c-30.1,5.8-70.4,25.8-70.4,25.8l-10.3,5l-67.7,28.1c-4.6,3.7-9.2,7.4-13.8,11.1
			l-4.5,6.1l-9.2,4.3c-10,8.3-51.4,18.9-51.4,18.9l-45.6,17.3c-4,3.9-6.2,9.2-6,14.7c1.2,41.9,7.9,73.5,7.9,73.5
			c-1.2,77.5,0.3,116.4,9.8,118.2c9.6,1.8,17.7,29.3,17.7,29.3l-0.6-3.6c0.8,5.3-0.5,10.5-3.5,14.7c-3.3,4.6-4.7,10.3-3.8,16
			c12.5,103.6,56.7-5.8,56.7-5.8l27.4-68.2c0,0,5-53.7-5.3-99.9c0,0,13.7-63.6,19.9-99.2c1.5-8.6,5.2-25.7,6.4-47.2
			c4-67.4,4-175.2,2-177.7c-2.7-3.3,13.1-22.5-82-135.4c0,0-71.1-51.3-117.5-60.7l-17.4-5.8l-8.8-4.4l-14.2-5.4
			c-20.4-6.9-118.6-19.3-118.6-19.3s-42.1-4.5-56.9-1.5c-11.2,2.3-42.2,6.3-42.2,6.3s11.2-10.7,27.2-13c12.4-1.8,16.6-1.3,16.6-1.3
			l6.7,1.3l9.1,1C853,213.4,986,238,986,238s125.2,51.3,157,73.2S1073,184,1073,184c-23.7-45.1-23-45.2-45.8-110.3l-1.9-2.9
			L1009.4,0l27.1,70.8c0,0,12.1-5.3,0,0s63.2,127.4,63.2,127.4s68.7,111.8,66.5,125.2c-2.2,13.4,69.9,108.7,69.9,108.7
			s10.6,2.6,12.9,6.9c1.7,3.2,12.1-3.1,17.7-6.7c1.8-1.2,4.1-1.3,6.1-0.2c15.7,8.3,79,2.5,81.9,7.9c3,5.8,76.8-18.7,76.8-18.7
			l90.7-32.7l-15.7,14.8l-40.1,15.5c0,0-64.7,24.9-80.5,33.5s-93.9-1.5-93.9-1.5l-34.3,13.8c0,0-12.7,35.6-7.8,115.3
			c0.5,7.6,0.8,15.3,1,23.1c0.1,3.6,0.1,7.1,0.1,7.1s0,2.8,0.1,5.6c0,4.7-2.8,58.9-7.6,133.1l-3.8,17.8c0,0-2.8-1.6,1,43.9
			c3.8,44.7,55.5-11,55.5-11l11.9-13.5l22.4-3.9c0,0,16.7,10.7,32.6,4.5s191.5,35,191.5,35l-8.2,23.1c0,0-130.4-22.7-158.6-23.3
			c-28.1-0.6-66.3,26.1-66.3,26.1c-0.2,49.5-41.6,148.2-41.6,148.2L1059.2,1116.8z"/>
	</g>
</g>
<g id="Layer_2">
	<path id="XMLID_6_" class="st6" d="M1390.7,406.5c0,0,0.6-1-0.6-2.6c0,0-1-1.9-1-2.5c0,0-1-3.4-6.2-1.2c0,0-1.8,1.2-2.2,2.8
		c0,0-0.8,3.5-9.2,7.2c0,0-1.2,0.1-4.2,1.1c0,0-3.3-0.3-4.7,1.8c0,0-2.7,4.8-2.9,8.8c0,0-0.2,1.2,0,2.7c0,0,0.4,1.9,0.5,2.5
		c0,0,0.8,3.4,3.7,1.2c0,0-0.9,4.3,4.6,12.4l0.1,1l17.1,0.7c0,0,1-5.2,1-6.1c0,0,1.1-0.2,2.8-4.5c0,0,0.7-3.6,0.7-4.3
		c0,0-1-9-1.3-10.3c0,0-0.8-2.1-2.7-3l-0.3-0.2c0,0,0.6-5.3,3.2-8.4l0.1-0.1c0,0,0.4,0.2,1.3,0.9
		C1390.4,406.5,1390.6,406.6,1390.7,406.5z"/>
	<g id="XMLID_9_">
		<path id="XMLID_34_" class="st6" d="M1375,289.6c2.1-0.1,4.1-0.2,6.2-0.2c1,0,2.1,0,3.1,0s2.1,0,3.1,0.1c2.1,0.1,4.1,0.2,6.2,0.4
			s4.1,0.4,6.2,0.7s4.1,0.6,6.2,1c1,0.2,2.1,0.4,3.1,0.7c1,0.2,2.1,0.5,3.1,0.8s2.1,0.6,3.1,1s2,0.8,3.1,1.2c1,0.5,2.1,1,3.1,1.8
			s2.1,1.7,2.8,3.3l-3.1-1.4c1.7-0.6,3.3-1.1,4.9-1.5c1.6-0.5,3.3-0.9,4.9-1.3c0.8-0.2,1.7-0.4,2.5-0.6c0.8-0.2,1.7-0.4,2.5-0.5
			c1.7-0.3,3.3-0.7,5-0.9l2.5-0.4c0.8-0.1,1.7-0.2,2.5-0.3c1.7-0.2,3.4-0.3,5.1-0.4l2.6-0.1c0.8,0,1.7,0,2.6,0s1.7,0,2.6,0.1
			s1.7,0.1,2.5,0.2c-1.7,0.3-3.3,0.6-5,0.9c-0.8,0.2-1.6,0.3-2.5,0.5l-2.5,0.5c-0.8,0.2-1.6,0.4-2.4,0.6c-0.8,0.2-1.6,0.4-2.4,0.6
			c-0.8,0.2-1.6,0.4-2.4,0.6l-2.4,0.7c-1.6,0.5-3.2,0.9-4.8,1.4c-1.6,0.5-3.2,1-4.8,1.5c-1.6,0.5-3.2,1-4.7,1.5
			c-1.6,0.5-3.2,1.1-4.7,1.6l-2.2,0.8l-1-2.1c-0.1-0.3-0.6-0.8-1.2-1.2c-0.7-0.4-1.4-0.9-2.3-1.3c-0.8-0.4-1.7-0.8-2.6-1.1
			s-1.8-0.7-2.8-1c-1.9-0.6-3.8-1.1-5.8-1.6l-2.9-0.7l-3-0.7l-6-1.3c-2-0.4-4-0.9-6-1.2l-6-1.2C1379.1,290.4,1377,290,1375,289.6z"
			/>
	</g>
</g>
<g id="Layer_1_1_">
	<text id="XMLID_1677_" transform="matrix(1 0 0 1 614.4906 240.391)" class="st7 st8 st9 st10">TAPU-AA-RANGI</text>
	<g id="XMLID_2_" class="st11">
		<circle id="XMLID_70_" class="st12" cx="1290.4" cy="15.5" r="5.5"/>
		<circle id="XMLID_25_" class="st12" cx="973.7" cy="32.8" r="3.8"/>
		<circle id="XMLID_24_" class="st12" cx="1098.9" cy="16" r="4"/>
		<circle id="XMLID_23_" class="st12" cx="1266.9" cy="-99" r="4"/>
		<circle id="XMLID_22_" class="st12" cx="1295.7" cy="-42.1" r="2.9"/>
		<circle id="XMLID_15_" class="st12" cx="1219.5" cy="-68.3" r="3.7"/>
		<circle id="XMLID_14_" class="st12" cx="1182.9" cy="71" r="2"/>
	</g>
	<g id="XMLID_3_" class="st11">
		<path id="XMLID_19_" class="st13" d="M2234.8-277V805H0V-277H2234.8 M2534.8-577h-300H0h-300v300V805v300H0h2234.8h300V805V-277
			V-577L2534.8-577z"/>
	</g>
	
		<image style="display:none;overflow:visible;enable-background:new    ;" width="508" height="459" id="XMLID_5_" xlink:href="9BA85C4D.jpeg"  transform="matrix(0.998 0 0 0.9978 3028.5669 329.4756)">
	</image>
	<g id="XMLID_1726_">
		<g id="XMLID_1723_">
			<path id="XMLID_8_" class="st6" d="M669.2,559.4c-0.1,0.1-0.2,0.2-0.1,0.3c0.1,0.2,0.3,0.1,0.4,0.1c1.2-0.5,2.5-1,3.8-1.4
				c0.3-0.1,0.7-0.2,1-0.1c0.1,0,0.2,0.1,0.4,0.1c0.4,0.1,0.8,0.2,1.2,0.3c1.1,0.3,2.1,0.6,3.1,1c0.2,0.1,0.5,0.2,0.7,0.4
				c0.5,0.5,0.6,1.3,0.8,2c-0.8-0.2-1.6,0-2.3,0.5c-0.6,0.5-1,1.3-0.8,2.1c0.1,0.5,0.5,1,0.7,1.5c0.1,0.2,0.1,0.4,0.3,0.6
				c0.1,0.2,0.3,0.4,0.6,0.3c0.1,0,0.2,0,0.3-0.1c0.5-0.1,1,0.1,1.3,0.5s0.5,0.8,0.7,1.3c0.6,1.3,1.1,2.6,1.7,3.9
				c0.2,0.4,0.4,0.9,0.6,1.3c0.4,0.6,0.9,1.2,1.4,1.7c1,1.1,2.1,2.2,3.1,3.3c0.3,0.3,0.6,0.6,0.9,0.6c0.1,0,0.3,0,0.4,0
				c0.1,0,0.3,0.1,0.3,0.3c0.3,0.1,0.6,0.4,0.9,0.6c0.3,0.2,0.6,0.3,0.9,0.3c1.1,0.3,2.2,0.6,3.3,0.9c0.4,0.1,0.8,0.2,1.2,0.3
				c0.5,0.1,1,0,1.6,0.1c1,0.1,1.9,0.3,2.9,0.2c0.3,0,0.7-0.1,1,0.1c0.3,0.2,0.3,0.5,0.4,0.8c0,0.1-0.1,0.2,0,0.2
				c0.6,0.4,0,5.2,0,5.2l1-0.1c-0.1-1.3,0.3-4.4,0.3-4.4c0.3-0.1,0.6-0.1,0.9-0.2c0.6-0.2,1.2-0.5,1.6-1c0.2-0.2,0.4-0.5,0.7-0.4
				c0.3,0,0.5,0.2,0.5,0.5c0.1,0.2,0,0.5-0.1,0.7c-0.2,0.9-0.5,1.9-0.7,2.8c-0.2,0.7-0.4,1.5-0.8,2.1l1.2,0.7
				c0.5-1.9,1.1-3.9,1.6-5.8c0.1-0.4,0.2-0.8,0.4-1.1s0.4-0.6,0.6-0.8c0.5-0.5,0.9-1.1,1.4-1.6c0.2,0.3,0.7,0.3,1,0.1
				c0.3-0.1,0.7-0.3,1-0.3c0.7-0.1,1.3,0.4,1.9,0.1c0.3-0.1,0.5-0.4,0.7-0.4c0.4-0.1,0.7,0.2,1,0.4c0.6,0.4,1.5,0.5,2.2,0.3
				c0.4-0.1,0.7-0.3,1.1-0.3c0.3,0,0.6,0,0.8,0.1c2.5,0.6,4.8,1.7,7.3,2.4c0.4,0.1,0.8,0.5,1.2,0.7c0.2,0.1,0.5,0.2,0.8,0.3
				c0.2,0.1,0.4,0.2,0.6,0.4c0.3,0.2,0.7,0.5,1,0.7c0.1,0.1,0.2,0.2,0.4,0.2s0.4,0,0.6-0.1c1-0.2,1.9,0.4,2.8,0.5
				c-0.5-0.7-1.2-1.3-2-1.7c-0.1,0-0.2-0.1-0.2-0.1c0-0.1,0-0.1-0.1-0.2c0-0.2-0.1-0.5-0.1-0.7c0-0.1,0-0.2-0.1-0.2
				c0-0.1-0.1-0.1-0.2-0.1c-0.7-0.3-1.6-0.5-2.2-1c-0.6-0.5-1.3-1-2.1-1.3c-1.2-0.6-2.5-0.9-3.6-1.5c-0.6-0.3-1.1-0.6-1.6-0.9
				c-0.6-0.3-1.3-0.6-2-0.9c-1.6-0.7-3.1-1.4-4.7-2.1c0.2-0.1,0.4-0.1,0.7,0c0.8,0.3,1.6,0.5,2.4,0.8c0.9,0.3,1.9,0.6,2.8,0.3
				c-0.8-0.7-1.9-0.9-2.9-1.1c-0.1,0-0.3-0.1-0.3-0.3c0.6,0,1.2,0,1.8-0.1c-0.8-1.2-2.2-1.7-3.6-2c-1-0.2-2-0.1-2.9-0.5
				c-1.5-0.6-2.9-1.3-4.4-1.9c-0.7-0.3-1.3-0.6-2-1c-0.6-0.3-1.1-0.7-1.7-1.1c-0.7-0.4-1.5-0.8-2.3-1.1c-3.3-1.4-6.7-2.4-9.8-4.1
				c-2.6-1.4-5.2-3.1-6.3-5.8c-0.2-0.4-0.3-0.8-0.5-1.2c-0.2-0.3-0.5-0.6-0.8-0.9c-1.3-1.2-3.1-1.9-4.9-2c-1.8,0-3.6,0.7-5,1.9
				c-0.4,0.3-0.7,0.7-1.1,1c-1,0.8-2.4,1-3.5,1.5C670.8,557.4,669.9,558.3,669.2,559.4L669.2,559.4z"/>
		</g>
		<g id="XMLID_1725_">
		</g>
	</g>
	<g id="XMLID_4_">
		<path id="XMLID_36_" class="st6" d="M561.1,404.2c2.4-0.5,4.8-0.9,7.1-1.2c1.2-0.2,2.4-0.3,3.6-0.5l3.6-0.5
			c2.4-0.3,4.8-0.5,7.2-0.7c1.2-0.1,2.4-0.2,3.6-0.2l3.6-0.2c4.8-0.2,9.7-0.2,14.6,0.1c1.2,0.1,2.5,0.2,3.7,0.3
			c1.2,0.2,2.5,0.3,3.7,0.6c0.6,0.1,1.3,0.3,1.9,0.4c0.6,0.2,1.3,0.4,1.9,0.6c1.3,0.5,2.6,1,4,2.2l-3.2-0.1c1-0.7,1.9-1.4,2.8-2.1
			c1-0.7,1.9-1.3,2.9-2c1.9-1.3,3.9-2.5,5.9-3.7c1-0.6,2-1.2,3-1.8s2-1.1,3-1.7l3.1-1.6l3.1-1.5c1-0.5,2.1-0.9,3.2-1.4
			c1.1-0.5,2.1-0.9,3.2-1.3l3.3-1.2c1.1-0.3,2.2-0.7,3.3-1c1.1-0.4,2.3-0.6,3.4-0.8l1.7-0.4c0.6-0.1,1.2-0.2,1.7-0.3l1.7-0.2
			c0.6-0.1,1.1-0.2,1.7-0.2c1.2,0,2.3-0.1,3.5-0.1l-3.3,0.8c-1.1,0.2-2.2,0.7-3.3,1c-0.5,0.2-1.1,0.3-1.6,0.5l-1.6,0.6
			c-1,0.4-2.1,0.8-3.1,1.3l-3.1,1.4l-3,1.5c-1,0.5-2,1-3,1.6c-1,0.5-2,1-3,1.6l-2.9,1.7l-2.9,1.8c-1,0.6-1.9,1.2-2.9,1.8
			s-1.9,1.2-2.8,1.8c-1.9,1.2-3.8,2.5-5.6,3.8l-2.8,1.9c-0.9,0.7-1.8,1.3-2.7,2l-1.5,1.2l-1.6-1.3c-0.5-0.4-1.4-0.8-2.3-1.2
			c-0.5-0.2-1-0.3-1.5-0.5c-0.5-0.1-1.1-0.3-1.6-0.4c-1.1-0.2-2.2-0.4-3.4-0.6c-1.2-0.2-2.3-0.3-3.5-0.4c-4.7-0.5-9.4-0.7-14.2-0.9
			l-3.6-0.1l-3.6-0.1c-2.4-0.1-4.8-0.1-7.2-0.1l-7.2-0.1C565.9,404.3,563.5,404.3,561.1,404.2z"/>
	</g>
	<path id="XMLID_7_" class="st14" d="M252,208.6"/>
	<g id="XMLID_12_">
		<path id="XMLID_38_" class="st6" d="M868,332.4c1.1-0.4,2.2-0.7,3.3-0.9c1.1-0.3,2.2-0.4,3.3-0.6c2.2-0.4,4.5-0.6,6.8-0.6
			s4.6,0.1,7,0.6c0.6,0.1,1.2,0.3,1.8,0.5c0.3,0.1,0.6,0.2,0.9,0.3c0.3,0.1,0.6,0.2,0.9,0.4c0.3,0.1,0.6,0.3,0.9,0.5
			c0.3,0.2,0.6,0.4,0.9,0.6c0.6,0.5,1.2,1.1,1.7,1.9l-4.6,0.8c0-0.1,0.1-0.3,0.1-0.4l0.1-0.2l0.1-0.3c0.1-0.2,0.2-0.3,0.3-0.4
			c0.2-0.3,0.3-0.4,0.5-0.6c0.3-0.3,0.6-0.6,0.9-0.8c0.6-0.5,1.2-0.8,1.8-1.1s1.2-0.6,1.8-0.7c0.6-0.2,1.2-0.4,1.7-0.6
			c1.2-0.3,2.3-0.6,3.5-0.8l1.7-0.3c0.6-0.1,1.2-0.1,1.7-0.2c1.1-0.1,2.3-0.2,3.4-0.2c1.1,0,2.3,0,3.4,0c1.1,0.1,2.3,0.1,3.4,0.2
			c1.1,0.1,2.3,0.2,3.4,0.4c-1.1,0.4-2.2,0.7-3.3,0.9l-3.3,0.8c-1.1,0.3-2.2,0.5-3.2,0.8l-1.6,0.4l-1.6,0.4
			c-1.1,0.3-2.1,0.6-3.1,0.9l-1.5,0.5c-0.5,0.1-1,0.3-1.5,0.5s-1,0.4-1.4,0.6c-0.5,0.2-0.9,0.4-1.3,0.6c-0.4,0.2-0.8,0.4-1,0.7
			c-0.1,0.1-0.2,0.2-0.3,0.3c0,0-0.1,0.1,0,0c0,0,0,0,0-0.1c0,0,0-0.1,0.1-0.1V337c0-0.1,0.1-0.2,0.1-0.3l-4.6,0.8
			c-0.1-0.1-0.2-0.3-0.5-0.5c-0.1-0.1-0.3-0.2-0.4-0.3c-0.1-0.1-0.3-0.2-0.5-0.3s-0.4-0.2-0.6-0.3c-0.2-0.1-0.4-0.2-0.6-0.3
			c-0.4-0.2-0.9-0.3-1.4-0.5c-1.9-0.6-4-0.9-6.1-1.3c-2.1-0.3-4.3-0.6-6.5-0.9l-3.3-0.4C870.2,332.7,869.1,332.6,868,332.4z"/>
	</g>
</g>
</svg>
