<?xml version="1.0" encoding="utf-8"?>
<!-- Generator: Adobe Illustrator 19.0.0, SVG Export Plug-In . SVG Version: 6.00 Build 0)  -->
<svg version="1.1" id="Layer_1" xmlns="http://www.w3.org/2000/svg" xmlns:xlink="http://www.w3.org/1999/xlink" x="0px" y="0px"
	 viewBox="636 -179.9 2232.7 999.9" style="enable-background:new 636 -179.9 2232.7 999.9;" xml:space="preserve">
<style type="text/css">
	.st0{display:none;fill:url(#XMLID_14_);}
	.st1{display:none;fill:#FFFFFF;enable-background:new    ;}
	.st2{font-family:'ArialMT';}
	.st3{font-size:88.2028px;}
	.st4{letter-spacing:15;}
	.st5{display:none;}
	.st6{display:inline;fill:#FFFFFF;}
	.st7{fill:#0F343D;}
	.st8{fill:#ADC8D8;}
</style>
<g id="Layer_1_1_">
	
		<linearGradient id="XMLID_14_" gradientUnits="userSpaceOnUse" x1="1752.35" y1="300" x2="1752.35" y2="-779.9" gradientTransform="matrix(1 0 0 1 0 520)">
		<stop  offset="0" style="stop-color:#001A27"/>
		<stop  offset="1" style="stop-color:#001A27"/>
	</linearGradient>
	<rect id="XMLID_27_" x="636" y="-259.9" class="st0" width="2232.7" height="1079.9"/>
	<text id="XMLID_1677_" transform="matrix(1 0 0 1 1434.4817 241.4907)" class="st1 st2 st3 st4">URURANGI</text>
	<g id="XMLID_142_" class="st5">
		<circle id="XMLID_152_" class="st6" cx="1908.5" cy="16.6" r="5.5"/>
		<circle id="XMLID_148_" class="st6" cx="1591.8" cy="33.9" r="3.8"/>
		<circle id="XMLID_147_" class="st6" cx="1717" cy="17.1" r="4"/>
		<circle id="XMLID_146_" class="st6" cx="1885" cy="-97.9" r="4"/>
		<circle id="XMLID_145_" class="st6" cx="1913.8" cy="-41" r="2.9"/>
		<circle id="XMLID_144_" class="st6" cx="1837.6" cy="-67.2" r="3.7"/>
		<circle id="XMLID_143_" class="st6" cx="1800.9" cy="72.1" r="2"/>
	</g>
	<path id="XMLID_28_" class="st7" d="M635.9,681.1c0,0,188.5-62,298.5-22s162,22,162,22s214-72,292-50s168.5-8.1,207.2,24.9
		c0,0,58.8-27.3,88.8-29.1s114.6-15.8,114.6-15.8s72.6-2,82,0s147.4,4.2,179.4-0.9c32-5.1,184-21.1,196-19.1s168,20,182,30
		s166,34,176,36s76,12,102,12s111.6,8,131.9-2c20.3-10,20.1,4,20.1,4v149L636,820L635.9,681.1z"/>
	<path id="XMLID_29_" class="st7" d="M1855.4,614.1l1-76.9l-0.2-0.4c0,0-0.3,0.2-0.7,0c0,0-9.2,14.7-15.6,31.1c0,0-2.1,2.7,1.9-7.4
		c4-10.1,9-19.9,9-19.9s2.9-3.8,3.2-4.9c0,0-0.9-1.8-0.2-2.1c0,0-9.2-18.9-11.7-27c0,0-0.1-1.8,1.3,1.8c0,0,5.1,10.5,6.1,12.2
		c1.1,1.7,5.1,8,5.1,8.9c0,0,0.3,0.6,0.6,3.3c0,0,0.6,1,1.1,0.8s1.4-0.1,1.4-0.1s19-2.1,30.3-2.2c0,0,1.4,0.5-2,0.7
		c0,0-17.3,2-24.4,4l-0.4,1.4c0,0-0.2,0.3-0.6,0.3s-2.3,0.2-2.3,0.2l0.7,76.2L1855.4,614.1L1855.4,614.1z"/>
	<path id="XMLID_30_" class="st7" d="M1668.4,638.1v-49h2v-0.7c0,0,20.2,2,20.6,2c0.5,0,0.9-0.4,0-0.7s-17.2-2.9-17.2-2.9
		s-0.2-0.2-1.3-0.1c-1,0.1-4.1,0.2-4.1,0.2s-0.4-0.3-1-0.3s-1.8-3.3-1.8-3.3l-7.3-19.5c0,0-0.7-1.1-0.2,0.8c0.5,2,4.8,16.8,4.8,16.8
		s0.3,1.1,0.7,1.4c0.4,0.3,1.3,2,1.8,3.5c0,0-0.6,0.2-0.2,0.9c0,0,0.1,0.2-1.1,1.6s-15.5,18.6-15.5,18.6s-1,1.4,1.1-0.4
		s13.2-13.4,13.2-13.4l3.1-4.9l0.3,0.1l-0.9,49.4L1668.4,638.1L1668.4,638.1z"/>
	<path id="XMLID_31_" class="st7" d="M2084.4,615.1v-56h2.2l25.1,10c0,0,2.8,0.7,0-0.6c-2.8-1.4-20.1-10.3-20.1-10.3l-4-0.9
		l-0.1-0.6l-3.4-1.7h-0.5l-2.5-30.5c0,0-0.8-2.6-0.8,2.5s0,21.4,0,21.4s1.4,5.8,1.4,6.5c0,0-1.5-0.2-0.6,1.6l-28.1,18.7
		c0,0-1.7,1.6,1.7-0.2s21.3-11.8,21.3-11.8l5.7-5l0.5,0.2l-1.1,56.7L2084.4,615.1L2084.4,615.1z"/>
	<path id="XMLID_34_" class="st7" d="M2234.7,601.1l0.8-64l-0.2-0.3c0,0-0.3,0.1-0.6,0c0,0-7.7,12.2-13,25.9c0,0-1.7,2.2,1.6-6.2
		s7.5-16.6,7.5-16.6s2.4-3.2,2.6-4.1c0,0-0.7-1.5-0.1-1.8c0,0-7.6-15.7-9.7-22.5c0,0,0-1.5,1.1,1.5c0,0,4.2,8.7,5.1,10.2
		c0.9,1.4,4.3,6.6,4.3,7.4c0,0,0.2,0.5,0.5,2.8c0,0,0.5,0.8,0.9,0.6c0.4-0.2,1.2,0,1.2,0s15.9-1.7,25.3-1.8c0,0,1.1,0.4-1.6,0.6
		c0,0-14.4,1.7-20.3,3.4l-0.3,1.1c0,0-0.2,0.2-0.5,0.2s-1.9,0.2-1.9,0.2l0.6,63.4L2234.7,601.1L2234.7,601.1z"/>
	<path id="XMLID_32_" class="st7" d="M2294.4,601.1v-39h1.8l17.4,7.1c0,0,2,0.6,0-0.4s-13.9-7.1-13.9-7.1l-2.7-0.6v-0.6l-2.4-1.4
		h-0.4l-1.9-20.9c0,0-0.8-1.6-0.8,1.9s0,14.8,0,14.8s1.2,4,1.2,4.5c0,0-0.9-0.1-0.3,1.1l-19.4,13c0,0-1.2,1.1,1.2-0.2
		c2.4-1.3,14.8-8.2,14.8-8.2l4-3.4l0.4,0.1l-0.8,39.3L2294.4,601.1L2294.4,601.1z"/>
	<path id="XMLID_35_" class="st7" d="M1436.4,645.1l0.5-38.4l-0.1-0.2c0,0-0.2,0.1-0.4,0c0,0-4.6,7.4-7.8,15.6c0,0-1,1.3,1-3.7
		c2-5.1,4.5-9.9,4.5-9.9s1.4-1.9,1.6-2.4c0,0-0.4-0.9-0.1-1.1c0,0-4.6-9.4-5.8-13.5c0,0,0-0.9,0.7,0.9c0,0,2.5,5.2,3.1,6.1
		c0.6,0.9,2.6,4,2.6,4.4c0,0,0.1,0.3,0.3,1.7c0,0,0.3,0.5,0.5,0.4s0.7,0,0.7,0s9.5-1,15.2-1.1c0,0,0.7,0.3-1,0.4c0,0-8.6,1-12.2,2
		l-0.2,0.7c0,0-0.1,0.1-0.3,0.1c-0.2,0-1.2,0.1-1.2,0.1l0.4,38.1h-2V645.1z"/>
	<path id="XMLID_33_" class="st7" d="M1376.4,638.1v-56h2.3l25.1,10c0,0,2.9,0.7,0-0.6c-2.9-1.4-20.1-10.3-20.1-10.3l-4-0.9
		l-0.1-0.6l-3.4-1.6h-0.5l-2.5-30.7c0,0-0.8-2.7-0.8,2.4s0,21.4,0,21.4s1.5,5.8,1.4,6.5c0,0-1.5-0.2-0.6,1.6l-28.1,18.8
		c0,0-1.7,1.6,1.7-0.2c3.4-1.9,21.3-11.8,21.3-11.8l5.7-5l0.5,0.2l-1.1,56.8H1376.4z"/>
	<path id="XMLID_36_" class="st7" d="M1558.4,655.1l1-76.9l-0.2-0.4c0,0-0.3,0.2-0.7,0c0,0-9.2,14.7-15.6,31.1c0,0-2.1,2.7,1.9-7.4
		c4-10.1,9-19.9,9-19.9s2.9-3.8,3.2-4.9c0,0-0.9-1.8-0.2-2.1c0,0-9.2-18.9-11.7-27c0,0-0.1-1.8,1.3,1.8c0,0,5.1,10.5,6.1,12.2
		c1.1,1.7,5.1,8,5.1,8.9c0,0,0.3,0.6,0.6,3.3c0,0,0.6,1,1.1,0.8s1.4-0.1,1.4-0.1s19-2.1,30.3-2.2c0,0,1.4,0.5-2,0.7
		c0,0-17.3,2-24.4,4l-0.4,1.4c0,0-0.2,0.3-0.6,0.3c-0.4,0-2.3,0.2-2.3,0.2l0.7,76.2H1558.4L1558.4,655.1z"/>
	<path id="XMLID_37_" class="st7" d="M2033.4,615.1v-50h2V565c0,0,20.4,2.1,20.9,2.1s0.9-0.4,0-0.7s-17.3-3-17.3-3s-0.2-0.2-1.3-0.1
		s-4.1,0.2-4.1,0.2s-0.4-0.3-1-0.3s-1.8-3.4-1.8-3.4l-7.3-19.6c0,0-0.7-1.2-0.2,0.8s4.9,16.9,4.9,16.9s0.3,1.1,0.7,1.4
		s1.3,2.1,1.9,3.5c0,0-0.6,0.2-0.2,0.9c0,0,0.1,0.2-1.1,1.6c-1.2,1.4-15.6,18.7-15.6,18.7s-1,1.4,1.1-0.4
		c2.1-1.9,13.3-13.5,13.3-13.5l3.2-4.9l0.3,0.1l-0.9,49.7L2033.4,615.1L2033.4,615.1z"/>
	<path id="XMLID_38_" class="st7" d="M1266.4,646.1v-56h2.2l25.1,10c0,0,2.8,0.7,0-0.6c-2.8-1.4-20.1-10.3-20.1-10.3l-4-0.9
		l-0.1-0.6l-3.4-1.7h-0.5l-2.5-30.5c0,0-0.8-2.6-0.8,2.5s0,21.4,0,21.4s1.4,5.8,1.4,6.5c0,0-1.5-0.2-0.6,1.6l-28.1,18.7
		c0,0-1.7,1.6,1.7-0.2c3.4-1.9,21.3-11.8,21.3-11.8l5.7-5l0.5,0.2l-1.1,56.7H1266.4L1266.4,646.1z"/>
</g>
<g id="Layer_2">
	<g id="XMLID_44_">
		<g id="XMLID_3_">
			<path id="XMLID_166_" class="st8" d="M1716,358.3c0,0,0-0.1,0-0.3s-0.1-0.4-0.3-0.8c-0.3-0.6-1.1-1.4-2.3-1.5
				c-0.6,0-1.2,0.2-1.8,0.6c-0.5,0.4-1.1,1.1-1.3,1.8c-0.4,1.4,0.5,3.3,2.2,4c0.8,0.3,1.8,0.3,2.6-0.1c0.9-0.4,1.8-1.1,2.3-1.9
				c1.1-1.6,0.7-4.1-0.7-5.7c-0.7-0.8-1.7-1.4-2.8-1.7c-0.5-0.1-1.1-0.2-1.7-0.1c-0.2,0-0.4,0-0.5,0l-0.4,0.1
				c-0.2,0-0.6,0.2-0.8,0.2c-2.2,0.7-4.1,2.7-4.6,5.1c-0.1,0.6-0.2,1.2-0.2,1.8v0.6v0.4c0,0.3,0.1,0.6,0.1,1
				c0.2,1.3,0.7,2.4,1.4,3.4c0.3,0.5,0.7,0.9,1.2,1.3c0.2,0.2,0.4,0.3,0.7,0.5c0.3,0.2,0.6,0.4,0.8,0.5c0.6,0.3,1.1,0.6,1.7,0.8
				s1.2,0.4,1.8,0.5c0.6,0.1,1.3,0.2,1.9,0.3c0.3,0,0.6,0,1,0c0.3,0,0.7,0,1,0c1.4,0,2.7,0.1,4.1,0.1c2.6,0.1,5.1,0.2,7.4,0.4
				c4.6,0.3,8.4,0.6,11.1,0.8s4.2,0.4,4.2,0.4s-1.5,0.2-4.2,0.4c-2.7,0.3-6.5,0.6-11.1,0.8c-2.3,0.2-4.8,0.2-7.4,0.4
				c-1.3,0.1-2.7,0.1-4.1,0.1c-0.3,0-0.7,0-1,0c-0.4,0-0.8,0-1.1,0c-0.8,0-1.6-0.1-2.3-0.2c-0.8-0.1-1.6-0.3-2.4-0.5
				c-0.8-0.3-1.6-0.6-2.4-1c-0.4-0.2-0.7-0.4-1.1-0.6c-0.3-0.2-0.7-0.5-1.1-0.8c-0.7-0.6-1.4-1.3-1.9-2c-1.1-1.5-1.8-3.2-2.1-4.9
				c-0.1-0.4-0.2-0.9-0.2-1.3l-0.1-0.7c0-0.2,0-0.4,0-0.6c0-1,0.1-1.9,0.3-2.8c0.9-3.7,3.8-6.7,7.3-7.8c0.5-0.1,0.9-0.2,1.4-0.3
				l0.7-0.1c0.2,0,0.4,0,0.6,0c0.9,0,1.9,0.1,2.8,0.3c1.8,0.5,3.4,1.6,4.5,3c2.2,2.7,2.6,7,0.5,9.6c-1,1.3-2.3,2.2-3.8,2.6
				c-1.5,0.5-3.1,0.3-4.4-0.4c-2.6-1.3-3.5-4.4-2.6-6.5c0.5-1.1,1.3-1.7,2.1-2.1c0.8-0.5,1.7-0.6,2.5-0.4c0.8,0.2,1.3,0.6,1.7,1
				c0.4,0.4,0.6,0.9,0.7,1.2c0.1,0.4,0.1,0.6,0.1,0.8C1716,358.2,1716,358.3,1716,358.3z"/>
		</g>
		<g id="XMLID_4_">
			<path id="XMLID_164_" class="st8" d="M1728.1,396.4c0,0,0.1,0.4-0.2,1.2c-0.1,0.4-0.4,0.9-0.9,1.3c-0.5,0.4-1.2,0.8-2,0.8
				c-0.9,0-1.8-0.3-2.6-0.9c-0.8-0.6-1.6-1.6-1.7-2.9c-0.1-1.2,0.2-2.6,1.1-3.7c0.9-1.1,2.3-2,3.9-2.1c1.6-0.2,3.3,0.4,4.6,1.4
				c1.4,1,2.5,2.6,2.8,4.4c0.1,0.5,0.1,0.9,0.1,1.5v0.6l-0.1,0.7c-0.2,0.9-0.5,1.8-0.9,2.7c-0.9,1.7-2.5,3.1-4.3,3.8
				c-3.8,1.6-8.3,0.3-11.1-2.7c-1.4-1.5-2.4-3.4-2.8-5.4c-0.2-1-0.2-2.1-0.2-3c0.1-1,0.3-2,0.5-3c0.6-1.9,1.6-3.8,3.1-5.2
				c0.4-0.4,0.8-0.7,1.2-1c0.3-0.2,0.4-0.2,0.6-0.4l0.6-0.4c0.8-0.5,1.7-0.9,2.7-1.2c1.9-0.6,3.7-0.8,5.5-0.8c1.7,0,3.3,0.1,4.9,0.1
				c3.2,0.1,6.3,0.2,9.2,0.3c2.9,0.1,5.7,0.2,8.3,0.3c5.1,0.2,9.4,0.5,12.4,0.7s4.7,0.4,4.7,0.4s-1.7,0.1-4.7,0.4
				c-3,0.2-7.3,0.5-12.4,0.7c-2.6,0.1-5.3,0.2-8.3,0.3c-2.9,0.1-6,0.2-9.2,0.3c-1.6,0-3.2,0.1-4.8,0.1c-1.5,0.1-3,0.3-4.4,0.8
				c-0.6,0.2-1.3,0.5-1.9,0.9l-0.5,0.3c-0.1,0.1-0.4,0.3-0.5,0.3c-0.3,0.2-0.5,0.4-0.7,0.6c-0.9,0.9-1.6,2.2-2,3.5
				c-0.2,0.7-0.3,1.4-0.4,2.1c0,0.1,0,0.4,0,0.6v0.2v0.1c0,0,0,0.1,0,0l0,0v0.2c0,0.3,0,0.7,0.1,1c0.2,1.3,0.8,2.5,1.7,3.5
				c0.9,1,2,1.7,3.3,2c0.3,0.1,0.6,0.1,0.9,0.2c0.1,0,0.4,0,0.6,0.1h0.3h0.1c-0.2,0,0,0-0.1,0l0,0h0.1c0.6,0,1.2-0.1,1.8-0.3
				c2.3-0.8,3.8-3.2,3.6-5.5c-0.1-1-0.7-2-1.5-2.7s-1.8-1.2-2.8-1.2s-1.9,0.4-2.5,1s-1,1.5-1.1,2.4c0,0.8,0.4,1.5,0.9,2.1
				s1.2,0.9,1.8,1c1.3,0.2,2.3-0.7,2.7-1.4c0.2-0.3,0.3-0.6,0.3-0.8C1728.1,396.5,1728.1,396.4,1728.1,396.4z"/>
		</g>
		<g id="XMLID_6_">
			<path id="XMLID_162_" class="st8" d="M1767.4,366.6c0,0,2.7-0.3,6.8-0.6c2.1-0.1,4.4-0.2,7-0.3c1.3,0,2.6-0.1,4-0.1
				c1.3,0,2.7,0,4.1,0s2.7,0,4.1,0c1.3,0,2.7,0.1,4,0.1c2.6,0.1,5,0.2,7,0.3c4.1,0.2,6.8,0.6,6.8,0.6s-2.7,0.3-6.8,0.6
				c-2.1,0.1-4.4,0.2-7,0.3c-1.3,0-2.6,0.1-4,0.1c-1.3,0-2.7,0-4.1,0s-2.7,0-4.1,0c-1.3,0-2.7-0.1-4-0.1c-2.6-0.1-5-0.2-7-0.3
				C1770.1,366.9,1767.4,366.6,1767.4,366.6z"/>
		</g>
		<g id="XMLID_7_">
			<path id="XMLID_160_" class="st8" d="M1802.7,374.6c0,0,1.9-0.3,4.8-0.6c1.4-0.1,3.1-0.2,4.9-0.3c0.9,0,1.8-0.1,2.8-0.1
				c0.9,0,1.9,0,2.9,0s1.9,0,2.9,0c0.9,0,1.9,0.1,2.8,0.1c1.8,0.1,3.5,0.2,4.9,0.3c2.9,0.2,4.8,0.6,4.8,0.6s-1.9,0.3-4.8,0.6
				c-1.4,0.1-3.1,0.2-4.9,0.3c-0.9,0-1.8,0.1-2.8,0.1c-0.9,0-1.9,0-2.9,0s-1.9,0-2.9,0c-0.9,0-1.9-0.1-2.8-0.1
				c-1.8-0.1-3.5-0.2-4.9-0.3C1804.6,374.9,1802.7,374.6,1802.7,374.6z"/>
		</g>
		<g id="XMLID_10_">
			<path id="XMLID_158_" class="st8" d="M1788.1,388.6c0,0,4.1-0.3,10.1-0.6c3-0.1,6.6-0.2,10.4-0.3c1.9,0,3.9-0.1,5.9-0.1s4,0,6,0
				s4.1,0,6,0c2,0,4,0.1,5.9,0.1c3.8,0.1,7.3,0.2,10.4,0.3c6.1,0.2,10.1,0.6,10.1,0.6s-4.1,0.3-10.1,0.6c-3,0.1-6.6,0.2-10.4,0.3
				c-1.9,0-3.9,0.1-5.9,0.1s-4,0-6,0s-4.1,0-6,0c-2,0-4-0.1-5.9-0.1c-3.8-0.1-7.3-0.2-10.4-0.3
				C1792.1,388.9,1788.1,388.6,1788.1,388.6z"/>
		</g>
		<g id="XMLID_1_">
			<path id="XMLID_156_" class="st8" d="M1719.1,439.6c0,0,0,0.1,0,0.2c0,0.1,0,0.4,0,0.7c-0.1,0.6-0.2,1.5-0.8,2.5
				c-0.6,1-1.7,2.1-3.4,2.6c-1.7,0.5-3.9,0.3-5.7-1c-0.9-0.6-1.8-1.4-2.5-2.5c-0.7-1-1.3-2.3-1.3-3.8c-0.1-2.7,1-5.9,3.6-8
				c1.3-1,2.9-1.8,4.6-2.1s3.6-0.1,5.4,0.4c1.7,0.6,3.4,1.6,4.8,2.8c1.5,1.3,2.6,3,3.4,4.9c0.4,1,0.6,2,0.8,3c0.1,0.5,0.1,1,0.1,1.6
				v0.7l-0.1,0.8c-0.2,2.1-0.9,4.2-2,6.1c-2.2,3.8-6.1,6.7-10.8,7.6c-4.6,0.8-9.5-0.2-13.5-2.9s-7.1-6.9-8.3-11.8
				c-0.3-1.2-0.5-2.5-0.5-3.7c0-0.3,0-0.6,0-1v-0.9c0-0.6,0.1-1.3,0.1-1.9c0.3-2.5,0.9-4.9,1.9-7.2s2.4-4.5,4.3-6.4
				c0.9-0.9,2-1.8,3.1-2.5c1-0.7,2.1-1.3,3.2-1.9c2.3-1.2,4.8-1.9,7.3-2.4c2.5-0.4,5-0.6,7.5-0.6c4.8,0.1,9.6,0.1,14.4,0.1
				c19.3,0.1,38.6,0.3,56.6,0.4c9,0.1,17.8,0.2,26.1,0.2c8.3,0.1,16.1,0.2,23.3,0.3c14.5,0.2,26.5,0.4,34.9,0.5s13.3,0.2,13.3,0.2
				s-4.8,0.1-13.3,0.2c-8.4,0.1-20.5,0.3-34.9,0.5c-7.2,0.1-15.1,0.2-23.3,0.3c-8.3,0.1-17,0.2-26.1,0.2
				c-18.1,0.1-37.3,0.3-56.6,0.4c-4.8,0-9.6,0-14.4,0.1c-2.3,0-4.6,0.2-6.8,0.7c-2.2,0.5-4.3,1.1-6.2,2.1c-1,0.5-1.9,1.1-2.9,1.7
				c-0.9,0.6-1.7,1.2-2.4,2c-1.5,1.5-2.6,3.3-3.4,5.2s-1.3,4-1.6,6.1c0,0.5-0.1,1-0.1,1.5v0.9c0,0.2,0,0.5,0,0.7c0,1,0.2,2,0.4,3
				c0.9,3.9,3.3,7.4,6.6,9.5c3.2,2.2,7.1,3.1,10.7,2.5s6.7-2.8,8.5-5.7s2.4-6.5,1.4-9.4c-0.5-1.5-1.4-2.8-2.5-3.8
				c-1.1-1.1-2.4-1.9-3.8-2.5c-1.4-0.5-2.8-0.7-4.1-0.6c-1.3,0.2-2.6,0.7-3.7,1.4c-1,0.8-1.9,1.8-2.4,2.9c-0.3,0.5-0.5,1.1-0.6,1.7
				c-0.1,0.3-0.1,0.6-0.2,0.9c-0.1,0.2-0.1,0.7-0.1,0.9c0,1.1,0.3,2.2,0.8,3.1c0.6,0.9,1.3,1.7,2.1,2.3c1.6,1.2,3.4,1.6,4.9,1.2
				c1.5-0.4,2.6-1.3,3.3-2.1c0.7-0.9,0.9-1.7,1-2.3c0.1-0.3,0.1-0.5,0.1-0.7C1719.1,439.7,1719.1,439.6,1719.1,439.6z"/>
		</g>
		<g id="XMLID_2_">
			<path id="XMLID_151_" class="st8" d="M1705.1,316.1c0,0,0-0.1,0-0.2c0-0.1,0-0.3-0.1-0.6c-0.1-0.5-0.3-1.2-0.8-2
				s-1.4-1.7-2.6-2.2s-2.9-0.6-4.4,0.1c-0.8,0.4-1.5,0.9-2.2,1.5c-0.7,0.7-1.3,1.5-1.7,2.4c-0.2,0.5-0.3,0.9-0.4,1.4s-0.1,0.9,0,1.6
				c0.1,1,0.5,2.1,1,3.1c1.1,2,3.2,3.6,5.7,3.9c2.5,0.4,5.2-0.5,7.3-2.3c2.2-1.7,3.7-4.4,3.8-7.3c0.1-3-1.1-6.1-3.2-8.4
				c-2.1-2.4-5.2-3.9-8.4-4.1c-3.3-0.2-6.8,0.8-9.7,2.8c-2.9,2-5.1,5-6.1,8.4c-0.5,1.7-0.8,3.5-0.7,5.4c0.1,1.9,0.3,3.7,0.8,5.5
				c1,3.6,3.1,7,6,9.1c1.6,1.1,3.3,2.2,5,2.9c1.7,0.8,3.6,1.2,5.6,1.6c1.9,0.3,3.9,0.5,5.9,0.5c2.1,0,4.2,0,6.2,0.1
				c4.2,0,8.3,0.1,12.4,0.1c8.2,0.1,16.3,0.1,24.1,0.2c7.8,0.1,15.4,0.2,22.6,0.3s14,0.2,20.2,0.3c12.5,0.2,22.9,0.4,30.2,0.5
				c7.3,0.2,11.5,0.3,11.5,0.3s-4.2,0.1-11.5,0.3c-7.3,0.1-17.7,0.3-30.2,0.5c-6.3,0.1-13,0.2-20.2,0.3s-14.7,0.2-22.6,0.3
				c-7.8,0.1-15.9,0.1-24.1,0.2c-4.1,0-8.2,0.1-12.4,0.1c-2.1,0-4.2,0-6.2,0.1c-2.2,0-4.4-0.1-6.5-0.4c-0.5-0.1-1.1-0.2-1.6-0.3
				l-0.8-0.2l-0.8-0.2c-1.1-0.3-2.2-0.6-3.2-1.1c-2.1-0.9-4-2-5.8-3.3c-3.8-2.7-6.3-6.9-7.6-11.1c-0.6-2.1-1-4.4-1-6.5
				c-0.1-2.2,0.2-4.5,0.9-6.6c1.3-4.3,4.1-8,7.7-10.4c3.6-2.5,7.9-3.6,12.1-3.3c4.3,0.3,8.2,2.5,10.8,5.5c2.6,3.1,3.9,7,3.7,10.8
				c-0.2,3.9-2.4,7.3-5.2,9.3c-1.4,1-2.9,1.8-4.5,2.3c-1.6,0.4-3.3,0.5-4.9,0.2c-3.2-0.6-5.7-2.8-6.9-5.3c-0.6-1.3-0.9-2.6-1-3.9
				c0-0.6,0-1.3,0.1-1.9c0.1-0.6,0.4-1.2,0.6-1.8c0.6-1.1,1.4-1.9,2.1-2.6c0.8-0.7,1.7-1.2,2.6-1.6c1.9-0.7,3.7-0.4,5,0.3
				s2.1,1.7,2.6,2.6c0.5,0.9,0.6,1.7,0.6,2.2c0,0.3,0,0.4,0,0.6C1705.1,316.1,1705.1,316.1,1705.1,316.1z"/>
		</g>
	</g>
	<g id="XMLID_50_">
		<g id="XMLID_60_">
			<path id="XMLID_64_" class="st8" d="M949.3,421.1c0,0,0-0.1-0.1-0.3c0-0.2-0.1-0.5-0.4-0.9c-0.2-0.4-0.6-0.8-1.1-1
				c-0.5-0.3-1.2-0.4-1.9-0.2s-1.3,0.7-1.8,1.4c-0.2,0.3-0.4,0.7-0.5,1.1c0,0.2,0,0.4,0,0.6c0,0.3,0.1,0.4,0.1,0.7
				c0.3,0.9,0.9,1.7,1.8,2.2c0.9,0.5,2,0.5,3,0.1c0.5-0.2,1-0.5,1.4-0.9l0.3-0.3c0.1-0.1,0.2-0.2,0.3-0.3c0.2-0.2,0.3-0.5,0.5-0.7
				c0.3-0.5,0.4-1.1,0.4-1.6c0-0.1,0-0.3,0-0.4l-0.1-0.5c-0.1-0.4-0.1-0.5-0.2-0.9c-0.4-1.2-1.2-2.3-2.3-3c-0.5-0.3-1.1-0.6-1.8-0.7
				c-0.3-0.1-0.6-0.1-1-0.1h-0.1h-0.1l0,0c0,0,0.2,0,0.1,0h-0.3c-0.2,0-0.5,0-0.6,0.1c-0.5,0.1-1.3,0.3-1.9,0.6
				c-0.6,0.3-1.2,0.7-1.8,1.2c-1.1,1-1.8,2.3-2.1,3.7c-0.1,0.4-0.1,0.7-0.1,1.1c0,0.2,0,0.4,0,0.5c0,0.2,0,0.5,0,0.7
				c0,0.7,0.2,1.5,0.4,2.3c0.4,1.5,1.3,2.8,2.4,3.8c0.1,0.1,0.3,0.2,0.4,0.3l0.5,0.4c0.4,0.2,0.7,0.4,1.1,0.6
				c0.7,0.4,1.4,0.6,2.2,0.8c0.8,0.2,1.6,0.3,2.5,0.4c0.4,0,0.9,0.1,1.3,0.1h1.4c3.7,0,7.4,0.2,10.9,0.2c3.5,0.1,7,0.2,10.2,0.3
				c3.3,0.1,6.3,0.2,9.2,0.3c5.7,0.2,10.4,0.4,13.7,0.6c3.3,0.2,5.2,0.3,5.2,0.3s-1.9,0.1-5.2,0.3c-3.3,0.2-8,0.4-13.7,0.6
				c-2.8,0.1-5.9,0.2-9.2,0.3c-3.3,0.1-6.7,0.2-10.2,0.3s-7.2,0.2-10.9,0.2h-1.4c-0.5,0-1,0-1.5,0c-1,0-2.1-0.2-3.1-0.4
				s-2.1-0.5-3.1-1c-0.5-0.2-1-0.5-1.4-0.8l-0.6-0.4c-0.2-0.2-0.5-0.3-0.7-0.5c-1.8-1.5-3.1-3.5-3.7-5.6c-0.3-1.1-0.5-2.1-0.6-3.3
				c0-0.3,0-0.5,0-0.7c0-0.3,0-0.6,0-0.9c0-0.6,0.1-1.1,0.3-1.7c1-4.5,4.9-7.9,9.4-8.3c0.3,0,0.5,0,0.7,0h0.3h0.1h0.1h0.1h0.2
				c0.6,0,1.1,0.1,1.6,0.2c1.1,0.3,2.1,0.7,2.9,1.3c1.8,1.2,3,3,3.4,5c0.1,0.4,0.2,1.1,0.2,1.5v0.7c0,0.3,0,0.5-0.1,0.8
				c-0.1,1-0.5,2-1,2.8c-0.3,0.4-0.5,0.8-0.9,1.1c-0.2,0.2-0.3,0.3-0.5,0.5c-0.2,0.2-0.3,0.2-0.5,0.4c-0.7,0.5-1.5,0.9-2.3,1.2
				c-1.7,0.5-3.6,0.2-4.9-0.7s-2.1-2.3-2.4-3.6c0-0.3-0.1-0.8-0.1-1c0-0.4,0.1-0.7,0.2-1c0.2-0.6,0.5-1.2,0.9-1.6
				c0.8-0.8,1.7-1.4,2.7-1.5s1.8,0.2,2.4,0.6c0.6,0.4,0.9,0.9,1.1,1.4c0.2,0.4,0.2,0.8,0.2,1C949.3,421,949.3,421.1,949.3,421.1z"/>
		</g>
		<g id="XMLID_57_">
			<path id="XMLID_66_" class="st8" d="M974.7,457.6c0,0,0.1,0.6-0.3,1.7c-0.2,0.5-0.6,1.1-1.3,1.6s-1.8,0.8-2.9,0.6
				c-1.1-0.2-2.3-1-3.1-2c-0.5-0.6-0.8-1.2-1-2c-0.1-0.4-0.1-0.8-0.1-1.2s0.1-0.8,0.2-1.2c0.4-1.6,1.5-3.2,3.2-4.1
				c1.7-0.9,4-1,5.9-0.2c1,0.4,1.9,1,2.6,1.7c0.8,0.8,1.5,1.6,2,2.7c0.5,1.1,0.8,2.2,0.7,3.5v0.7c0,0.3-0.1,0.6-0.1,0.9
				c-0.1,0.6-0.3,1.2-0.5,1.7c-0.8,2.3-2.6,4.2-4.9,5.4c-1.1,0.6-2.4,1-3.7,1.1h-0.5h-0.2h-0.1h-0.2h-0.8c-0.6,0-1.4-0.1-2-0.3
				c-2.5-0.6-4.9-2-6.6-4.1c-1.7-2-2.9-4.6-3-7.4c0-0.4,0-0.7,0-1.1c0-0.3,0-0.5,0-0.9c0.1-0.7,0.1-1.3,0.3-2
				c0.2-1.3,0.6-2.6,1.2-3.8c0.6-1.2,1.3-2.4,2.3-3.4c0.9-1,2.2-1.9,3.2-2.5c1.1-0.7,2.3-1.3,3.6-1.6c1.3-0.4,2.5-0.6,3.8-0.7
				c1.2-0.1,2.6-0.1,3.7-0.1c1.2,0,2.3,0,3.5,0.1c4.6,0.1,9.2,0.2,13.5,0.2c4.4,0.1,8.6,0.2,12.7,0.3c4,0.1,7.8,0.2,11.4,0.3
				c7,0.2,12.9,0.4,17,0.6c4.1,0.2,6.4,0.3,6.4,0.3s-2.3,0.1-6.4,0.3s-10,0.4-17,0.6c-3.5,0.1-7.3,0.2-11.4,0.3
				c-4,0.1-8.3,0.2-12.7,0.3c-4.4,0.1-8.9,0.2-13.5,0.2c-1.2,0-2.3,0-3.5,0.1c-1.2,0-2.2,0.1-3.3,0.2c-1.1,0.1-2.1,0.4-3.1,0.7
				s-1.8,0.8-2.7,1.3c-1,0.6-1.7,1.1-2.3,1.8c-0.6,0.7-1.2,1.5-1.6,2.4s-0.7,1.9-0.9,2.8c-0.1,0.5-0.1,1-0.2,1.5c0,0.2,0,0.6,0,0.8
				s0,0.5,0,0.7c0.1,1.9,0.8,3.7,2,5.1c1.2,1.4,2.8,2.4,4.6,2.9c0.2,0.1,0.4,0.1,0.6,0.1c0.2,0,0.3,0.1,0.6,0.1l0.8,0.1h0.6
				c0.8-0.1,1.7-0.3,2.4-0.6c1.5-0.7,2.7-2,3.4-3.5c0.2-0.4,0.3-0.8,0.4-1.1l0.1-0.5l0.1-0.7c0.1-0.6-0.1-1.5-0.3-2.1
				c-0.3-0.7-0.7-1.3-1.2-1.8s-1.2-1-1.8-1.3c-1.3-0.7-2.7-0.7-3.9-0.2c-1.2,0.5-2.1,1.5-2.5,2.6c-0.1,0.3-0.2,0.6-0.2,0.8
				c0,0.3-0.1,0.6,0,0.9c0,0.5,0.2,1,0.5,1.5c0.6,0.9,1.4,1.6,2.3,1.9c0.9,0.3,1.7,0.2,2.4-0.2c0.7-0.3,1.1-0.8,1.4-1.3
				c0.3-0.5,0.4-0.9,0.5-1.1C974.7,457.7,974.7,457.6,974.7,457.6z"/>
		</g>
		<g id="XMLID_56_">
			<path id="XMLID_91_" class="st8" d="M1004.4,423.6c0,0,2.7-0.3,6.8-0.6c2.1-0.1,4.4-0.2,7-0.3c1.3,0,2.6-0.1,4-0.1
				c1.3,0,2.7,0,4.1,0c1.4,0,2.7,0,4.1,0c1.3,0,2.7,0.1,4,0.1c2.6,0.1,5,0.2,7,0.3c4.1,0.2,6.8,0.6,6.8,0.6s-2.7,0.3-6.8,0.6
				c-2.1,0.1-4.4,0.2-7,0.3c-1.3,0-2.6,0.1-4,0.1c-1.3,0-2.7,0-4.1,0c-1.4,0-2.7,0-4.1,0c-1.3,0-2.7-0.1-4-0.1c-2.6-0.1-5-0.2-7-0.3
				C1007.1,423.9,1004.4,423.6,1004.4,423.6z"/>
		</g>
		<g id="XMLID_55_">
			<path id="XMLID_93_" class="st8" d="M1043.7,433.6c0,0,1.9-0.3,4.8-0.6c1.4-0.1,3.1-0.2,4.9-0.3c0.9,0,1.8-0.1,2.8-0.1
				c0.9,0,1.9,0,2.9,0s1.9,0,2.9,0c0.9,0,1.9,0.1,2.8,0.1c1.8,0.1,3.5,0.2,4.9,0.3c2.9,0.2,4.8,0.6,4.8,0.6s-1.9,0.3-4.8,0.6
				c-1.4,0.1-3.1,0.2-4.9,0.3c-0.9,0-1.8,0.1-2.8,0.1c-0.9,0-1.9,0-2.9,0s-1.9,0-2.9,0c-0.9,0-1.9-0.1-2.8-0.1
				c-1.8-0.1-3.5-0.2-4.9-0.3C1045.6,433.9,1043.7,433.6,1043.7,433.6z"/>
		</g>
		<g id="XMLID_54_">
			<path id="XMLID_95_" class="st8" d="M1016.1,461.6c0,0,4.1-0.3,10.1-0.6c3-0.1,6.6-0.2,10.4-0.3c1.9,0,3.9-0.1,5.9-0.1s4,0,6,0
				s4.1,0,6,0c2,0,4,0.1,5.9,0.1c3.8,0.1,7.3,0.2,10.4,0.3c6.1,0.2,10.1,0.6,10.1,0.6s-4.1,0.3-10.1,0.6c-3,0.1-6.6,0.2-10.4,0.3
				c-1.9,0-3.9,0.1-5.9,0.1s-4,0-6,0s-4.1,0-6,0c-2,0-4-0.1-5.9-0.1c-3.8-0.1-7.3-0.2-10.4-0.3
				C1020.1,461.9,1016.1,461.6,1016.1,461.6z"/>
		</g>
		<g id="XMLID_11_">
			<path id="XMLID_68_" class="st8" d="M944.2,493.4c-0.1,0,0.2,0.9-0.6,2.3c-0.4,0.7-1.1,1.5-2.3,1.9c-1.1,0.4-2.7,0.2-4-0.6
				c-0.7-0.4-1.3-1-1.8-1.7s-0.9-1.7-1-2.7c-0.1-1.9,0.7-4.2,2.5-5.7c0.9-0.7,2-1.3,3.3-1.5c1.2-0.2,2.6-0.1,3.8,0.3
				c1.2,0.4,2.4,1.1,3.4,2c1.1,0.9,1.9,2.1,2.5,3.5c0.3,0.7,0.5,1.4,0.6,2.2l0.1,0.6v0.3v0.1v0.1v0.1l-0.1,1
				c-0.1,0.4-0.1,0.8-0.2,1.2c-0.1,0.4-0.2,0.7-0.3,1.1c-0.2,0.7-0.5,1.4-0.9,2.1c-1.6,2.7-4.3,4.8-7.7,5.4
				c-3.3,0.6-6.8-0.1-9.6-2.1c-2.9-1.9-5-4.9-5.9-8.4c-0.2-0.9-0.3-1.8-0.4-2.7c0-0.2,0-0.4,0-0.7v-0.6c0-0.4,0.1-0.9,0.1-1.3
				c0.2-1.7,0.6-3.5,1.4-5.1c0.7-1.6,1.7-3.2,3-4.5c0.6-0.7,1.4-1.3,2.2-1.8c0.7-0.5,1.4-0.9,2.2-1.3c1.6-0.8,3.4-1.4,5.1-1.6
				c1.7-0.3,3.5-0.4,5.2-0.4c3.3,0.1,6.5,0.1,9.8,0.1c13.1,0.1,26.1,0.3,38.4,0.4c12.3,0.2,23.7,0.3,33.5,0.5
				c19.6,0.4,32.7,0.7,32.7,0.7s-13.1,0.4-32.7,0.7c-9.8,0.2-21.2,0.4-33.5,0.5c-12.3,0.1-25.3,0.3-38.4,0.4c-3.3,0-6.5,0-9.8,0.1
				c-3,0.1-6.1,0.6-8.5,1.9c-0.6,0.3-1.3,0.7-1.9,1.2c-0.6,0.4-1.1,0.8-1.5,1.3c-0.9,0.9-1.7,2.1-2.2,3.3s-0.9,2.6-1,4
				c0,0.3-0.1,0.6-0.1,1v0.6v0.4c0,0.6,0.1,1.3,0.2,1.9c0.6,2.5,2.1,4.7,4.2,6.1c2,1.4,4.6,2,6.8,1.7c2.3-0.3,4.2-1.7,5.4-3.6
				c0.3-0.5,0.5-0.9,0.7-1.4c0.1-0.2,0.2-0.5,0.2-0.8l0.2-0.7l0.1-0.9c0,0,0-0.1,0,0l0,0v-0.1V494v-0.4c0-0.5-0.1-1-0.3-1.4
				c-0.3-0.9-0.9-1.8-1.5-2.4c-0.7-0.7-1.5-1.3-2.4-1.6c-1.7-0.7-3.6-0.5-4.9,0.5c-1.4,1-2.2,2.5-2.2,4c0,0.7,0.2,1.4,0.5,2
				s0.8,1.1,1.3,1.5c1,0.8,2.2,1.1,3.2,0.9c1-0.2,1.8-0.8,2.2-1.4C944.3,494.4,944.2,493.4,944.2,493.4z"/>
		</g>
		<g id="XMLID_5_">
			<path id="XMLID_9_" class="st8" d="M992.3,381.3c0,0,0-0.1,0-0.2c0-0.1,0-0.3-0.1-0.6c-0.1-0.5-0.3-1.2-0.8-2s-1.4-1.7-2.6-2.2
				s-2.9-0.6-4.4,0.1c-0.8,0.4-1.5,0.9-2.2,1.5c-0.7,0.7-1.3,1.5-1.7,2.4c-0.2,0.5-0.3,0.9-0.4,1.4s-0.1,0.9,0,1.6
				c0.1,1,0.5,2.1,1,3.1c1.1,2,3.2,3.6,5.7,3.9c2.5,0.4,5.2-0.5,7.3-2.3c2.2-1.7,3.7-4.4,3.8-7.3c0.1-3-1.1-6.1-3.2-8.4
				c-2.1-2.4-5.2-3.9-8.4-4.1c-3.3-0.2-6.8,0.8-9.7,2.8s-5.1,5-6.1,8.4c-0.5,1.7-0.8,3.5-0.7,5.4s0.3,3.7,0.8,5.5c1,3.6,3.1,7,6,9.1
				c1.6,1.1,3.3,2.2,5,2.9c1.7,0.8,3.6,1.2,5.6,1.6c1.9,0.3,3.9,0.5,5.9,0.5c2.1,0,4.2,0,6.2,0.1c4.2,0,8.3,0.1,12.4,0.1
				c8.2,0.1,16.3,0.1,24.1,0.2c7.8,0.1,15.4,0.2,22.6,0.3c7.2,0.1,14,0.2,20.2,0.3c12.5,0.2,22.9,0.4,30.2,0.5
				c7.3,0.2,11.5,0.3,11.5,0.3s-4.2,0.1-11.5,0.3c-7.3,0.1-17.7,0.3-30.2,0.5c-6.3,0.1-13,0.2-20.2,0.3c-7.2,0.1-14.7,0.2-22.6,0.3
				c-7.8,0.1-15.9,0.1-24.1,0.2c-4.1,0-8.2,0.1-12.4,0.1c-2.1,0-4.2,0-6.2,0.1c-2.2,0-4.4-0.1-6.5-0.4c-0.5-0.1-1.1-0.2-1.6-0.3
				l-0.8-0.2l-0.8-0.2c-1.1-0.3-2.2-0.6-3.2-1.1c-2.1-0.9-4-2-5.8-3.3c-3.8-2.7-6.3-6.9-7.6-11.1c-0.6-2.1-1-4.4-1-6.5
				c-0.1-2.2,0.2-4.5,0.9-6.6c1.3-4.3,4.1-8,7.7-10.4c3.6-2.5,7.9-3.6,12.1-3.3c4.3,0.3,8.2,2.5,10.8,5.5c2.6,3.1,3.9,7,3.7,10.8
				c-0.2,3.9-2.4,7.3-5.2,9.3c-1.4,1-2.9,1.8-4.5,2.3c-1.6,0.4-3.3,0.5-4.9,0.2c-3.2-0.6-5.7-2.8-6.9-5.3c-0.6-1.3-0.9-2.6-1-3.9
				c0-0.6,0-1.3,0.1-1.9c0.1-0.6,0.4-1.2,0.6-1.8c0.6-1.1,1.4-1.9,2.1-2.6c0.8-0.7,1.7-1.2,2.6-1.6c1.9-0.7,3.7-0.4,5,0.3
				s2.1,1.7,2.6,2.6c0.5,0.9,0.6,1.7,0.6,2.2c0,0.3,0,0.4,0,0.6C992.3,381.2,992.3,381.3,992.3,381.3z"/>
		</g>
	</g>
	<g id="XMLID_49_">
		<g id="XMLID_81_">
			<path id="XMLID_87_" class="st8" d="M804.7,60.5c0,0,0-0.4-0.3-0.9c-0.3-0.5-1.2-1.2-2.2-0.8c-0.5,0.1-0.9,0.5-1.3,1
				c-0.2,0.2-0.3,0.5-0.3,0.8c0,0.1,0,0.3,0,0.4c0,0.2,0,0.4,0.1,0.5c0.2,0.6,0.7,1.2,1.3,1.5s1.4,0.4,2.1,0.1
				c0.7-0.3,1.4-0.9,1.8-1.6c0.2-0.4,0.3-0.8,0.3-1.2c0-0.1,0-0.2,0-0.3v-0.4c0-0.3-0.1-0.4-0.2-0.6c-0.3-0.8-0.8-1.6-1.6-2.1
				c-0.4-0.2-0.8-0.4-1.3-0.5c-0.2,0-0.5-0.1-0.7-0.1h-0.1l0,0l0,0c0.1,0,0,0,0,0h-0.2c-0.1,0-0.3,0-0.4,0c-0.4,0.1-0.9,0.2-1.4,0.4
				c-0.5,0.2-0.9,0.5-1.3,0.8c-0.8,0.7-1.3,1.6-1.5,2.6c-0.4,2.1,0.3,4.7,1.9,6c0.1,0.1,0.2,0.2,0.3,0.2l0.4,0.3
				c0.3,0.2,0.5,0.3,0.8,0.5c0.5,0.3,1,0.5,1.6,0.6c0.6,0.2,1.2,0.2,1.8,0.3c0.3,0,0.6,0,0.9,0.1h1c2.7,0.1,5.4,0.1,7.9,0.2
				c2.6,0.1,5.1,0.1,7.4,0.2c2.4,0.1,4.6,0.2,6.6,0.2c4.1,0.2,7.5,0.3,9.9,0.5c2.4,0.1,3.8,0.2,3.8,0.2s-1.4,0.1-3.8,0.2
				s-5.8,0.3-9.9,0.5c-2.1,0.1-4.3,0.1-6.6,0.2c-2.4,0.1-4.8,0.1-7.4,0.2c-2.6,0.1-5.2,0.1-7.9,0.2h-1c-0.4,0-0.7,0-1.1,0
				c-0.7,0-1.5-0.1-2.2-0.3c-0.7-0.1-1.6-0.4-2.3-0.8c-0.4-0.2-0.7-0.4-1-0.6l-0.5-0.3c-0.2-0.1-0.4-0.2-0.5-0.4
				c-1.3-1.1-2.2-2.6-2.7-4.1c-0.2-0.8-0.4-1.5-0.4-2.4c0-0.2,0-0.4,0-0.5c0-0.3,0-0.4,0-0.6c0-0.4,0.1-0.8,0.2-1.2
				c0.8-3.3,3.6-5.8,6.9-6.1c0.2,0,0.3,0,0.5,0h0.2h0.1l0,0h0.1h0.2c0.4,0,0.8,0.1,1.2,0.2c0.8,0.2,1.5,0.5,2.1,1
				c1.3,0.9,2.2,2.2,2.5,3.6c0.1,0.3,0.2,0.8,0.2,1.1v0.5c0,0.2,0,0.4,0,0.6c-0.1,0.7-0.4,1.4-0.7,2c-0.8,1.2-1.9,2-3.1,2.3
				c-1.2,0.4-2.6,0.2-3.6-0.5s-1.6-1.6-1.7-2.7c-0.1-0.3,0-0.5,0-0.7c0-0.3,0-0.5,0.1-0.8c0.1-0.5,0.4-0.9,0.7-1.2
				c0.5-0.6,1.3-1,1.9-1.1c0.7-0.1,1.3,0.1,1.7,0.4s0.6,0.7,0.8,1C804.8,60.2,804.7,60.5,804.7,60.5z"/>
		</g>
		<g id="XMLID_78_">
			<path id="XMLID_85_" class="st8" d="M790.7,95.6c0,0,0,0.1,0,0.4c0,0.2-0.1,0.6-0.2,1c-0.2,0.4-0.5,0.9-1.1,1.3
				c-0.6,0.4-1.4,0.6-2.4,0.5c-0.9-0.2-1.8-0.8-2.6-1.6c-0.4-0.5-0.7-1-0.8-1.7c-0.1-0.3-0.1-0.7-0.1-1c0-0.4,0.1-0.7,0.1-1
				c0.3-1.3,1.2-2.6,2.6-3.4c1.4-0.8,3.2-0.8,4.8-0.2c0.8,0.3,1.5,0.8,2.2,1.4s1.2,1.3,1.6,2.2c0.4,0.9,0.6,1.8,0.6,2.9V97l-0.1,0.8
				c-0.1,0.5-0.2,0.9-0.4,1.4c-0.7,1.8-2.1,3.5-4,4.4c-0.9,0.5-2,0.8-3,0.9c-0.3,0-0.5,0-0.9,0h-0.7c-0.5,0-1.1-0.1-1.6-0.2
				c-2.1-0.5-4-1.7-5.4-3.3c-1.4-1.6-2.3-3.8-2.5-6c0-0.3,0-0.5,0-0.9c0-0.3,0-0.4,0-0.7c0-0.6,0.1-1.1,0.2-1.6
				c0.2-1.1,0.5-2.1,1-3.1s1.1-1.9,1.9-2.8c0.8-0.8,1.8-1.5,2.6-2c0.9-0.5,1.9-1,3-1.3c1-0.3,2.1-0.5,3.1-0.6s2.1-0.1,3-0.1
				c1,0,1.9,0,2.9,0c3.8,0.1,7.6,0.1,11.2,0.2c3.6,0.1,7.1,0.1,10.5,0.2c3.3,0.1,6.5,0.2,9.4,0.2c5.8,0.2,10.7,0.3,14.1,0.4
				c3.4,0.1,5.3,0.2,5.3,0.2s-1.9,0.1-5.3,0.2c-3.4,0.1-8.2,0.3-14.1,0.4c-2.9,0.1-6.1,0.1-9.4,0.2s-6.8,0.1-10.5,0.2
				c-3.6,0.1-7.4,0.1-11.2,0.2c-1,0-1.9,0-2.9,0s-1.8,0-2.7,0.2c-0.9,0.1-1.8,0.3-2.6,0.6c-0.8,0.3-1.5,0.6-2.3,1.1
				c-0.8,0.5-1.4,0.9-2,1.5c-0.5,0.6-1,1.3-1.3,2c-0.3,0.8-0.6,1.6-0.7,2.4c-0.1,0.4-0.1,0.8-0.1,1.2c0,0.2,0,0.5,0,0.7s0,0.4,0,0.6
				c0.1,1.6,0.7,3.1,1.7,4.3c1,1.2,2.4,2.1,3.8,2.4c0.4,0.1,0.6,0.1,1.1,0.2h0.7h0.5c0.7,0,1.4-0.2,2.1-0.5c1.3-0.6,2.3-1.7,2.8-2.9
				c0.1-0.3,0.2-0.6,0.3-1l0.1-0.5l0.1-0.6c0-0.5-0.1-1.2-0.3-1.8c-0.2-0.6-0.6-1.1-1-1.6c-0.5-0.5-1-0.8-1.5-1.1
				c-1.1-0.5-2.3-0.6-3.3-0.2s-1.7,1.3-2.1,2.2c-0.1,0.2-0.1,0.5-0.2,0.7c0,0.3-0.1,0.5,0,0.7c0,0.4,0.2,0.9,0.4,1.2
				c0.5,0.8,1.2,1.4,1.9,1.6c0.7,0.2,1.4,0.1,2-0.1c0.6-0.3,0.9-0.7,1.2-1.1C790.4,96.1,790.5,95.8,790.7,95.6
				C790.7,95.7,790.7,95.6,790.7,95.6z"/>
		</g>
		<g id="XMLID_77_">
			<path id="XMLID_128_" class="st8" d="M898.4,87.6c0,0,1.8-0.3,4.6-0.6c1.4-0.1,3-0.2,4.7-0.3c0.9,0,1.7-0.1,2.6-0.1
				c0.9,0,1.8,0,2.7,0s1.8,0,2.7,0c0.9,0,1.8,0.1,2.6,0.1c1.7,0.1,3.3,0.2,4.7,0.3c2.8,0.2,4.6,0.6,4.6,0.6s-1.8,0.3-4.6,0.6
				c-1.4,0.1-3,0.2-4.7,0.3c-0.9,0-1.7,0.1-2.6,0.1c-0.9,0-1.8,0-2.7,0c-0.9,0-1.8,0-2.7,0s-1.8-0.1-2.6-0.1
				c-1.7-0.1-3.3-0.2-4.7-0.3C900.2,87.9,898.4,87.6,898.4,87.6z"/>
		</g>
		<g id="XMLID_76_">
			<path id="XMLID_130_" class="st8" d="M830.7,98.6c0,0,2.9-0.3,7.3-0.6c2.2-0.1,4.7-0.2,7.5-0.3c1.4,0,2.8-0.1,4.2-0.1
				c1.4,0,2.9,0,4.4,0s2.9,0,4.4,0c1.4,0,2.9,0.1,4.2,0.1c2.7,0.1,5.3,0.2,7.5,0.3c4.4,0.2,7.3,0.6,7.3,0.6s-2.9,0.3-7.3,0.6
				c-2.2,0.1-4.7,0.2-7.5,0.3c-1.4,0-2.8,0.1-4.2,0.1c-1.4,0-2.9,0-4.4,0s-2.9,0-4.4,0c-1.4,0-2.9-0.1-4.2-0.1
				c-2.7-0.1-5.3-0.2-7.5-0.3C833.6,98.9,830.7,98.6,830.7,98.6z"/>
		</g>
		<g id="XMLID_75_">
			<path id="XMLID_132_" class="st8" d="M854.1,62.6c0,0,4.1-0.3,10.1-0.6c3-0.1,6.6-0.2,10.4-0.3c1.9,0,3.9-0.1,5.9-0.1s4,0,6,0
				s4.1,0,6,0c2,0,4,0.1,5.9,0.1c3.8,0.1,7.3,0.2,10.4,0.3c6.1,0.2,10.1,0.6,10.1,0.6s-4.1,0.3-10.1,0.6c-3,0.1-6.6,0.2-10.4,0.3
				c-1.9,0-3.9,0.1-5.9,0.1s-4,0-6,0s-4.1,0-6,0c-2,0-4-0.1-5.9-0.1c-3.8-0.1-7.3-0.2-10.4-0.3C858.1,62.9,854.1,62.6,854.1,62.6z"
				/>
		</g>
		<g id="XMLID_59_">
			<path id="XMLID_83_" class="st8" d="M783,127.9c-0.1,0,0.2,0.9-0.6,2.3c-0.4,0.7-1.1,1.5-2.3,1.9c-1.1,0.4-2.7,0.2-4-0.6
				c-0.7-0.4-1.3-1-1.8-1.7s-0.9-1.7-1-2.7c-0.1-1.9,0.7-4.2,2.5-5.7c0.9-0.7,2-1.3,3.3-1.5c1.2-0.2,2.6-0.1,3.8,0.3
				c1.2,0.4,2.4,1.1,3.4,2c1.1,0.9,1.9,2.1,2.5,3.5c0.3,0.7,0.5,1.4,0.6,2.2l0.1,0.6v0.3v0.1v0.1v0.1l-0.1,1
				c-0.1,0.4-0.1,0.8-0.2,1.2c-0.1,0.4-0.2,0.7-0.3,1.1c-0.2,0.7-0.5,1.4-0.9,2.1c-1.6,2.7-4.3,4.8-7.7,5.4
				c-3.3,0.6-6.8-0.1-9.6-2.1c-2.9-1.9-5-4.9-5.9-8.4c-0.2-0.9-0.3-1.8-0.4-2.7c0-0.2,0-0.4,0-0.7v-0.6c0-0.4,0.1-0.9,0.1-1.3
				c0.2-1.7,0.6-3.5,1.4-5.1c0.7-1.6,1.7-3.2,3-4.5c0.6-0.7,1.4-1.3,2.2-1.8c0.7-0.5,1.4-0.9,2.2-1.3c1.6-0.8,3.4-1.4,5.1-1.6
				c1.7-0.3,3.5-0.4,5.2-0.4c3.3,0.1,6.5,0.1,9.8,0.1c13.1,0.1,26.1,0.3,38.4,0.4c12.3,0.2,23.7,0.3,33.5,0.5
				c19.6,0.4,32.7,0.7,32.7,0.7s-13.1,0.4-32.7,0.7c-9.8,0.2-21.2,0.4-33.5,0.5c-12.3,0.1-25.3,0.3-38.4,0.4c-3.3,0-6.5,0-9.8,0.1
				c-3,0.1-6.1,0.6-8.5,1.9c-0.6,0.3-1.3,0.7-1.9,1.2c-0.6,0.4-1.1,0.8-1.5,1.3c-0.9,0.9-1.7,2.1-2.2,3.3c-0.5,1.2-0.9,2.6-1,4
				c0,0.3-0.1,0.6-0.1,1v0.6v0.4c0,0.6,0.1,1.3,0.2,1.9c0.6,2.5,2.1,4.7,4.2,6.1c2,1.4,4.6,2,6.8,1.7c2.3-0.3,4.2-1.7,5.4-3.6
				c0.3-0.5,0.5-0.9,0.7-1.4c0.1-0.2,0.2-0.5,0.2-0.8l0.2-0.7l0.1-0.9c0,0,0-0.1,0,0l0,0v-0.1v-0.2v-0.4c0-0.5-0.1-1-0.3-1.4
				c-0.3-0.9-0.9-1.8-1.5-2.4c-0.7-0.7-1.5-1.3-2.4-1.6c-1.7-0.7-3.6-0.5-4.9,0.5c-1.4,1-2.1,2.5-2.2,4c0,0.7,0.2,1.4,0.5,2
				s0.8,1.1,1.3,1.5c1,0.8,2.2,1.1,3.2,0.9s1.8-0.8,2.2-1.4C783.1,128.9,783,127.9,783,127.9z"/>
		</g>
		<g id="XMLID_12_">
			<path id="XMLID_89_" class="st8" d="M779.8,25.3c0,0,0-0.1,0-0.2c0-0.2,0-0.4-0.1-0.7c-0.1-0.6-0.4-1.5-1.2-2.4s-2-1.8-3.7-2
				s-3.6,0.5-5.1,2.1c-0.4,0.4-0.7,0.8-1.1,1.3c-0.3,0.4-0.6,0.9-0.7,1.5c-0.2,0.5-0.3,1.1-0.3,1.7v0.2V27v0.5
				c0,0.3,0.1,0.6,0.2,0.9c0.5,2.4,2.4,4.8,5.1,5.7c1.3,0.5,2.8,0.6,4.2,0.3c1.5-0.3,2.9-1,4.2-1.9l0.5-0.4l0.1-0.1l0.1-0.1l0.3-0.2
				c0.3-0.3,0.5-0.5,0.8-0.9c0.5-0.6,1-1.3,1.4-2c0.7-1.4,1.1-3.1,1-4.8c-0.2-3.5-1.9-7-4.9-9.3c-1.5-1.1-3.2-1.9-5.1-2.3
				c-1.8-0.4-3.9-0.3-5.8,0.2c-3.9,0.9-7.6,3.4-9.8,7c-1.1,1.8-1.9,3.8-2.2,5.9c-0.2,1.1-0.2,2.1-0.2,3.3c0,0.6,0.1,1.1,0.1,1.7
				c0.1,0.6,0.1,1.1,0.2,1.7c0.8,4.4,3,8.7,6.6,11.3c0.9,0.7,2,1.3,3,1.9s2.1,1.1,3.2,1.5c2.2,0.8,4.6,1.2,7.1,1.5
				c1.2,0.1,2.4,0.2,3.7,0.2c1.3,0,2.6,0,3.9,0c2.6,0,5.2,0,7.8,0c5.2,0,10.5,0.1,15.7,0.1c21,0.1,41.9,0.3,61.6,0.4
				c19.7,0.1,38,0.3,53.7,0.5c15.7,0.2,28.8,0.3,38,0.5c9.2,0.1,14.4,0.2,14.4,0.2s-5.2,0.1-14.4,0.2c-9.2,0.1-22.3,0.3-38,0.5
				c-15.7,0.2-34.1,0.4-53.7,0.5c-19.7,0.1-40.6,0.3-61.6,0.4c-5.2,0-10.5,0.1-15.7,0.1c-2.6,0-5.2,0-7.8,0c-1.3,0-2.6,0-3.9,0
				s-2.7,0-4-0.1c-2.7-0.2-5.4-0.6-8-1.5c-1.3-0.4-2.6-1-3.8-1.7s-2.3-1.3-3.4-2.1c-2.3-1.6-4.2-3.8-5.5-6.2c-1.4-2.4-2.2-5-2.7-7.6
				c-0.1-0.7-0.2-1.3-0.3-2c0-0.7-0.1-1.4-0.1-2c-0.1-1.3,0-2.7,0.3-4c0.4-2.6,1.4-5.2,2.8-7.4c2.8-4.4,7.4-7.6,12.3-8.6
				c0.6-0.1,1.2-0.2,1.8-0.3c0.6-0.1,1.3-0.1,1.8-0.1c1.2,0,2.5,0.1,3.7,0.4c2.4,0.5,4.7,1.6,6.5,3.1c1.9,1.5,3.3,3.4,4.4,5.4
				c1,2.1,1.5,4.3,1.5,6.5c0.1,2.3-0.5,4.5-1.6,6.3c-0.5,0.9-1.1,1.8-1.9,2.5c-0.3,0.4-0.8,0.8-1.1,1.1l-0.3,0.2l-0.2,0.1l-0.1,0.1
				l-0.6,0.4c-1.6,1.1-3.5,1.9-5.4,2.1c-1.9,0.3-3.8,0-5.5-0.7c-3.3-1.4-5.5-4.5-5.9-7.5c-0.1-0.4-0.1-0.8-0.1-1.1v-0.5v-0.3v-0.3
				c0.1-0.8,0.3-1.5,0.5-2.1c0.3-0.7,0.6-1.2,1.1-1.8c0.4-0.5,0.8-0.9,1.3-1.3c1.8-1.6,4.1-2.3,6-1.9c1.9,0.3,3.2,1.5,3.9,2.5
				c0.7,1.1,0.9,2,1,2.6c0,0.3,0,0.6,0,0.7C779.8,25.2,779.8,25.3,779.8,25.3z"/>
		</g>
	</g>
	<g id="XMLID_43_">
		<g id="XMLID_118_">
			<path id="XMLID_120_" class="st8" d="M2329,76.5c0,0,0,0.1,0,0.3c0,0.2,0,0.5-0.1,0.8c-0.1,0.4-0.3,0.8-0.7,1.2
				c-0.4,0.4-0.9,0.8-1.7,1c-0.7,0.2-1.7,0-2.5-0.4c-0.8-0.5-1.6-1.1-2.1-2.1c-0.9-2.1,0-5.2,2.6-6.5c1.3-0.7,2.9-0.8,4.4-0.4
				s2.8,1.3,3.8,2.6c2.1,2.7,1.8,6.9-0.5,9.6c-1.1,1.4-2.7,2.5-4.5,3c-0.9,0.3-1.8,0.4-2.8,0.3c-0.2,0-0.4,0-0.6,0l-0.7-0.1
				c-0.5-0.1-0.9-0.2-1.4-0.3c-3.5-1.1-6.4-4.1-7.3-7.8c-0.2-0.9-0.3-1.8-0.3-2.8c0-0.2,0-0.4,0-0.6l0.1-0.7
				c0.1-0.4,0.1-0.9,0.2-1.3c0.4-1.7,1.1-3.4,2.1-4.9c0.5-0.7,1.2-1.4,1.9-2c0.3-0.3,0.8-0.6,1.1-0.8c0.4-0.2,0.7-0.4,1.1-0.6
				c0.7-0.4,1.5-0.8,2.4-1c0.8-0.3,1.6-0.4,2.4-0.5c0.8-0.1,1.6-0.2,2.3-0.2c0.4,0,0.8,0,1.1,0c0.4,0,0.7,0,1,0
				c1.4,0,2.7,0.1,4.1,0.1c2.6,0.1,5.1,0.2,7.4,0.4c4.6,0.3,8.4,0.6,11.1,0.8c2.7,0.2,4.2,0.4,4.2,0.4s-1.5,0.2-4.2,0.4
				c-2.7,0.3-6.5,0.6-11.1,0.8c-2.3,0.2-4.8,0.2-7.4,0.4c-1.3,0.1-2.7,0.1-4.1,0.1c-0.3,0-0.7,0-1,0s-0.6,0-1,0
				c-0.6,0-1.3,0.1-1.9,0.3c-0.6,0.1-1.3,0.3-1.8,0.5c-0.6,0.2-1.1,0.5-1.7,0.8c-0.3,0.2-0.6,0.3-0.8,0.5c-0.3,0.2-0.5,0.4-0.7,0.5
				c-0.4,0.4-0.8,0.8-1.2,1.3c-0.7,1-1.2,2.2-1.4,3.4c-0.1,0.3-0.1,0.6-0.1,1v0.4V75c0,0.6,0,1.2,0.2,1.8c0.5,2.3,2.4,4.3,4.6,5.1
				c0.3,0.1,0.6,0.2,0.8,0.2l0.4,0.1c0.1,0,0.4,0,0.5,0c0.6,0.1,1.1,0,1.7-0.1c1.1-0.2,2-0.8,2.8-1.7c1.4-1.6,1.9-4.1,0.7-5.7
				c-0.5-0.8-1.4-1.5-2.3-1.9c-0.9-0.4-1.8-0.4-2.6-0.1c-1.6,0.6-2.6,2.6-2.2,4c0.2,0.7,0.8,1.3,1.3,1.8c0.6,0.4,1.2,0.6,1.8,0.6
				c1.2-0.1,2-0.9,2.3-1.5c0.2-0.3,0.2-0.6,0.3-0.8C2329,76.6,2329,76.5,2329,76.5z"/>
		</g>
		<g id="XMLID_115_">
			<path id="XMLID_117_" class="st8" d="M2341.1,38.5c0,0,0-0.1,0-0.3c0-0.2-0.1-0.5-0.3-0.8c-0.3-0.7-1.3-1.5-2.7-1.4
				c-0.6,0.1-1.3,0.4-1.8,1c-0.6,0.6-1,1.3-0.9,2.1c0,0.8,0.4,1.7,1.1,2.4c0.6,0.7,1.6,1.1,2.5,1c1,0,1.9-0.5,2.8-1.2
				c0.8-0.7,1.4-1.7,1.5-2.7c0.2-2.2-1.3-4.7-3.6-5.5c-0.6-0.2-1.2-0.3-1.8-0.3h-0.1l0,0c0,0-0.1,0,0.1,0h-0.1h-0.3
				c-0.2,0-0.4,0-0.6,0.1c-0.3,0.1-0.5,0.1-0.9,0.2c-1.2,0.3-2.4,1-3.3,2c-0.9,1-1.5,2.2-1.7,3.5c0,0.3-0.1,0.7-0.1,1v0.2l0,0
				c0-0.1,0,0,0,0v0.1v0.2c0,0.2,0,0.4,0,0.6c0,0.7,0.2,1.4,0.4,2.1c0.4,1.4,1.1,2.6,2,3.5c0.2,0.2,0.5,0.4,0.7,0.6
				c0.1,0.1,0.3,0.2,0.5,0.3l0.5,0.3c0.7,0.4,1.3,0.7,1.9,0.9c1.3,0.5,2.9,0.7,4.4,0.8c1.6,0,3.3,0.1,4.8,0.1
				c3.2,0.1,6.3,0.2,9.2,0.3c2.9,0.1,5.7,0.2,8.3,0.3c5.1,0.2,9.4,0.5,12.4,0.7s4.7,0.4,4.7,0.4s-1.7,0.1-4.7,0.4
				c-3,0.2-7.3,0.5-12.4,0.7c-2.6,0.1-5.3,0.2-8.3,0.3c-2.9,0.1-6,0.2-9.2,0.3c-1.6,0-3.3,0.1-4.9,0.1c-1.8,0-3.6-0.2-5.5-0.8
				c-0.9-0.3-1.9-0.7-2.7-1.2l-0.6-0.4c-0.2-0.1-0.3-0.2-0.6-0.4c-0.4-0.3-0.9-0.6-1.2-1c-1.5-1.4-2.6-3.3-3.1-5.2
				c-0.3-1-0.5-1.9-0.5-3c-0.1-0.9,0-2,0.2-3c0.4-2,1.4-4,2.8-5.4c2.8-3,7.3-4.2,11.1-2.7c1.9,0.8,3.4,2.2,4.3,3.8
				c0.5,0.8,0.8,1.7,0.9,2.7l0.1,0.7v0.6c0,0.5,0,1-0.1,1.5c-0.3,1.9-1.4,3.5-2.8,4.4c-1.3,1-3,1.6-4.6,1.4c-1.6-0.1-3-1-3.9-2.1
				c-0.9-1.1-1.2-2.5-1.1-3.7c0.1-1.3,0.9-2.3,1.7-2.9c0.8-0.6,1.7-1,2.6-0.9c0.9,0,1.6,0.4,2,0.8c0.5,0.4,0.7,0.9,0.9,1.3
				C2341.2,38.1,2341.1,38.5,2341.1,38.5z"/>
		</g>
		<g id="XMLID_114_">
			<path id="XMLID_154_" class="st8" d="M2380.4,68.3c0,0,2.7-0.3,6.8-0.6c2.1-0.1,4.4-0.2,7-0.3c1.3,0,2.6-0.1,4-0.1
				c1.3,0,2.7,0,4.1,0s2.7,0,4.1,0c1.3,0,2.7,0.1,4,0.1c2.6,0.1,5,0.2,7,0.3c4.1,0.2,6.8,0.6,6.8,0.6s-2.7,0.3-6.8,0.6
				c-2.1,0.1-4.4,0.2-7,0.3c-1.3,0-2.6,0.1-4,0.1c-1.3,0-2.7,0-4.1,0s-2.7,0-4.1,0c-1.3,0-2.7-0.1-4-0.1c-2.6-0.1-5-0.2-7-0.3
				C2383.1,68.6,2380.4,68.3,2380.4,68.3z"/>
		</g>
		<g id="XMLID_113_">
			<path id="XMLID_149_" class="st8" d="M2415.7,60.3c0,0,1.9-0.3,4.8-0.6c1.4-0.1,3.1-0.2,4.9-0.3c0.9,0,1.8-0.1,2.8-0.1
				c0.9,0,1.9,0,2.9,0s1.9,0,2.9,0c0.9,0,1.9,0.1,2.8,0.1c1.8,0.1,3.5,0.2,4.9,0.3c2.9,0.2,4.8,0.6,4.8,0.6s-1.9,0.3-4.8,0.6
				c-1.4,0.1-3.1,0.2-4.9,0.3c-0.9,0-1.8,0.1-2.8,0.1c-0.9,0-1.9,0-2.9,0s-1.9,0-2.9,0c-0.9,0-1.9-0.1-2.8-0.1
				c-1.8-0.1-3.5-0.2-4.9-0.3C2417.6,60.6,2415.7,60.3,2415.7,60.3z"/>
		</g>
		<g id="XMLID_112_">
			<path id="XMLID_140_" class="st8" d="M2401.1,46.3c0,0,4.1-0.3,10.1-0.6c3-0.1,6.6-0.2,10.4-0.3c1.9,0,3.9-0.1,5.9-0.1s4,0,6,0
				s4.1,0,6,0c2,0,4,0.1,5.9,0.1c3.8,0.1,7.3,0.2,10.4,0.3c6.1,0.2,10.1,0.6,10.1,0.6s-4.1,0.3-10.1,0.6c-3,0.1-6.6,0.2-10.4,0.3
				c-1.9,0-3.9,0.1-5.9,0.1s-4,0-6,0s-4.1,0-6,0c-2,0-4-0.1-5.9-0.1c-3.8-0.1-7.3-0.2-10.4-0.3C2405.1,46.6,2401.1,46.3,2401.1,46.3
				z"/>
		</g>
		<g id="XMLID_109_">
			<path id="XMLID_111_" class="st8" d="M2332.1-4.7c0,0,0-0.1,0-0.2c0-0.1,0-0.4-0.1-0.7c-0.1-0.6-0.4-1.4-1-2.3
				c-0.6-0.9-1.8-1.8-3.3-2.1c-1.5-0.4-3.4,0-4.9,1.2c-0.8,0.6-1.5,1.4-2.1,2.3c-0.6,0.9-0.9,2-0.8,3.1c0,0.2,0,0.6,0.1,0.9
				c0,0.3,0.1,0.6,0.2,0.9c0.2,0.6,0.4,1.1,0.6,1.7c0.6,1.1,1.4,2.1,2.4,2.9c1.1,0.8,2.3,1.3,3.7,1.4c1.4,0.2,2.8,0,4.1-0.6
				c1.3-0.5,2.6-1.4,3.8-2.5c1.1-1,2-2.4,2.5-3.8c1.1-2.9,0.4-6.5-1.4-9.4c-1.8-2.9-4.9-5.2-8.5-5.7c-3.6-0.5-7.5,0.4-10.7,2.5
				c-3.2,2.2-5.7,5.6-6.6,9.5c-0.2,1-0.4,2-0.4,3c0,0.2,0,0.5,0,0.7V-1c0,0.6,0.1,1,0.1,1.5c0.2,2.1,0.7,4.2,1.6,6.1
				c0.8,1.9,2,3.7,3.4,5.2c0.7,0.8,1.5,1.4,2.4,2c1,0.6,1.9,1.2,2.9,1.7c1.9,1,4,1.7,6.2,2.1s4.5,0.7,6.8,0.7
				c4.8,0.1,9.6,0.1,14.4,0.1c19.3,0.1,38.6,0.3,56.6,0.4c9,0.1,17.8,0.2,26.1,0.2c8.3,0.1,16.1,0.2,23.3,0.3
				c14.5,0.2,26.5,0.4,34.9,0.5s13.3,0.2,13.3,0.2s-4.8,0.1-13.3,0.2c-8.4,0.1-20.5,0.3-34.9,0.5c-7.2,0.1-15.1,0.2-23.3,0.3
				c-8.3,0.1-17,0.2-26.1,0.2c-18.1,0.1-37.3,0.3-56.6,0.4c-4.8,0-9.6,0-14.4,0.1c-2.5,0-5-0.1-7.5-0.6c-2.4-0.4-5-1.2-7.3-2.4
				c-1.1-0.6-2.2-1.2-3.2-1.9c-1.1-0.7-2.2-1.5-3.1-2.5c-1.9-1.9-3.3-4.1-4.3-6.4s-1.6-4.8-1.9-7.2c-0.1-0.6-0.1-1.3-0.1-1.9v-0.9
				c0-0.4,0-0.7,0-1c0.1-1.3,0.2-2.5,0.5-3.7c1.2-4.9,4.2-9.2,8.3-11.8c4-2.7,9-3.7,13.5-2.9c4.6,0.8,8.6,3.8,10.8,7.6
				c1.1,1.9,1.8,4,2,6.1l0.1,0.8v0.7c0,0.6,0,1.1-0.1,1.6c-0.1,1-0.4,2.1-0.8,3c-0.8,1.9-1.9,3.6-3.4,4.9c-1.4,1.2-3,2.2-4.8,2.8
				c-1.7,0.6-3.6,0.8-5.4,0.4c-1.7-0.3-3.3-1.1-4.6-2.1c-2.6-2.1-3.8-5.2-3.6-8c0.1-1.5,0.6-2.8,1.3-3.8c0.8-1,1.6-1.8,2.5-2.5
				c1.9-1.3,4.1-1.6,5.7-1c1.7,0.5,2.8,1.6,3.4,2.6s0.8,1.9,0.8,2.5c0,0.3,0,0.5,0,0.7C2332.1-4.8,2332.1-4.7,2332.1-4.7z"/>
		</g>
		<g id="XMLID_106_">
			<path id="XMLID_108_" class="st8" d="M2318.1,118.7c0,0,0,0.1,0,0.2s0,0.3,0,0.6c-0.1,0.5-0.2,1.3-0.6,2.2
				c-0.5,0.9-1.3,1.9-2.6,2.6c-1.3,0.7-3.2,1-5,0.3c-0.9-0.3-1.8-0.9-2.6-1.6s-1.6-1.5-2.1-2.6c-0.3-0.5-0.5-1.1-0.6-1.8
				c-0.1-0.6-0.2-1.4-0.1-1.9c0.1-1.3,0.4-2.7,1-3.9c1.2-2.5,3.8-4.7,6.9-5.3c1.6-0.3,3.3-0.3,4.9,0.2c1.6,0.4,3.2,1.2,4.5,2.3
				c2.8,2,5,5.4,5.2,9.3c0.2,3.8-1,7.7-3.7,10.8c-2.6,3.1-6.5,5.2-10.8,5.5c-4.2,0.3-8.5-0.8-12.1-3.3c-3.6-2.4-6.4-6.1-7.7-10.4
				c-0.7-2.1-1-4.4-0.9-6.6c0.1-2.2,0.4-4.4,1-6.5c1.2-4.3,3.7-8.4,7.6-11.1c1.8-1.3,3.7-2.4,5.8-3.3c1.1-0.4,2.1-0.8,3.2-1.1
				l0.8-0.2l0.8-0.2c0.6-0.1,1.1-0.2,1.6-0.3c2.2-0.3,4.4-0.5,6.5-0.4c2.1,0,4.2,0,6.2,0.1c4.2,0,8.3,0.1,12.4,0.1
				c8.2,0.1,16.3,0.1,24.1,0.2c7.8,0.1,15.4,0.2,22.6,0.3c7.2,0.1,13.9,0.2,20.2,0.3c12.5,0.2,22.9,0.4,30.2,0.5
				c7.3,0.2,11.5,0.3,11.5,0.3s-4.2,0.1-11.5,0.3c-7.3,0.1-17.7,0.3-30.2,0.5c-6.3,0.1-13,0.2-20.2,0.3c-7.2,0.1-14.7,0.2-22.6,0.3
				c-7.8,0.1-15.9,0.1-24.1,0.2c-4.1,0-8.2,0.1-12.4,0.1c-2.1,0-4.2,0-6.2,0.1c-2,0-4,0.2-5.9,0.5s-3.9,0.8-5.6,1.6
				c-1.7,0.8-3.4,1.8-5,2.9c-3,2.1-5,5.5-6,9.1c-0.5,1.8-0.8,3.7-0.8,5.5c-0.1,1.9,0.2,3.6,0.7,5.4c1,3.4,3.3,6.4,6.1,8.4
				c2.9,2,6.3,3,9.7,2.8c3.3-0.2,6.4-1.8,8.4-4.1c2.1-2.3,3.2-5.5,3.2-8.4c-0.1-2.9-1.6-5.6-3.8-7.3c-2.2-1.8-4.9-2.7-7.3-2.3
				c-2.5,0.4-4.6,2-5.7,3.9c-0.6,1-0.9,2.1-1,3.1c-0.1,0.6-0.1,1.1,0,1.6c0.1,0.5,0.2,1,0.4,1.4c0.4,0.9,1,1.7,1.7,2.4
				c0.7,0.7,1.4,1.2,2.2,1.5c1.6,0.7,3.2,0.6,4.4,0.1c1.2-0.5,2.1-1.4,2.6-2.2c0.5-0.8,0.7-1.5,0.8-2c0-0.2,0.1-0.4,0.1-0.6
				C2318.1,118.8,2318.1,118.7,2318.1,118.7z"/>
		</g>
	</g>
	<g id="XMLID_40_">
		<g id="XMLID_103_">
			<path id="XMLID_105_" class="st8" d="M2574.3,380.7c0,0,0,0.1,0,0.3s0,0.6-0.2,1s-0.5,0.9-1.1,1.4c-0.6,0.4-1.4,0.7-2.4,0.6
				c-1-0.1-1.9-0.7-2.7-1.5c-0.4-0.4-0.7-1-0.9-1.6c-0.1-0.3-0.2-0.7-0.2-1c0-0.2,0-0.7,0.1-1c0.2-1.4,1-2.8,2.4-3.6
				c1.3-0.9,3.2-1.2,4.9-0.7c0.8,0.2,1.6,0.7,2.3,1.2c0.2,0.2,0.3,0.2,0.5,0.4s0.3,0.3,0.5,0.5c0.3,0.3,0.6,0.7,0.9,1.1
				c0.5,0.8,0.9,1.8,1,2.8c0,0.3,0,0.5,0.1,0.8v0.7c0,0.4-0.1,1.1-0.2,1.5c-0.5,2-1.7,3.8-3.4,5c-0.9,0.6-1.9,1.1-2.9,1.3
				c-0.5,0.1-1.1,0.2-1.6,0.2h-0.2h-0.1h-0.1h-0.1h-0.3c-0.2,0-0.4,0-0.7,0c-4.5-0.4-8.4-3.8-9.4-8.3c-0.1-0.6-0.2-1.1-0.3-1.7
				c0-0.3,0-0.5,0-0.9c0-0.2,0-0.4,0-0.7c0.1-1.2,0.3-2.2,0.6-3.3c0.6-2.1,1.9-4.1,3.7-5.6c0.2-0.2,0.5-0.3,0.7-0.5l0.6-0.4
				c0.4-0.3,0.9-0.5,1.4-0.8c1-0.5,2.1-0.8,3.1-1s2.1-0.3,3.1-0.4c0.5,0,1,0,1.5,0h1.4c3.7,0,7.4,0.2,10.9,0.2
				c3.5,0.1,7,0.2,10.2,0.3c3.3,0.1,6.3,0.2,9.2,0.3c5.7,0.2,10.4,0.4,13.7,0.6c3.3,0.2,5.2,0.3,5.2,0.3s-1.9,0.1-5.2,0.3
				s-8,0.4-13.7,0.6c-2.8,0.1-5.9,0.2-9.2,0.3s-6.7,0.2-10.2,0.3s-7.2,0.2-10.9,0.2h-1.4c-0.4,0-0.9,0-1.3,0.1
				c-0.8,0.1-1.7,0.2-2.5,0.4s-1.5,0.5-2.2,0.8c-0.4,0.2-0.7,0.4-1.1,0.6l-0.5,0.4c-0.1,0.1-0.3,0.2-0.4,0.3
				c-1.1,0.9-1.9,2.3-2.4,3.8c-0.2,0.7-0.4,1.6-0.4,2.3c0,0.2,0,0.4,0,0.7c0,0.1,0,0.3,0,0.5c0,0.4,0.1,0.7,0.1,1.1
				c0.3,1.4,1.1,2.7,2.1,3.7c0.5,0.5,1.1,0.9,1.8,1.2c0.6,0.3,1.4,0.5,1.9,0.6c0.1,0,0.4,0,0.6,0.1h0.3c0.1,0-0.1,0-0.1,0l0,0h0.1
				h0.1c0.3,0,0.6,0,1-0.1c0.6-0.1,1.2-0.4,1.8-0.7c1.1-0.7,1.9-1.8,2.3-3c0.1-0.3,0.1-0.5,0.2-0.9l0.1-0.5c0-0.1,0-0.3,0-0.4
				c0-0.6-0.2-1.1-0.4-1.6c-0.1-0.3-0.3-0.5-0.5-0.7c-0.1-0.1-0.2-0.2-0.3-0.3c0-0.1-0.3-0.3-0.3-0.3c-0.5-0.4-0.9-0.7-1.4-0.9
				c-1-0.4-2.1-0.4-3,0.1s-1.5,1.3-1.8,2.2c-0.1,0.3-0.1,0.4-0.1,0.7c0,0.2,0,0.4,0,0.6c0.1,0.4,0.2,0.8,0.5,1.1
				c0.5,0.7,1.2,1.3,1.8,1.4c0.7,0.2,1.4,0.1,1.9-0.2s0.9-0.7,1.1-1c0.2-0.4,0.3-0.7,0.4-0.9
				C2574.3,380.9,2574.3,380.7,2574.3,380.7z"/>
		</g>
		<g id="XMLID_100_">
			<path id="XMLID_102_" class="st8" d="M2599.7,344.3c0,0,0-0.1-0.1-0.4c-0.1-0.3-0.2-0.7-0.5-1.1c-0.3-0.4-0.7-0.9-1.4-1.3
				c-0.7-0.3-1.5-0.5-2.4-0.2c-0.9,0.3-1.7,1-2.3,1.9c-0.3,0.4-0.5,0.9-0.5,1.5c0,0.3,0,0.5,0,0.9c0,0.3,0.1,0.6,0.2,0.8
				c0.4,1.1,1.3,2.1,2.5,2.6c1.2,0.5,2.6,0.5,3.9-0.2c0.6-0.3,1.3-0.8,1.8-1.3s0.9-1.2,1.2-1.8c0.3-0.7,0.4-1.5,0.3-2.1l-0.1-0.7
				l-0.1-0.5c-0.1-0.4-0.2-0.8-0.4-1.1c-0.7-1.5-1.8-2.8-3.4-3.5c-0.8-0.4-1.6-0.6-2.4-0.6h-0.6l-0.8,0.1c-0.3,0-0.4,0.1-0.6,0.1
				c-0.2,0-0.4,0.1-0.6,0.1c-1.7,0.4-3.4,1.5-4.6,2.9c-1.2,1.4-1.9,3.2-2,5.1c0,0.2,0,0.5,0,0.7c0,0.3,0,0.6,0,0.8
				c0,0.4,0.1,1,0.2,1.5c0.2,1,0.5,2,0.9,2.8c0.4,0.9,0.9,1.7,1.6,2.4c0.6,0.7,1.4,1.2,2.3,1.8c0.9,0.6,1.8,1,2.7,1.3
				c1,0.3,2,0.5,3.1,0.7c1.1,0.1,2.1,0.2,3.3,0.2c1.2,0,2.3,0,3.5,0.1c4.6,0.1,9.2,0.2,13.5,0.2c4.4,0.1,8.6,0.2,12.7,0.3
				c4,0.1,7.8,0.2,11.4,0.3c7,0.2,12.9,0.4,17,0.6c4.1,0.2,6.4,0.3,6.4,0.3s-2.3,0.1-6.4,0.3c-4.1,0.2-10,0.4-17,0.6
				c-3.5,0.1-7.3,0.2-11.4,0.3c-4,0.1-8.3,0.2-12.7,0.3s-8.9,0.2-13.5,0.2c-1.2,0-2.3,0-3.5,0.1c-1.1,0-2.5,0-3.7-0.1
				c-1.3-0.1-2.5-0.3-3.8-0.7s-2.5-1-3.6-1.6c-1-0.6-2.3-1.4-3.2-2.5c-0.9-1-1.7-2.2-2.3-3.4c-0.6-1.2-1-2.5-1.2-3.8
				c-0.1-0.7-0.2-1.3-0.3-2c0-0.4,0-0.6,0-0.9c0-0.4,0-0.7,0-1.1c0.2-2.7,1.3-5.3,3-7.4c1.7-2,4.1-3.5,6.6-4.1
				c0.6-0.2,1.4-0.2,2-0.3h0.8h0.2h0.1h0.2h0.5c1.3,0.1,2.6,0.5,3.7,1.1c2.3,1.2,4,3.2,4.9,5.4c0.2,0.6,0.4,1.1,0.5,1.7
				c0,0.3,0.1,0.6,0.1,0.9v0.7c0,1.3-0.2,2.4-0.7,3.5s-1.2,2-2,2.7c-0.8,0.7-1.7,1.3-2.6,1.7c-1.9,0.8-4.2,0.7-5.9-0.2
				c-1.7-0.9-2.8-2.5-3.2-4.1c-0.1-0.4-0.2-0.8-0.2-1.2c0-0.3,0-0.8,0.1-1.2c0.2-0.8,0.5-1.5,1-2c0.9-1,2-1.8,3.1-2
				c1.1-0.2,2.2,0.1,2.9,0.6c0.7,0.5,1.1,1.1,1.3,1.6C2599.8,343.7,2599.6,344.3,2599.7,344.3z"/>
		</g>
		<g id="XMLID_99_">
			<path id="XMLID_168_" class="st8" d="M2629.4,378.3c0,0,2.7-0.3,6.8-0.6c2.1-0.1,4.4-0.2,7-0.3c1.3,0,2.6-0.1,4-0.1
				c1.3,0,2.7,0,4.1,0s2.7,0,4.1,0c1.3,0,2.7,0.1,4,0.1c2.6,0.1,5,0.2,7,0.3c4.1,0.2,6.8,0.6,6.8,0.6s-2.7,0.3-6.8,0.6
				c-2.1,0.1-4.4,0.2-7,0.3c-1.3,0-2.6,0.1-4,0.1c-1.3,0-2.7,0-4.1,0s-2.7,0-4.1,0c-1.3,0-2.7-0.1-4-0.1c-2.6-0.1-5-0.2-7-0.3
				C2632.1,378.6,2629.4,378.3,2629.4,378.3z"/>
		</g>
		<g id="XMLID_98_">
			<path id="XMLID_170_" class="st8" d="M2668.7,368.3c0,0,1.9-0.3,4.8-0.6c1.4-0.1,3.1-0.2,4.9-0.3c0.9,0,1.8-0.1,2.8-0.1
				c0.9,0,1.9,0,2.9,0s1.9,0,2.9,0c0.9,0,1.9,0.1,2.8,0.1c1.8,0.1,3.5,0.2,4.9,0.3c2.9,0.2,4.8,0.6,4.8,0.6s-1.9,0.3-4.8,0.6
				c-1.4,0.1-3.1,0.2-4.9,0.3c-0.9,0-1.8,0.1-2.8,0.1c-0.9,0-1.9,0-2.9,0s-1.9,0-2.9,0c-0.9,0-1.9-0.1-2.8-0.1
				c-1.8-0.1-3.5-0.2-4.9-0.3C2670.6,368.6,2668.7,368.3,2668.7,368.3z"/>
		</g>
		<g id="XMLID_97_">
			<path id="XMLID_172_" class="st8" d="M2641.1,340.3c0,0,4.1-0.3,10.1-0.6c3-0.1,6.6-0.2,10.4-0.3c1.9,0,3.9-0.1,5.9-0.1s4,0,6,0
				s4.1,0,6,0c2,0,4,0.1,5.9,0.1c3.8,0.1,7.3,0.2,10.4,0.3c6.1,0.2,10.1,0.6,10.1,0.6s-4.1,0.3-10.1,0.6c-3,0.1-6.6,0.2-10.4,0.3
				c-1.9,0-3.9,0.1-5.9,0.1s-4,0-6,0s-4.1,0-6,0c-2,0-4-0.1-5.9-0.1c-3.8-0.1-7.3-0.2-10.4-0.3
				C2645.1,340.6,2641.1,340.3,2641.1,340.3z"/>
		</g>
		<g id="XMLID_79_">
			<path id="XMLID_96_" class="st8" d="M2569.2,308.4c0,0,0.1-0.9-0.8-2.1c-0.4-0.6-1.2-1.2-2.2-1.4s-2.2,0.1-3.2,0.9
				c-0.5,0.4-1,1-1.3,1.5c-0.3,0.6-0.5,1.3-0.5,2c0.1,1.5,0.9,3,2.2,4c1.3,1,3.2,1.2,4.9,0.5c0.9-0.4,1.7-0.9,2.4-1.6
				c0.7-0.7,1.2-1.5,1.5-2.4c0.2-0.5,0.3-0.9,0.3-1.4V308v-0.2v-0.1l0,0c0,0.1,0,0,0,0l-0.1-0.9l-0.2-0.7c-0.1-0.3-0.2-0.5-0.2-0.8
				c-0.2-0.5-0.4-1-0.7-1.4c-1.1-1.8-3.1-3.3-5.4-3.6s-4.8,0.3-6.8,1.7s-3.6,3.6-4.2,6.1c-0.1,0.6-0.2,1.3-0.2,1.9v0.4v0.6
				c0,0.4,0,0.7,0.1,1c0.1,1.4,0.5,2.7,1,4s1.3,2.4,2.2,3.3c0.5,0.5,1,0.9,1.5,1.3c0.6,0.4,1.3,0.8,1.9,1.2c2.4,1.3,5.5,1.8,8.5,1.9
				c3.3,0.1,6.5,0.1,9.8,0.1c13.1,0.1,26.1,0.3,38.4,0.4c12.3,0.2,23.7,0.3,33.5,0.5c19.6,0.4,32.7,0.7,32.7,0.7s-13.1,0.4-32.7,0.7
				c-9.8,0.2-21.2,0.4-33.5,0.5s-25.3,0.3-38.4,0.4c-3.3,0-6.5,0-9.8,0.1c-1.7,0-3.5-0.1-5.2-0.4c-1.7-0.3-3.5-0.8-5.1-1.6
				c-0.8-0.4-1.5-0.9-2.2-1.3c-0.7-0.5-1.5-1.1-2.2-1.8c-1.3-1.3-2.3-2.9-3-4.5s-1.1-3.4-1.4-5.1c0-0.4-0.1-0.9-0.1-1.3v-0.6
				c0-0.3,0-0.5,0-0.7c0-0.9,0.2-1.8,0.4-2.7c0.8-3.5,3-6.5,5.9-8.4c2.8-1.9,6.4-2.7,9.6-2.1c3.3,0.6,6.1,2.8,7.7,5.4
				c0.4,0.7,0.7,1.4,0.9,2.1c0.1,0.4,0.2,0.7,0.3,1.1c0.1,0.4,0.1,0.8,0.2,1.2l0.1,1v0.1v0.1v0.1v0.3l-0.1,0.6
				c-0.1,0.8-0.3,1.5-0.6,2.2c-0.6,1.4-1.4,2.5-2.5,3.5c-1,0.9-2.2,1.6-3.4,2s-2.6,0.5-3.8,0.3c-1.2-0.2-2.4-0.8-3.3-1.5
				c-1.8-1.5-2.6-3.7-2.5-5.7c0-1,0.4-2,1-2.7c0.5-0.7,1.1-1.3,1.8-1.7c1.3-0.9,2.9-1,4-0.6c1.2,0.4,1.9,1.2,2.3,1.9
				C2569.5,307.6,2569.2,308.5,2569.2,308.4z"/>
		</g>
		<g id="XMLID_58_">
			<path id="XMLID_62_" class="st8" d="M2617.3,420.6c0,0,0,0.1,0,0.2c0,0.1,0,0.3,0,0.6c-0.1,0.5-0.2,1.3-0.6,2.2
				c-0.5,0.9-1.3,1.9-2.6,2.6c-1.3,0.7-3.2,1-5,0.3c-0.9-0.3-1.8-0.9-2.6-1.6c-0.8-0.7-1.6-1.5-2.1-2.6c-0.3-0.5-0.5-1.1-0.6-1.8
				c-0.1-0.6-0.2-1.4-0.1-1.9c0.1-1.3,0.4-2.7,1-3.9c1.2-2.5,3.8-4.7,6.9-5.3c1.6-0.3,3.3-0.3,4.9,0.2c1.6,0.4,3.2,1.2,4.5,2.3
				c2.8,2,5,5.4,5.2,9.3c0.2,3.8-1,7.7-3.7,10.8c-2.6,3.1-6.5,5.2-10.8,5.5c-4.2,0.3-8.5-0.8-12.1-3.3c-3.6-2.4-6.4-6.1-7.7-10.4
				c-0.7-2.1-1-4.4-0.9-6.6c0.1-2.2,0.4-4.4,1-6.5c1.2-4.3,3.7-8.4,7.6-11.1c1.8-1.3,3.7-2.4,5.8-3.3c1.1-0.4,2.1-0.8,3.2-1.1
				l0.8-0.2l0.8-0.2c0.6-0.1,1.1-0.2,1.6-0.3c2.2-0.3,4.4-0.5,6.5-0.4c2.1,0,4.2,0,6.2,0.1c4.2,0,8.3,0.1,12.4,0.1
				c8.2,0.1,16.3,0.1,24.1,0.2c7.8,0.1,15.4,0.2,22.6,0.3c7.2,0.1,14,0.2,20.2,0.3c12.5,0.2,22.9,0.4,30.2,0.5
				c7.3,0.2,11.5,0.3,11.5,0.3s-4.2,0.1-11.5,0.3c-7.3,0.1-17.7,0.3-30.2,0.5c-6.3,0.1-13,0.2-20.2,0.3s-14.7,0.2-22.6,0.3
				c-7.8,0.1-15.9,0.1-24.1,0.2c-4.1,0-8.2,0.1-12.4,0.1c-2.1,0-4.2,0-6.2,0.1c-2,0-4,0.2-5.9,0.5s-3.9,0.8-5.6,1.6
				c-1.7,0.8-3.4,1.8-5,2.9c-3,2.1-5,5.5-6,9.1c-0.5,1.8-0.8,3.7-0.8,5.5c-0.1,1.9,0.2,3.6,0.7,5.4c1,3.4,3.3,6.4,6.1,8.4
				c2.9,2,6.3,3,9.7,2.8c3.3-0.2,6.4-1.8,8.4-4.1c2.1-2.3,3.2-5.5,3.2-8.4c-0.1-2.9-1.6-5.6-3.8-7.3c-2.2-1.8-4.9-2.7-7.3-2.3
				c-2.5,0.4-4.6,2-5.7,3.9c-0.6,1-0.9,2.1-1,3.1c-0.1,0.6-0.1,1.1,0,1.6c0.1,0.5,0.2,1,0.4,1.4c0.4,0.9,1,1.7,1.7,2.4
				s1.4,1.2,2.2,1.5c1.6,0.7,3.2,0.6,4.4,0.1c1.2-0.5,2.1-1.4,2.6-2.2s0.7-1.5,0.8-2c0-0.2,0.1-0.4,0.1-0.6
				C2617.3,420.7,2617.3,420.6,2617.3,420.6z"/>
		</g>
	</g>
	<g id="XMLID_41_">
		<g id="XMLID_51_">
			<path id="XMLID_53_" class="st8" d="M1343.7-80.7c0,0,0.1,0.3-0.1,1c-0.1,0.3-0.4,0.7-0.8,1c-0.4,0.3-1,0.5-1.7,0.4
				c-0.7-0.1-1.4-0.5-1.9-1.1c-0.3-0.3-0.5-0.7-0.7-1.2c-0.1-0.2-0.1-0.5-0.1-0.8c0-0.2,0-0.4,0-0.7c0.2-1,0.7-2,1.7-2.7
				s2.3-0.9,3.6-0.5c1.2,0.4,2.3,1.1,3.1,2.3c0.4,0.6,0.6,1.3,0.7,2c0,0.2,0,0.4,0,0.6v0.5c0,0.3-0.1,0.8-0.2,1.1
				c-0.3,1.4-1.2,2.8-2.5,3.6c-0.6,0.4-1.4,0.8-2.1,1c-0.4,0.1-0.8,0.2-1.2,0.2h-0.2h-0.1l0,0h-0.1h-0.2c-0.2,0-0.3,0-0.5,0
				c-3.3-0.3-6.1-2.8-6.9-6.1c-0.1-0.4-0.2-0.8-0.2-1.2c0-0.2,0-0.4,0-0.6c0-0.2,0-0.3,0-0.5c0.1-0.8,0.2-1.6,0.4-2.4
				c0.5-1.5,1.4-3,2.7-4.1c0.2-0.1,0.3-0.3,0.5-0.4l0.5-0.3c0.3-0.2,0.7-0.4,1-0.6c0.7-0.4,1.5-0.6,2.3-0.8c0.7-0.2,1.5-0.2,2.2-0.3
				c0.4,0,0.7,0,1.1,0h1c2.7,0.1,5.4,0.1,7.9,0.2c2.6,0.1,5.1,0.1,7.4,0.2c2.4,0.1,4.6,0.2,6.6,0.2c4.1,0.2,7.5,0.3,9.9,0.5
				c2.4,0.1,3.8,0.2,3.8,0.2s-1.4,0.1-3.8,0.2c-2.4,0.1-5.8,0.3-9.9,0.5c-2.1,0.1-4.3,0.1-6.6,0.2c-2.4,0.1-4.8,0.1-7.4,0.2
				c-2.6,0.1-5.2,0.1-7.9,0.2h-1c-0.3,0-0.6,0-0.9,0.1c-0.6,0.1-1.2,0.2-1.8,0.3c-0.6,0.1-1.1,0.3-1.6,0.6c-0.3,0.1-0.5,0.3-0.8,0.5
				l-0.4,0.3c-0.1,0.1-0.2,0.1-0.3,0.2c-1.6,1.3-2.3,3.9-1.9,6c0.2,1,0.8,2,1.5,2.6c0.4,0.3,0.8,0.6,1.3,0.8c0.4,0.2,1,0.4,1.4,0.4
				c0.1,0,0.3,0,0.4,0h0.2c0,0,0.1,0,0,0l0,0l0,0h0.1c0.2,0,0.5,0,0.7-0.1c0.5-0.1,0.9-0.3,1.3-0.5c0.8-0.5,1.3-1.3,1.6-2.1
				c0.1-0.2,0.1-0.3,0.2-0.6v-0.4c0-0.1,0-0.2,0-0.3c0-0.4-0.1-0.8-0.3-1.2c-0.4-0.7-1.1-1.3-1.8-1.6s-1.5-0.3-2.1,0.1
				c-0.6,0.3-1.1,0.9-1.3,1.5c-0.1,0.1-0.1,0.3-0.1,0.5c0,0.1,0,0.3,0,0.4c0,0.3,0.2,0.6,0.3,0.8c0.4,0.5,0.8,0.9,1.3,1
				c1,0.3,1.9-0.3,2.2-0.8C1343.7-80.3,1343.7-80.7,1343.7-80.7z"/>
		</g>
		<g id="XMLID_48_">
			<path id="XMLID_122_" class="st8" d="M1329.7-115.7c0,0,0-0.1,0-0.4c0-0.2-0.1-0.6-0.4-0.9c-0.2-0.4-0.6-0.8-1.2-1.1
				c-0.5-0.3-1.3-0.4-2-0.1c-0.7,0.2-1.4,0.8-1.9,1.6c-0.2,0.4-0.4,0.8-0.4,1.2c0,0.2,0,0.4,0,0.7c0,0.2,0.1,0.5,0.2,0.7
				c0.3,0.9,1.1,1.8,2.1,2.2s2.2,0.4,3.3-0.2c0.5-0.3,1.1-0.7,1.5-1.1c0.4-0.4,0.8-1,1-1.6s0.3-1.3,0.3-1.8l-0.1-0.6l-0.1-0.5
				c-0.1-0.3-0.2-0.6-0.3-1c-0.5-1.3-1.6-2.3-2.8-2.9c-0.6-0.3-1.3-0.5-2.1-0.5h-0.5h-0.7c-0.4,0.1-0.7,0.1-1.1,0.2
				c-1.5,0.4-2.8,1.2-3.8,2.4s-1.6,2.7-1.7,4.3c0,0.2,0,0.4,0,0.6c0,0.2,0,0.5,0,0.7c0,0.4,0.1,0.8,0.1,1.2c0.1,0.8,0.4,1.6,0.7,2.4
				c0.3,0.8,0.8,1.4,1.3,2s1.2,1,2,1.5s1.5,0.8,2.3,1.1c0.8,0.3,1.7,0.5,2.6,0.6c0.9,0.1,1.8,0.2,2.7,0.2c1,0,1.9,0,2.9,0
				c3.8,0.1,7.6,0.1,11.2,0.2c3.6,0.1,7.1,0.1,10.5,0.2c3.3,0.1,6.5,0.2,9.4,0.2c5.8,0.2,10.7,0.3,14.1,0.4c3.4,0.1,5.3,0.2,5.3,0.2
				s-1.9,0.1-5.3,0.2c-3.4,0.1-8.2,0.3-14.1,0.4c-2.9,0.1-6.1,0.1-9.4,0.2c-3.3,0.1-6.8,0.1-10.5,0.2c-3.6,0.1-7.4,0.1-11.2,0.2
				c-1,0-1.9,0-2.9,0c-0.9,0-2,0-3-0.1s-2.1-0.3-3.1-0.6c-1.1-0.3-2.1-0.8-3-1.3c-0.8-0.5-1.9-1.2-2.6-2c-0.8-0.8-1.4-1.8-1.9-2.8
				s-0.8-2-1-3.1c-0.1-0.5-0.2-1.1-0.2-1.6c0-0.3,0-0.5,0-0.7c0-0.3,0-0.6,0-0.9c0.1-2.2,1.1-4.4,2.5-6c1.4-1.6,3.3-2.8,5.4-3.3
				c0.5-0.1,1.1-0.2,1.6-0.2h0.7c0.4,0,0.6,0,0.9,0c1.1,0.1,2.1,0.4,3,0.9c1.9,1,3.3,2.6,4,4.4c0.2,0.5,0.3,0.9,0.4,1.4l0.1,0.8v0.6
				c0,1.1-0.2,2-0.6,2.9s-0.9,1.6-1.6,2.2c-0.6,0.6-1.4,1-2.2,1.4c-1.6,0.7-3.4,0.6-4.8-0.2c-1.4-0.7-2.3-2-2.6-3.4
				c-0.1-0.3-0.1-0.6-0.1-1c0-0.3,0-0.6,0.1-1c0.1-0.7,0.4-1.2,0.8-1.7c0.7-0.9,1.6-1.5,2.6-1.6c0.9-0.2,1.8,0.1,2.4,0.5
				c0.6,0.4,0.9,0.9,1.1,1.3c0.2,0.4,0.2,0.8,0.2,1C1329.7-115.8,1329.7-115.7,1329.7-115.7z"/>
		</g>
		<g id="XMLID_47_">
			<path id="XMLID_134_" class="st8" d="M1437.4-107.7c0,0,1.8-0.3,4.6-0.6c1.4-0.1,3-0.2,4.7-0.3c0.9,0,1.7-0.1,2.6-0.1
				c0.9,0,1.8,0,2.7,0s1.8,0,2.7,0c0.9,0,1.8,0.1,2.6,0.1c1.7,0.1,3.3,0.2,4.7,0.3c2.8,0.2,4.6,0.6,4.6,0.6s-1.8,0.3-4.6,0.6
				c-1.4,0.1-3,0.2-4.7,0.3c-0.9,0-1.7,0.1-2.6,0.1c-0.9,0-1.8,0-2.7,0s-1.8,0-2.7,0c-0.9,0-1.8-0.1-2.6-0.1
				c-1.7-0.1-3.3-0.2-4.7-0.3C1439.2-107.4,1437.4-107.7,1437.4-107.7z"/>
		</g>
		<g id="XMLID_46_">
			<path id="XMLID_136_" class="st8" d="M1369.7-118.7c0,0,2.9-0.3,7.3-0.6c2.2-0.1,4.7-0.2,7.5-0.3c1.4,0,2.8-0.1,4.2-0.1
				c1.4,0,2.9,0,4.4,0s2.9,0,4.4,0c1.4,0,2.9,0.1,4.2,0.1c2.7,0.1,5.3,0.2,7.5,0.3c4.4,0.2,7.3,0.6,7.3,0.6s-2.9,0.3-7.3,0.6
				c-2.2,0.1-4.7,0.2-7.5,0.3c-1.4,0-2.8,0.1-4.2,0.1c-1.4,0-2.9,0-4.4,0s-2.9,0-4.4,0c-1.4,0-2.9-0.1-4.2-0.1
				c-2.7-0.1-5.3-0.2-7.5-0.3C1372.6-118.4,1369.7-118.7,1369.7-118.7z"/>
		</g>
		<g id="XMLID_45_">
			<path id="XMLID_138_" class="st8" d="M1393.1-82.7c0,0,4.1-0.3,10.1-0.6c3-0.1,6.6-0.2,10.4-0.3c1.9,0,3.9-0.1,5.9-0.1s4,0,6,0
				s4.1,0,6,0c2,0,4,0.1,5.9,0.1c3.8,0.1,7.3,0.2,10.4,0.3c6.1,0.2,10.1,0.6,10.1,0.6s-4.1,0.3-10.1,0.6c-3,0.1-6.6,0.2-10.4,0.3
				c-1.9,0-3.9,0.1-5.9,0.1s-4,0-6,0s-4.1,0-6,0c-2,0-4-0.1-5.9-0.1c-3.8-0.1-7.3-0.2-10.4-0.3C1397.1-82.4,1393.1-82.7,1393.1-82.7
				z"/>
		</g>
		<g id="XMLID_42_">
			<path id="XMLID_124_" class="st8" d="M1322-148.1c0,0,0.1-0.9-0.8-2.1c-0.4-0.6-1.2-1.2-2.2-1.4s-2.2,0.1-3.2,0.9
				c-0.5,0.4-1,1-1.3,1.5c-0.3,0.6-0.5,1.3-0.5,2c0.1,1.5,0.9,3,2.2,4c1.3,1,3.2,1.2,4.9,0.5c0.9-0.4,1.7-0.9,2.4-1.6
				c0.7-0.7,1.2-1.5,1.5-2.4c0.2-0.5,0.3-0.9,0.3-1.4v-0.4v-0.2v-0.1l0,0c0,0.1,0,0,0,0l-0.1-0.9l-0.2-0.7c-0.1-0.3-0.2-0.5-0.2-0.8
				c-0.2-0.5-0.4-1-0.7-1.4c-1.1-1.8-3.1-3.3-5.4-3.6c-2.3-0.3-4.8,0.3-6.8,1.7c-2,1.4-3.6,3.6-4.2,6.1c-0.1,0.6-0.2,1.3-0.2,1.9
				v0.4v0.6c0,0.4,0,0.7,0.1,1c0.1,1.4,0.5,2.7,1,4c0.5,1.3,1.3,2.4,2.2,3.3c0.5,0.5,1,0.9,1.5,1.3c0.6,0.4,1.3,0.8,1.9,1.2
				c2.4,1.3,5.5,1.8,8.5,1.9c3.3,0.1,6.5,0.1,9.8,0.1c13.1,0.1,26.1,0.3,38.4,0.4c12.3,0.2,23.7,0.3,33.5,0.5
				c19.6,0.4,32.7,0.7,32.7,0.7s-13.1,0.4-32.7,0.7c-9.8,0.2-21.2,0.4-33.5,0.5s-25.3,0.3-38.4,0.4c-3.3,0-6.5,0-9.8,0.1
				c-1.7,0-3.5-0.1-5.2-0.4c-1.7-0.3-3.5-0.8-5.1-1.6c-0.8-0.4-1.5-0.9-2.2-1.3c-0.7-0.5-1.5-1.1-2.2-1.8c-1.3-1.3-2.3-2.9-3-4.5
				s-1.1-3.4-1.4-5.1c0-0.4-0.1-0.9-0.1-1.3v-0.6c0-0.3,0-0.5,0-0.7c0-0.9,0.2-1.8,0.4-2.7c0.8-3.5,3-6.5,5.9-8.4
				c2.8-1.9,6.4-2.7,9.6-2.1c3.3,0.6,6.1,2.8,7.7,5.4c0.4,0.7,0.7,1.4,0.9,2.1c0.1,0.4,0.2,0.7,0.3,1.1c0.1,0.4,0.1,0.8,0.2,1.2
				l0.1,1v0.1v0.1v0.1v0.3l-0.1,0.6c-0.1,0.8-0.3,1.5-0.6,2.2c-0.6,1.4-1.4,2.5-2.5,3.5c-1,0.9-2.1,1.6-3.4,2
				c-1.2,0.4-2.6,0.5-3.8,0.3c-1.2-0.2-2.4-0.8-3.3-1.5c-1.8-1.5-2.6-3.7-2.5-5.7c0-1,0.4-2,1-2.7c0.5-0.7,1.1-1.3,1.8-1.7
				c1.3-0.9,2.9-1,4-0.6c1.2,0.4,1.9,1.2,2.3,1.9C1322.3-148.9,1322-148,1322-148.1z"/>
		</g>
		<g id="XMLID_13_">
			<path id="XMLID_126_" class="st8" d="M1318.8-45.4c0,0,0,0.1,0,0.2c0,0.2,0,0.4,0,0.7c-0.1,0.6-0.3,1.6-1,2.6
				c-0.7,1-2,2.2-3.9,2.5c-1.9,0.4-4.2-0.3-6-1.9c-0.5-0.4-0.9-0.8-1.3-1.3s-0.8-1.1-1.1-1.8c-0.3-0.6-0.5-1.4-0.5-2.1v-0.3v-0.3
				v-0.5c0-0.4,0.1-0.8,0.1-1.1c0.4-3,2.5-6.1,5.9-7.5c1.7-0.7,3.6-1,5.5-0.7c1.9,0.2,3.7,1,5.4,2.1l0.6,0.4l0.1,0.1l0.2,0.1
				l0.3,0.2c0.4,0.3,0.8,0.7,1.1,1.1c0.7,0.7,1.3,1.6,1.9,2.5c1,1.9,1.6,4,1.6,6.3c0,2.1-0.6,4.4-1.5,6.5c-1,2.1-2.5,3.9-4.4,5.4
				s-4.1,2.6-6.5,3.1c-1.2,0.3-2.5,0.4-3.7,0.4c-0.5,0-1.3,0-1.8-0.1c-0.6-0.1-1.2-0.2-1.8-0.3c-4.9-1-9.5-4.2-12.3-8.6
				c-1.4-2.2-2.4-4.7-2.8-7.4c-0.2-1.3-0.3-2.7-0.3-4c0-0.6,0.1-1.3,0.1-2c0.1-0.7,0.2-1.3,0.3-2c0.5-2.6,1.4-5.2,2.7-7.6
				c1.4-2.4,3.2-4.6,5.5-6.2c1.1-0.8,2.2-1.5,3.4-2.1c1.2-0.7,2.5-1.2,3.8-1.7c2.6-0.9,5.3-1.3,8-1.5c1.3-0.1,2.7-0.1,4-0.1
				c1.3,0,2.6,0,3.9,0c2.6,0,5.2,0,7.8,0c5.2,0,10.5,0.1,15.7,0.1c21,0.1,41.9,0.3,61.6,0.4c19.7,0.1,38,0.3,53.7,0.5
				s28.8,0.3,38,0.5c9.2,0.1,14.4,0.2,14.4,0.2s-5.2,0.1-14.4,0.2c-9.2,0.1-22.3,0.3-38,0.5s-34.1,0.4-53.7,0.5
				c-19.7,0.1-40.6,0.3-61.6,0.4c-5.2,0-10.5,0.1-15.7,0.1c-2.6,0-5.2,0-7.8,0c-1.3,0-2.6,0-3.9,0c-1.3,0-2.5,0.1-3.7,0.2
				c-2.4,0.2-4.9,0.7-7.1,1.5c-1.1,0.4-2.1,0.9-3.2,1.5c-1,0.6-2.1,1.2-3,1.9c-3.6,2.6-5.8,6.9-6.6,11.3c-0.1,0.6-0.2,1.1-0.2,1.7
				c0,0.6-0.1,1-0.1,1.7c-0.1,1.1,0,2.2,0.2,3.3c0.3,2.1,1.1,4.1,2.2,5.9c2.2,3.6,5.9,6.1,9.8,7c2,0.4,4,0.6,5.8,0.2
				c1.9-0.4,3.6-1.2,5.1-2.3c3-2.3,4.7-5.7,4.9-9.3c0.1-1.6-0.3-3.3-1-4.8c-0.4-0.7-0.8-1.4-1.4-2c-0.3-0.3-0.5-0.6-0.8-0.9
				l-0.3-0.2l-0.1-0.1l-0.1-0.1l-0.5-0.4c-1.3-1-2.7-1.7-4.2-1.9c-1.5-0.3-2.9-0.2-4.2,0.3c-2.6,1-4.5,3.3-5.1,5.7
				c-0.1,0.3-0.1,0.6-0.2,0.9v0.5v0.2v0.2c0,0.6,0.1,1.1,0.3,1.7c0.2,0.5,0.4,1,0.7,1.5c0.3,0.5,0.7,0.9,1.1,1.3
				c1.5,1.6,3.4,2.3,5.1,2.1s2.9-1.1,3.7-2s1.1-1.8,1.2-2.4C1318.8-45,1318.8-45.2,1318.8-45.4C1318.8-45.3,1318.8-45.4,1318.8-45.4
				z"/>
		</g>
	</g>
</g>
</svg>
