<?xml version="1.0" encoding="utf-8"?>
<!-- Generator: Adobe Illustrator 21.0.2, SVG Export Plug-In . SVG Version: 6.00 Build 0)  -->
<svg version="1.1" id="Layer_1" xmlns="http://www.w3.org/2000/svg" xmlns:xlink="http://www.w3.org/1999/xlink" x="0px" y="0px"
	 viewBox="0 0 2235 400.6" style="enable-background:new 0 0 2235 400.6;" xml:space="preserve">
<style type="text/css">
	.st0{fill:none;}
	.st1{fill:#193435;}
	.st2{fill:#508287;}
	.st3{fill:#3D6A72;}
	.st4{fill:#315760;}
	.st5{fill:#27464F;}
	.st6{fill:url(#_Path_5_1_);}
	.st7{opacity:0.35;fill:#27464F;enable-background:new    ;}
	.st8{fill:none;stroke:#5D5D5D;stroke-miterlimit:10;}
	.st9{fill:#C5E6EA;}
	.st10{fill:#0A1719;}
	.st11{fill:#17292D;}
	.st12{fill:none;stroke:#5D5D5D;stroke-width:200;stroke-miterlimit:10;}
	.st13{fill:#0D0E12;}
	.st14{opacity:0.21;}
	.st15{fill:#1D3435;}
	.st16{fill:#152A2B;}
	.st17{fill:#1A3333;}
	.st18{fill:#1D3A3A;}
</style>
<title>Asset 5</title>
<g id="Layer_2">
	<g id="Layer_1-2">
		<rect y="-681.4" class="st0" width="2235" height="1082"/>
		<g id="Layer_2-2">
			<g id="_Group_">
				<g id="_Group_2">
					<path class="st1" d="M2039.8,377.5c-1.4,0.9-2.9,1.6-4.5,2c-1.6,0.5-3.2,0.8-4.8,1.1c-3.2,0.5-6.5,0.7-9.8,0.6
						c3.3-0.1,6.5-0.4,9.8-0.9c1.6-0.2,3.2-0.6,4.8-1C2036.8,379,2038.4,378.3,2039.8,377.5z"/>
				</g>
				<g id="_Group_3">
					<path class="st1" d="M2030.9,369.1c2.2,0.3,4.3,0.8,6.3,1.5c1,0.4,2,0.9,2.9,1.5c1,0.6,1.6,1.6,1.7,2.7c0-0.5-0.3-1-0.6-1.4
						c-0.3-0.4-0.7-0.8-1.2-1.1c-0.9-0.6-1.9-1.1-2.9-1.4C2035,370.1,2033,369.5,2030.9,369.1z"/>
				</g>
				<g id="_Group_4">
					<path class="st1" d="M2015.8,381.1c-3.1-0.2-6.2-0.6-9.1-1.4c-1.5-0.4-3-1-4.3-1.7c-0.7-0.4-1.3-0.8-1.9-1.4s-0.9-1.4-0.8-2.2
						c0.2-0.8,0.6-1.5,1.3-2c0.6-0.5,1.3-0.9,2-1.2c1.4-0.6,2.9-1.2,4.4-1.5c3-0.7,6.1-1.2,9.2-1.3c-3.1,0.2-6.1,0.7-9.1,1.4
						c-1.5,0.4-2.9,0.9-4.3,1.6c-0.7,0.3-1.3,0.7-1.9,1.2s-1,1.1-1.2,1.8c-0.1,0.7,0.2,1.5,0.7,2s1.1,1,1.8,1.4
						c1.4,0.7,2.8,1.3,4.3,1.7C2009.7,380.3,2012.7,380.8,2015.8,381.1z"/>
				</g>
			</g>
			<g id="_Group_5">
				<path class="st1" d="M2006.8,374.3c-0.1-0.2,0-0.4,0.1-0.6s0.3-0.3,0.5-0.3C2007.2,373.8,2006.9,373.9,2006.8,374.3z"/>
			</g>
			<g id="_Group_6">
				<path class="st1" d="M2018.7,371.1c2-0.1,4.1-0.1,6.1,0s4.1,0.4,6.1,0.8c1,0.2,2,0.5,2.9,1c0.5,0.2,0.9,0.6,1.1,1.2
					c0.1,0.6-0.4,1-0.8,1.3c-1.8,0.9-3.8,1.4-5.9,1.6c1-0.2,2-0.4,3-0.6s1.9-0.6,2.8-1.1c0.4-0.3,0.8-0.7,0.7-1.1s-0.6-0.8-1-1
					c-0.9-0.5-1.9-0.8-2.9-1C2026.8,371.3,2022.7,371,2018.7,371.1z"/>
			</g>
			<g id="_Group_7">
				<path class="st1" d="M2020.8,377.5c-0.9,0-1.9,0-2.8,0s-1.9-0.1-2.8-0.2c-1.9-0.2-3.7-0.5-5.5-1.1c0.9,0.2,1.8,0.4,2.7,0.5
					s1.8,0.3,2.8,0.3s1.9,0.2,2.8,0.2S2019.8,377.5,2020.8,377.5z"/>
			</g>
			<g id="_Group_8">
				<g id="_Group_9">
					<path class="st1" d="M1913.7,388.5c1.4,0.8,2.9,1.4,4.5,1.9c1.6,0.4,3.2,0.8,4.8,1c3.2,0.5,6.5,0.8,9.8,0.9
						c-3.3,0.1-6.6-0.1-9.8-0.6c-1.6-0.3-3.2-0.6-4.8-1.1C1916.6,390.1,1915.1,389.4,1913.7,388.5z"/>
				</g>
				<g id="_Group_10">
					<path class="st1" d="M1922.7,380.1c-2.1,0.4-4.2,1-6.2,1.8c-1,0.4-2,0.8-2.9,1.4c-0.5,0.3-0.9,0.6-1.2,1.1
						c-0.4,0.4-0.6,0.9-0.6,1.4c0.1-1.1,0.7-2.1,1.7-2.7c0.9-0.6,1.9-1.1,2.9-1.5C1918.4,380.9,1920.5,380.4,1922.7,380.1z"/>
				</g>
				<g id="_Group_11">
					<path class="st1" d="M1937.7,392.1c3.1-0.3,6.1-0.8,9.1-1.6c1.5-0.4,2.9-1,4.3-1.7c0.7-0.4,1.3-0.8,1.8-1.4
						c0.5-0.5,0.8-1.3,0.7-2c-0.2-0.7-0.6-1.4-1.2-1.8c-0.6-0.5-1.2-0.9-1.9-1.2c-1.4-0.7-2.8-1.2-4.3-1.6c-3-0.7-6.1-1.2-9.1-1.4
						c3.1,0.1,6.2,0.6,9.2,1.3c1.5,0.4,3,0.9,4.4,1.5c0.7,0.3,1.4,0.7,2,1.2s1.1,1.2,1.3,2c0.1,0.8-0.2,1.6-0.8,2.2
						c-0.5,0.6-1.2,1-1.9,1.4c-1.4,0.7-2.8,1.3-4.3,1.7C1943.9,391.5,1940.8,392,1937.7,392.1z"/>
				</g>
			</g>
			<g id="_Group_12">
				<path class="st1" d="M1946.8,385.3c-0.2-0.4-0.4-0.6-0.6-0.9c0.2,0,0.4,0.2,0.5,0.3C1946.8,384.9,1946.9,385.1,1946.8,385.3z"/>
			</g>
			<g id="_Group_13">
				<path class="st1" d="M1934.8,382.1c-4.1-0.1-8.2,0.2-12.2,1.1c-1,0.2-2,0.5-2.9,1c-0.4,0.2-0.9,0.6-1,1s0.3,0.9,0.7,1.1
					c0.9,0.5,1.8,0.9,2.8,1.1c1,0.3,2,0.5,3,0.6c-2.1-0.1-4.1-0.7-5.9-1.6c-0.4-0.3-0.9-0.7-0.8-1.3c0.2-0.5,0.6-0.9,1.1-1.2
					c0.9-0.5,1.9-0.8,2.9-1c2-0.4,4-0.7,6.1-0.8C1930.7,382.1,1932.8,382,1934.8,382.1z"/>
			</g>
			<g id="_Group_14">
				<path class="st1" d="M1932.8,388.5c0.9-0.1,1.9-0.1,2.8-0.2s1.8-0.1,2.8-0.2s1.8-0.2,2.8-0.3s1.8-0.3,2.7-0.5
					c-1.8,0.6-3.6,0.9-5.5,1.1c-0.9,0.1-1.9,0.2-2.8,0.2S1933.7,388.6,1932.8,388.5z"/>
			</g>
			<rect y="-61.4" class="st0" width="2234" height="470"/>
		</g>
		<path id="_Path_" class="st2" d="M0,139.6l64.4-19l65.4-13.3l33.3,6l140.7,0.3l312.4-30c0,0,39.4,2,61.5-5l8,5l14.8,2l26.3-4.5
			l9.5,3l19.5,3l119.4,16.2L1003,84.6l31.8-1l31.7,5l11.3-6.3l16.7,1.3l12,3l21.3-3.7l17,0.7l21.3,8.7l232.9,22.3l18.8,5l20.8,5.5
			l62.9,2.5l25.3-11l11.7-1.5l11.3,5.5l618.3,16l66.9,1v189L0,400.6V139.6z"/>
		<path id="_Path_2" class="st3" d="M0,220.6l313.1-77.9l295.8-39.1c0,0,89.9-2.1,131.9-15.1s53.6-11,53.6-11l46,4l45.8-4.1
			l49.1-12.9c0,0,36.4,18,63,22c26.6,4,81.3,5,81.3,5l32,1l204.6,17c0,0,95.1,15,114.9,12s46-6,46-6l25.9,5l29.3-1l42-11l26.6-12
			l17.5,5l35.6,3.5c0,0,62-6.5,65-6.5h38l58.4-11.4l201.5,5.2c0,0,79.2-0.1,99.8-6.1s31.4-8.7,31.4-8.7s20.3,12.7,38.4,14.7
			l48.1,5.3h0.6l-1,122L0,317.1V220.6z"/>
		<path id="_Path_3" class="st4" d="M0,125.6c0,0,39,11,116.2-7.9c77.7-19,105.3-22.5,105.3-22.5s144.2-13.5,175.5-21
			S579.7,101,579.7,101s53.8,13.2,92.9,6.3c0,0,98.4-4.5,128.8-13.5s101.6,6.7,101.6,6.7s57.6,35.8,89.9,27.3l32.4-8.5
			c0,0,108.5-25.5,127.7-36c12.1-6.7,23.7-14.2,34.7-22.5c0,0,42.6-22.5,55.6-22.5s66.7,48.8,84.1,45.4c0,0,85,49.2,101.4,45.4
			l16.5-3.8l0,0l93.1,4l134.5-20.5l93-9l227.9,9c0,0,258.4-8.1,240.2-8.1h1v150L0,283.6V125.6z"/>
		<path id="_Path_4" class="st5" d="M0,142.6l83.8,1.5c21,0.3,41.9-2.7,62-9c33.6-10.5,83.2-27.6,94.9-40.5c18-20,112-34,112-34
			s124-32,158-56s108,54,108,54s62,49.4,126,42.7s216,41.3,216,41.3s103.8,7.7,156,6c60.5-2,150-11,150-11s194-3,236,5
			s198-22,198-22l150-48c0,0,12.4-5.9,33.2-18.5c9-5.5,17.5-16.1,30.8-21.5c0,0,10.9,2.9,37.8,8c13.8,2.6,26.4,3.3,41.3,13.5
			c13.5,9.2,42.1,14,57.4,21.1c21.9,10.1,44.5,18.8,67.5,26.1l115,17.3l1.4,1v195H0V142.6z"/>
		
			<linearGradient id="_Path_5_1_" gradientUnits="userSpaceOnUse" x1="1218.77" y1="102.5867" x2="1218.77" y2="-147.0133" gradientTransform="matrix(1 0 0 1 -101.22 298)">
			<stop  offset="0" style="stop-color:#00373F"/>
			<stop  offset="0.49" style="stop-color:#5A9BA4"/>
			<stop  offset="0.84" style="stop-color:#94DBE6"/>
			<stop  offset="1" style="stop-color:#AAF4FF"/>
		</linearGradient>
		<path id="_Path_5" class="st6" d="M0,179.6c143.3-10.7,64.1-12.2,322.9-6.6h156.7l728-22l614,12h413l0.5,237.6H0V179.6L0,179.6z"
			/>
		<path id="_Path_6" class="st7" d="M2235,208.6v26l-10.6,0.6l-114.8,7.1c0,0-32.6,4.1-67.4,10.8c-15.3,2.9-43.9,4.9-57.4,8.7
			c-14.9,4.2-27.4,4.5-41.2,5.6c-26.9,2.1-37.8,3.3-37.8,3.3c-13.3-2.2-21.8-6.6-30.8-8.9c-20.9-5.2-33.2-7.6-33.2-7.6l-150-19.8
			c0,0-156-12.4-198-9.1c-34.3,2.7-170,2.4-218.6,2.2c-17.3,4.9-34.2,10-40.7,10c-13,0-55.6-9.3-55.6-9.3s-5.4-1.7-13.8-4
			c-19.7-0.6-39.8-1-57.4-1.3c-52.2-0.7-156,2.5-156,2.5s-152,19.8-216,17s-126,17.6-126,17.6s-74,32.2-108,22.3s-158-23.1-158-23.1
			s-94-5.8-112-14c-11.6-5.3-61.3-12.4-94.9-16.7c-20.6-2.6-41.3-3.8-62-3.7l-75,0.9v-89.6l2235,15.6L2235,208.6L2235,208.6z"/>
		<path id="_Path_7" class="st8" d="M-77.2,480.2"/>
		<g id="_Group_15">
			<g id="_Group_16">
				<path class="st9" d="M1589.4,220.3l-139.4,0.8l-139.4,0.6c-46.5,0.2-93,0.7-139.4,0.4s-93-0.7-139.4-1.8v-0.4
					c46.5-1.2,93-1.4,139.4-1.8s93,0.2,139.4,0.4l139.4,0.6l139.4,0.8V220.3z"/>
			</g>
			<g id="_Group_17">
				<path class="st9" d="M770.4,186.8l159.7-1.2l159.7-0.9l79.8-0.6l39.9-0.2l39.9,0.1l39.9,0.3c13.3,0.2,26.6,0.3,39.9,0.5
					s26.6,0.5,39.9,0.7s26.6,0.6,39.9,1.1v0.6c-13.3,0.5-26.6,0.7-39.9,1.1s-26.6,0.5-39.9,0.7s-26.6,0.4-39.9,0.5l-39.9,0.3
					l-39.9,0.1l-39.9-0.2l-79.8-0.6l-159.7-0.5l-159.7-1.2L770.4,186.8z"/>
			</g>
			<g id="_Group_18">
				<path class="st9" d="M1509.8,186.9c9.8-0.3,19.5-0.5,29.3-0.8l29.3-0.6c9.8-0.2,19.5-0.7,29.3-0.4c4.9,0.1,9.8,0.3,14.6,0.6
					s9.8,0.6,14.6,1.2v0.4c-4.9,0.6-9.8,0.9-14.6,1.2s-9.8,0.5-14.6,0.6c-9.8,0.3-19.5-0.2-29.3-0.4l-29.3-0.6
					c-9.8-0.3-19.5-0.5-29.3-0.8V186.9z"/>
			</g>
			<g id="_Group_19">
				<path class="st9" d="M1101.8,238.2l-35.3,0.4l-35.3,0.3c-11.8,0.1-23.5,0.3-35.3,0.2s-23.5-0.3-35.3-0.9V238
					c11.8-0.6,23.5-0.7,35.3-0.9s23.5,0.1,35.3,0.2l35.3,0.3l35.3,0.4V238.2z"/>
			</g>
			<g id="_Group_20">
				<path class="st9" d="M1267.8,255.2l-14,0.4l-14,0.3c-4.7,0.1-9.3,0.3-14,0.2s-9.3-0.3-14-0.9V255c4.7-0.5,9.3-0.8,14-0.9
					s9.3,0.1,14,0.2l14,0.3l14,0.4V255.2z"/>
			</g>
			<g id="_Group_21">
				<path class="st9" d="M1166.8,264.1l-28,0.3c-4.7,0-9.3,0.2-14,0.1s-9.3-0.2-14-0.5v-0.1c4.7-0.3,9.3-0.4,14-0.5s9.3,0,14,0.1
					l28,0.3V264.1z"/>
			</g>
			<g id="_Group_22">
				<path class="st9" d="M894.8,212l22.5-0.4l22.5-0.3c7.5-0.1,15-0.3,22.5-0.2c3.8,0.1,7.5,0.1,11.3,0.3l5.6,0.2
					c1.9,0.1,3.8,0.2,5.6,0.4v0.2c-1.9,0.2-3.8,0.2-5.6,0.4l-5.6,0.2c-3.8,0.2-7.5,0.2-11.3,0.3c-7.5,0.1-15-0.1-22.5-0.2l-22.5-0.3
					l-22.5-0.4V212z"/>
			</g>
		</g>
		<path id="_Path_8" class="st10" d="M2235,264.6c0,0-43.8,5.7-84.8,11.5c-25.2,3.5-48.2,9.4-58.8,7.8c-11.3-1.6-22.5,8-34.8,14.3
			c-10.9,5.6-23.4,8.3-28.4,14.1c-7.3,8.6-9.7,7.7-11.2,13.7c-3.4,13.5,61.4,74.1,99,74.6c55.8,0.7,119,0,119,0V264.6z"/>
		<path id="_Path_9" class="st11" d="M2235,259.6c0,0-39.6,4.4-80.6,10.2c-25.2,3.5-48.2,9.4-58.8,7.8c-11.3-1.6-22.5,8-34.8,14.3
			c-10.9,5.6-23.4,8.3-28.4,14.1c-7.3,8.6-9.7,7.7-11.2,13.7c-3.4,13.5,61.2,78.5,98.8,79.9c55,2,115,1,115,1L2235,259.6z"/>
		<path id="_Path_10" class="st10" d="M251.1,285.6c0,0,0.9,8.6,2.2,9.1s-4.5,7.1-6,10.3s-7.5,12-7.5,12s-4.8,7.3,3,17.3
			s-32-0.1-32-0.1l2.8-48.6H251.1z"/>
		<path id="_Path_11" class="st11" d="M0.1,252.1c0,0,220.6,0.5,247.2,30c0.9,1,1.9,1.8,2.9,2.6c1.5,1.1,2.7,4.3-3.9,13.2
			c-2,2.7-6.3,13.8-8.5,17.8c-4.8,8.5,9.6,10.3,22.3,12.1c28.5,4.2,71.7,1.9,71.7,1.9s366-15,423,6s77,29,153,34
			c45.2,3,86.7,14.8,118.2,31H0c1-5,16-11,0,0l0,0V256.6L0.1,252.1"/>
		<path id="_Path_12" class="st12" d="M-101.2,195.6"/>
		<path id="_Path_13" class="st13" d="M2015.1,374.6c-0.1-1.8-0.1-3.6,0.1-5.3c0.1-2.6,0.2-5.3,0.2-5.3v-0.3l2.1-1.3l2.5-1.3
			c1.5-0.7,1.5-0.2,1.5-0.2l2.6,0.7c2.3,3,0.8,4.1,0.8,4.1l0.2,0.7c0,0.2,0,0.4-0.1,0.5c-0.1,0.2-1,11.1-1,11.1
			c0.4-0.1,0.9-0.1,1.3,0c-0.8-0.9,0.8-10.6,0.8-10.6c1.4-3.3,0.3-3.8,0.3-3.8l-0.6-2.6c-0.8-0.8-0.1-1.1-0.1-1.1
			c7-1.2,6.2-1.4,6.2-1.4c0-1.9,1.1-1.5,1.1-1.5c2.8,0.8,3.8,0,3.8,0c3.8,0.4,2.9-1.5,2.9-1.5c2.9-0.6,3.3-1.3,3.3-1.3l0.2-0.4
			c0.1-0.5-0.6-1.6-0.6-1.6c-0.6-0.4-1.2-0.7-1.8-0.9c0-0.2,0.1-0.4,0.1-0.6h0.3c0.7,0,1.5-0.1,2.2-0.3c2-1.1,0.9-1.3,0.9-1.3
			l-0.5-0.1l1.5-1c0.7-0.5-0.3-0.6-0.3-0.6c0.7-0.4,0.4-0.4,0.4-0.4h-0.5c0.3-0.2,0.3-0.4,0.3-0.4c-2.3-0.9-9.2,1.2-9.2,1.2
			c-2.2-0.8-4.5-1.4-6.8-1.7c-15.2-9-25-1.6-25-1.6l-1.1,0.7c-6-2.1-8.4-1.5-8.9-1.3h-0.1c-1.3,0.8-2.3,1.9-3,3.2
			c-1.6,1.3-2.6,3.1-2.8,5.1c0.2,0.7,0.5,0.3,0.5,0.3c4.8-2.3,4.3-1.9,4.3-1.9c3.8,0.3,4.6,2.1,4.6,2.1c1.9,2,4.3,3.5,6.9,4.4
			c2.6,0.7,4.9,2,6.8,3.8c0.8,0.5,1.3,1.4,1.4,2.3l0.6,0.9c0,0,0.4,2.5,0.5,5s0,5,0.1,5.1v0.3c0.2,0,0.4,0,0.6,0L2015.1,374.6z"/>
		<path id="_Path_14" d="M1937.8,388.3c0.2,0-0.5-2.3-0.5-2.3c-0.3-0.8-0.7-1.5-1.2-2.3l-0.7-1.8c0,0-0.2-1.5-0.1-1.8
			c0-0.7,0.1-1.4,0.4-2c0.8-1,1.9-1.7,3.2-2c1.6-0.2,9.5-0.2,13-5.5c0.3-1.1,1.5-1.7,2.6-1.4c0.1,0,0.3,0.1,0.4,0.2
			c0,0,2.9,2.5,3.7,2.5c0.3-1.6-0.1-3.3-1-4.7c0,0,0.1-3.2-1.8-3.9c-2.2-0.6-4.5-0.3-6.4,0.7c-0.2-0.1-0.5-0.3-0.6-0.5
			c0,0-7.2-9.4-18.9-4.4c0,0-7.6,3-8.4,3c0,0-1.2-0.5-7-0.4c0,0-0.1,0,0.1,0.2l-0.2,0.3l1.4,0.7c0,0,0.3,0.1-0.7,0.3
			c0,0-0.3,0.1-0.2,0.6c0,0-0.1,0.2-0.3,0.2s-1.2,0.5-0.4,1.1l-0.2,0.1v0.2l0.8,0.2c0,0,0.6,0.1-0.4,0.6c0,0-0.8,0.2,3.7,1.4
			c0.3,0.1,0.5,0.2,0.7,0.3l0.2,0.2l1.8,0.2c0.7,0.3,1.4,0.6,2.1,1c0.4,0.7,0.9,1.4,1.3,2c0.2,0.2,1.2,0.3,1.4,0.8
			c0.9,1.2,1.9,2.3,3,3.2c0.3,0.2,0.3,1.4,0.3,1.4l-0.2,1.2c-0.4,1.2-1,2.3-1.6,3.3c-0.4,0.3-2.6,3.6-3,3.9c0.2,0,0.4,0,0.6,0
			s0.5,0,0.7,0s0.5,0,0.7,0c0.1-0.1-0.1-0.4-0.1-0.4l0.6-1c0,0,1-0.6,1.1-1c0.3-0.4,0.5-0.9,0.7-1.4c0-0.2,1-2.9,2.1-3.7
			c0,0,1.7,0,3.8-0.3l-0.5,2.9c-0.2,0.8,0.1,1.6,0.7,2.2c0,0,0.5,1.7,0.8,2l0.4,0.7c0,0,1,3.1,1.2,3"/>
		<g id="_Group_23" class="st14">
			<path class="st15" d="M1239.7,329.1c7.2,6.5,14.9,12.4,23,17.7c4,2.7,8.1,5.1,12.3,7.4c4.2,2.3,8.5,4.3,12.9,6s8.9,2.9,13.5,3.6
				l7.1,0.9c2.4,0.3,4.9,0.8,7.3,1.3c4.8,1,9.6,2.4,14.3,4.2c1.2,0.4,2.3,0.9,3.5,1.4s2.3,1.1,3.4,1.7c0.6,0.3,1.1,0.6,1.6,0.9
				s1.1,0.6,1.6,1c1.1,0.7,2.1,1.5,2.9,2.4l-0.4,0.4c-2.2-1-4.4-1.7-6.8-2.3c-2.3-0.6-4.7-1.1-7-1.6c-4.7-0.9-9.4-1.6-14.2-2.3
				l-7.1-1c-1.2-0.2-2.4-0.4-3.6-0.5s-2.5-0.4-3.8-0.7c-4.9-1.2-9.7-2.9-14.3-5c-9-4.1-17.4-9.3-25.2-15.4c-3.9-3-7.6-6.2-11.2-9.4
				c-3.6-3.3-7.1-6.7-10.4-10.3L1239.7,329.1z"/>
		</g>
		<path id="_Path_15" class="st16" d="M327.3,299.4c0,0-1-2.4-6-2.7s-6.4-0.3-7.8,0.4c0,0-0.2,0.1-0.1,0.5c0,0-4.2,0.8-4.9,1.3
			c0,0-1.3,0.2-1.7,0.2s-3.1-0.3-4,0.3c0,0-0.5,0.1,1.9,0.2c-0.7,0.1-1.3,0.2-1.9,0.5c-0.1,0.2,0,0,2.7-0.1c0,0-1.3,0.8-1.5,1.3
			c-0.3,0.5-0.6,1-1,1.5c-0.2,0-0.3,0-0.5,0c-0.1,0-0.6-1.4,0.8-1c0,0,0.1,0,0-0.1c-0.3-0.4-0.8-0.5-1.2-0.3c0,0-0.1,0-0.1,0.1
			c0,0-0.5,0.2-0.5,1.1c0,0-0.1,0.1-1-0.2c0,0-0.3,0-0.1,0.1c0.3,0.2,0.7,0.4,1.1,0.4c0.1,0.2,0.2,0.4,0.3,0.6c0,0,0.1,0.1,0,0.1
			s-1.3,0.5-2-1.3l0,0c0,0-0.3,0.5,0.3,1.4c-0.4,0.2-0.9,0.2-1.4,0.3c0,0-0.1,0-0.1,0.1c0.7,0.1,1.3,0.3,1.9,0.7
			c0.4,0,0.8,0.1,1.3,0c0.9,0,1.8,0.1,2.7,0.3c0.5,0.1,1,0.1,1.5,0c1.4-0.1,2.7,0,4.1,0.1c0.1,0.1,5.4,0.8,5.9,1.1
			s13.3,0.6,15.6-0.7c0,0,3.6-1.1,3.9-1.6s-1.8-3.7-2.4-3.7c0,0-0.6-0.4-0.6-0.5s0.3-0.3,0.3-0.3s0.5-0.3,0.6-0.4
			c0.4,0,0.9,0,1.3-0.1c0,0,0-0.1,0.2-0.1c0.5,0.2,1.1,0.4,1.7,0.5c0.9,0.4,2,0.7,3,0.8c0.2,0.1,0.4,0.2,0.6,0.2
			c0,0,0.7-0.2-0.4-0.9c-0.6-0.4-1.3-0.8-2-1.1c-0.8-0.5-1.4-1.2-2-1.9c-0.3-1.4-1.3-2.6-2.6-3.2c-1.1-0.5-2.4-0.6-3.5-0.1
			c-1.1,0.6-2,1.6-2.5,2.7c-0.2,0.3-0.3,0.6-0.4,0.9c-0.1,0.6-0.1,1.3,0,1.9"/>
		<path id="_Path_16" class="st17" d="M265.5,270.6c-0.6,0.4-1.3,0.7-2,0.6c0,0-0.8-0.1-1-2.5s-1.9-3.5-3.1-3.4c-0.3,0-0.7,0-1,0.2
			c-0.5,0.4-0.9,0.9-1.1,1.4s-0.2,1.1,0,1.7c0,0,0.3,0.9-1,3.2c0,0-0.1,0.4,0.1,0.6c0,0,0.1,0.2,0.3-0.3c0.2-0.2,0.4-0.5,0.7-0.7
			l1.5-1.8c0.3-0.3,0.7-0.5,1.1-0.5c0.3,0.1,0.4,0.3,0.3,0.6l0,0c-0.1,0.5-0.1,0.9-0.1,0.9s-1,1.4-0.9,2.2s1.2,1.2,1.2,1.2l1.4,0.4
			c2.6,0.4,5.2,0.5,7.8,0.5c3.2-0.2,6.4-0.8,9.4-1.9c0,0,0.5-0.3,0.2-0.3s0.2-0.3,0.2-0.3s1-0.8,2.4-2.5c0,0-0.1,0,0-0.1
			c0.3-0.2,0.7-0.4,1-0.5c0,0,0.1-0.1-0.2,0s0-0.2,0-0.2c-0.3,0.1-0.5,0.2-0.8,0.3c-0.7,0.1-1.3,0.3-2,0.5c-0.1,0.1-0.7-0.1-0.8-0.2
			c0.4-0.1,0.8-0.1,1.3-0.2c-0.5-0.3-1.1-0.4-1.7-0.3c0,0,1.5-0.2,1.7-0.1c0,0-5.9-0.7-8.3-0.1c0,0-2.4,0.3-2.8,0.4
			S266.1,269.8,265.5,270.6z"/>
		<path id="_Path_17" class="st18" d="M459.1,267.3c0,0,4.1-1,4.4-1.6c0.4-1,0.2-2.2-0.5-3c-0.7-1-1.4-2-1.9-3.1
			c0.6-1,0.4-2.4-0.5-3.2c0,0,0.1-1.6-1-1.5s-1.1,1.5-1.1,1.5c-0.8,1-0.8,2.4,0,3.4c0,0-0.7,0.3-0.7,0.6s-2.7-1.6-4.5,1.5
			c0,0-1.5,0.8-1.5,1.6c0,0-0.6,0.4-0.5,1c0,0-0.8,0.1-0.8,0.2s0.3,0.5,0.3,0.5l0.3,0.2c0.3,0.7,0.6,1.3,1.1,1.8
			c1.9,0.2,3.8,0.1,5.7-0.2l0.3,0.3C458.5,267.4,458.8,267.4,459.1,267.3z"/>
		<path id="_Path_18" class="st16" d="M443.2,292.8c0,0,3.5,3.1,2.2,5.7c0,0-12.5,2.4-18.5,1.2c-2.2-0.3-4.3-1.4-5.7-3.1h0.5
			l0.2-1.3l0.5,1.3h0.5c0,0-0.5-2.6,1.8-1.8l0.8-0.8c0,0-2.2-1.5-3-1.1c0,0,0.2-1.1,2.7-0.8c1.1,0,2.2-0.2,3.3-0.5
			c0,0,8.3-2.8,9.5-1c0,0-0.3-3.7,3.2-4c0.8,0,1.5,0.3,2,0.9c0.5,0.9,0.8,1.9,1.1,2.8c0.7,0.6,1.4,1.3,2,2.1
			c0.1,0.3-2.7-0.8-2.7-0.8s-1,0.4-1,0.6S442,292.4,443.2,292.8z"/>
		<rect y="-681.4" class="st0" width="2235" height="1078"/>
	</g>
</g>
</svg>
