<?xml version="1.0" encoding="utf-8"?>
<!-- Generator: Adobe Illustrator 19.0.0, SVG Export Plug-In . SVG Version: 6.00 Build 0)  -->
<svg version="1.1" id="Layer_1" xmlns="http://www.w3.org/2000/svg" xmlns:xlink="http://www.w3.org/1999/xlink" x="0px" y="0px"
	 viewBox="637 -10.5 2234 831.5" style="enable-background:new 637 -10.5 2234 831.5;" xml:space="preserve">
<style type="text/css">
	.st0{display:none;fill:url(#XMLID_30_);}
	.st1{display:none;fill:url(#XMLID_33_);}
	.st2{display:none;fill:#FFFFFF;enable-background:new    ;}
	.st3{font-family:'nevis-Bold';}
	.st4{font-size:88.2028px;}
	.st5{letter-spacing:16;}
	.st6{display:none;}
	.st7{display:inline;fill:#FFFFFF;}
	.st8{fill:#C7FFE2;}
	.st9{fill:#4A617C;}
	.st10{fill:#3C506D;}
	.st11{fill:#2E4260;}
	.st12{fill:#CCB9A6;}
	.st13{fill:#EAEACA;}
	.st14{fill:url(#XMLID_34_);}
	.st15{fill:#FFFFFF;}
	.st16{fill:#36353A;}
	.st17{fill:#2D2C31;}
	.st18{display:inline;fill:#666666;}
</style>
<g id="Layer_1_1_">
	
		<image style="display:none;overflow:visible;enable-background:new    ;" width="4160" height="2340" id="XMLID_1_" xlink:href="7A2B1954.jpg"  transform="matrix(-0.5721 0 0 -0.5721 3198.3459 928.7637)">
	</image>
	
		<linearGradient id="XMLID_30_" gradientUnits="userSpaceOnUse" x1="1754" y1="-261" x2="1754" y2="821" gradientTransform="matrix(1 0 0 -1 0 560)">
		<stop  offset="0" style="stop-color:#FF8F6A"/>
		<stop  offset="1" style="stop-color:#FFBE94"/>
	</linearGradient>
	<rect id="XMLID_10_" x="637" y="-261" class="st0" width="2234" height="1082"/>
	
		<linearGradient id="XMLID_33_" gradientUnits="userSpaceOnUse" x1="1754" y1="-261" x2="1754" y2="821" gradientTransform="matrix(1 0 0 -1 0 560)">
		<stop  offset="0" style="stop-color:#D4F9FF"/>
		<stop  offset="1" style="stop-color:#6AD3FF"/>
	</linearGradient>
	<rect id="XMLID_3_" x="637" y="-261" class="st1" width="2234" height="1082"/>
	<text id="XMLID_1677_" transform="matrix(1 0 0 1 1504.8401 259.3907)" class="st2 st3 st4 st5">WAITAA</text>
	<g id="XMLID_71_" class="st6">
		<circle id="XMLID_70_" class="st7" cx="1910.5" cy="34.5" r="5.5"/>
		<circle id="XMLID_25_" class="st7" cx="1593.8" cy="51.8" r="3.8"/>
		<circle id="XMLID_24_" class="st7" cx="1719" cy="35" r="4"/>
		<circle id="XMLID_23_" class="st7" cx="1887" cy="-80" r="4"/>
		<circle id="XMLID_22_" class="st7" cx="1915.9" cy="-23.1" r="2.9"/>
		<circle id="XMLID_15_" class="st7" cx="1839.7" cy="-49.3" r="3.7"/>
		<circle id="XMLID_14_" class="st7" cx="1803" cy="90" r="2"/>
	</g>
	<path id="XMLID_8_" class="st8" d="M2256,452.2"/>
</g>
<g id="Layer_2">
	<path id="XMLID_7_" class="st9" d="M2077,550.2c0,0,31-29.2,41-28.2c0,0,40-14,47-14s25-10,25-10l20,6c0,0,23-7,26-6s29-6,33-9
		s26-11,31-12s31-8,31-8s8.5-1.5,12.5,1.5s6,0.7,13.5,11.5c6.4,9.2,38,19,38,19l31,7.9c0,0,53,18.1,71,12.1s52,4,52,4v11L2077,550.2
		z"/>
	<path id="XMLID_9_" class="st10" d="M2251,548.9l44-18.9c0,0,17-7,26-7s58-10.9,65-10.5s38-7.6,42-9.6s34-19,37-21s29-8,29-8
		s50-17,57-20s28-5.9,28-5.9s14,5.9,18,5.9s38-10,38-10s15,12,20,12s34,5.1,34,5.1l87.9,22.9l94.1,12.4V549l-620,28V548.9z"/>
	<path id="XMLID_6_" class="st11" d="M2350.7,561.2c0,0,91.5-26.2,109.4-23.2c17.9,3,50.9-19,50.9-19s52-21,64-19s95-36,95-36l58-18
		c0,0,26-2,32,0s35,12,41,12s20,6,36,7s34,5,34,5v99l-430,5L2350.7,561.2z"/>
	<path id="XMLID_11_" class="st12" d="M636.9,821h2234c0,0,0.5-266.1,0-265s-85-1.9-90-3.8c-5-1.9-110,0.8-154,3.8
		s-154.9,2.4-166.9,1.4c-13.1-1.1-67.1,0.6-91.9-0.6c-7.5-0.4-15.1,0-22.5-1.1c-15.5-2.5-41.4-6.6-42.1-6.5c-1,0.1-62-5.7-70.4-4.8
		c0,0-50.4-0.7-51.9-0.9c-1.4-0.2-83.3,0.4-95.2,1.3c-0.6,0-7.5,0.8-8.1,0.9l-3.8,0.6l-3.2,0.7l0.5,19.8H636.9V821z"/>
	<g id="XMLID_4_">
		<path id="XMLID_16_" class="st13" d="M2535.7,615.7c3.6-19.4-18-22-37.3-28c-9.6-3-27.5-5.8-43.3-13.7c-15-7.4-43.3-11-43.3-11
			l-57.2-6l-35.3-3.8c0,0-19-2.8-21.3-3s-37.3-2.7-38-3s-43.5-2.1-47.5-1.7c-4,0.4-83.3-1-83.3-1s-48.5,1.3-49.5,1
			c-0.1,0-0.3,0.2-0.6,0.7h9.9c0,0,62.7-1.7,86.2,0.1c6.2,0.5,12.5-0.1,19,0.4c13.1,1,35.3-0.5,41.3,0.5c0,0,11.1,0.8,20.5,1.2
			c14.3,0.7,27.9,1.3,39.6,3.5c8.5,1.6,17.1,2.6,25.8,3c9.7,0.5,17.9,2.3,22.6,3.2c0,0,17.5,4.5,31.3,7.5c0,0,9,1.2,30.6,6.3
			c10.1,2.4,19.6,6.1,28,11c2.9,1.7,6.3,3.7,10.1,6c0,0,17,14.2,16,18.7c0,0,3,8.2-26,24.7c0,0-37,17.2-45,16.5c0,0-58,14.2-62,15.7
			c0,0-75,13.5-81,18c0,0-42,12.7-101,14.2c0,0-72,12.7-96,9.7l-67,6c0,0-67,2.2-77,6.7c0,0-55,5.2-65,9c-10,3.7-76,18-86,15
			c0,0-53,7.5-61,9c0,0-73.7,3-95.3,0c0,0-106.1-0.8-112.1,1.3s-123,3.5-136.5,0s-88.5-2.3-121.5,2.1c-33,4.4-171,0-171,0
			s-75-3.9-93,2c-18,5.8-145.3-7.6-145.3-7.6s-93.2-3.4-108.2-2.3s-55.5,0-55.5,0H637V821h1207l9.4-4.7c0,0,30.8-10,34.8-10
			s50.1-10,50.1-10s111.4-17.3,120-16.7c8.7,0.7,18.7-8,18.7-8s11.3-3.3,17.3-4s44-4.7,46-4c2,0.7,61.3-10,61.3-10
			S2261,747,2264,741s54-22.1,64.5-24.6c10.5-2.4,109.5-27.1,112.5-34.3S2528.3,655,2535.7,615.7z"/>
		
			<linearGradient id="XMLID_34_" gradientUnits="userSpaceOnUse" x1="1548.5441" y1="-199.0922" x2="1548.5441" y2="14.4269" gradientTransform="matrix(1 0 0 -1 0 560)">
			<stop  offset="0" style="stop-color:#2AA9FF"/>
			<stop  offset="1" style="stop-color:#6AD3FF"/>
		</linearGradient>
		<path id="XMLID_17_" class="st14" d="M710.1,747.7c15-1.1,108.2,2.3,108.2,2.3s127.3,13.5,145.3,7.6c18-5.8,93-2,93-2
			s138,4.4,171,0s108-5.7,121.5-2.1c13.5,3.5,130.5,2.1,136.5,0s112.1-1.3,112.1-1.3c21.7,3,95.3,0,95.3,0c8-1.5,61-9,61-9
			c10,3,76-11.2,86-15c10-3.7,65-9,65-9c10-4.5,77-6.7,77-6.7l67-6c24,3,96-9.7,96-9.7c59-1.5,101-14.2,101-14.2c6-4.5,81-18,81-18
			c4-1.5,62-15.7,62-15.7c8,0.7,45-16.5,45-16.5c29-16.5,26-24.7,26-24.7c1-4.5-16-18.7-16-18.7c-3.8-2.3-7.2-4.3-10.1-6
			c-8.4-4.8-17.9-8.6-28-11c-21.5-5.1-30.6-6.3-30.6-6.3c-13.8-3-31.3-7.5-31.3-7.5c-4.8-0.9-13-2.7-22.6-3.2
			c-8.7-0.4-17.3-1.5-25.8-3c-11.7-2.2-25.2-2.9-39.6-3.5c-9.4-0.4-20.5-1.2-20.5-1.2c-6-1-28.2,0.5-41.3-0.5
			c-6.5-0.5-12.8,0.1-19-0.4c-23.4-1.8-86.2-0.1-86.2-0.1h-9.9H637v106v95.3h17.6C654.6,747.6,695.1,748.8,710.1,747.7z"/>
	</g>
	
		<image style="display:none;overflow:visible;enable-background:new    ;" width="486" height="453" id="XMLID_12_" xlink:href="7A2B1955.jpg"  transform="matrix(0.9959 0 0 0.9956 3356.218 191.25)">
	</image>
	
		<image style="display:none;overflow:visible;enable-background:new    ;" width="700" height="490" id="XMLID_13_" xlink:href="7A2B1953.jpg"  transform="matrix(1 0 0 1 3338.0483 -531.9167)">
	</image>
</g>
<g id="Layer_3">
	<g id="XMLID_18_">
		<path id="XMLID_78_" class="st15" d="M1001.5,707.6c0,0,2.2,0,6.3,0c4.1,0,10.2,0,17.9,0c7.7,0.1,17.1,0.2,27.9,0.2
			s22.9-0.1,36.1-0.1c13.2,0,27.6-0.1,42.8-0.1c7.6,0,15.4,0,23.3-0.2c7.9-0.2,16.1-0.5,24.3-0.8c8.3-0.3,16.7-0.6,25.3-0.8
			c8.6-0.2,17.2-0.1,25.9-0.1c17.4,0.2,35.1,0.6,52.6,0.4c17.7-0.3,35.3-0.6,52.7-0.8c8.7-0.1,17.3-0.4,25.8-0.4
			c8.6-0.1,17-0.2,25.3-0.2c16.6,0.2,32.5,0.3,47.6,0.3c7.6,0,15,0,22.1,0s14,0.3,20.7,0.4c6.6,0,13,0.2,19,0.3
			c6.1,0.1,11.7,0.1,17.1,0.2c5.4,0,10.4,0,15,0c4.6,0,8.9-0.1,12.8-0.2c7.7-0.2,13.8-0.4,17.9-0.7c2.1-0.1,3.6-0.3,4.7-0.4
			c1.1-0.1,1.6-0.2,1.6-0.2l0.2,1.2c0,0-0.5,0.1-1.6,0.4c-1.1,0.3-2.6,0.6-4.7,1.1c-2,0.4-4.6,0.9-7.6,1.4s-6.4,1-10.3,1.5
			c-3.9,0.5-8.1,1-12.8,1.5c-4.7,0.5-9.7,1-15.1,1.4c-5.4,0.5-11.2,0.8-17.2,1.2c-6.1,0.4-12.4,0.7-19,1s-13.5,0.6-20.6,1
			c-7.1,0.3-14.5,0.6-22.1,0.9c-3.8,0.1-7.6,0.3-11.6,0.4c-3.9,0-7.9,0.1-11.9,0.1c-8,0.1-16.2,0-24.4-0.1
			c-16.5-0.3-33.6-0.6-51-0.8c-17.4-0.3-35-0.5-52.7-0.8c-17.8-0.3-35.4-1.1-52.8-1.7c-8.7-0.3-17.2-0.5-25.7-0.6s-16.9,0-25.1,0.1
			c-8.3,0.1-16.4,0.2-24.4,0.2c-4,0-8,0-11.9-0.1s-7.7-0.2-11.5-0.3c-15.2-0.5-29.5-0.9-42.8-1.3c-13.2-0.4-25.4-0.8-36.1-1.1
			c-10.8-0.3-20.2-0.8-27.9-1.2c-7.7-0.4-13.8-0.6-17.9-0.7c-4.1-0.1-6.3-0.2-6.3-0.2L1001.5,707.6z"/>
	</g>
	<g id="XMLID_19_">
		<path id="XMLID_76_" class="st15" d="M1621.1,718c0,0,4.7-0.3,13-0.8c4.1-0.3,9.1-0.6,14.9-1c5.7-0.4,12.2-0.9,19.3-1.5
			c7.1-0.5,14.7-1.1,22.8-1.7c8.1-0.6,16.6-1.2,25.4-1.8c17.6-1.3,36.5-2.6,55.3-4c9.4-0.8,18.8-1.7,28-2.7s18.3-2,27.1-2.8
			c8.8-0.8,17.3-1.5,25.4-2c4-0.3,8-0.6,11.8-0.8s7.5-0.5,11-0.7c7.1-0.5,13.5-0.9,19.2-1.3c2.9-0.2,5.5-0.4,8-0.6
			c2.5-0.2,4.8-0.3,6.8-0.5c4.1-0.3,7.3-0.7,9.5-0.9s3.4-0.4,3.4-0.4l0.2,0.8c0,0-1.1,0.3-3.3,1c-2.1,0.6-5.3,1.4-9.4,2.3
			c-2,0.5-4.3,0.9-6.7,1.4c-2.5,0.5-5.1,1-8,1.5c-2.8,0.5-5.9,1-9.1,1.5s-6.6,1-10.1,1.5s-7.2,1-11,1.5c-3.8,0.4-7.7,0.9-11.8,1.4
			c-8.1,1-16.6,1.8-25.4,2.6s-18,1.4-27.2,2c-9.3,0.5-18.7,1.1-28.2,1.6c-18.9,0.7-37.7,1.5-55.4,2.2c-8.8,0.3-17.4,0.7-25.5,1
			s-15.8,0.6-22.8,0.8c-7.1,0.2-13.6,0.5-19.3,0.7c-5.8,0.2-10.8,0.3-14.9,0.4c-8.3,0.1-13,0.2-13,0.2L1621.1,718z"/>
	</g>
	<g id="XMLID_20_">
		<path id="XMLID_74_" class="st15" d="M1263,677.3c0,0,2.4-0.1,7-0.2c4.5-0.1,11.2-0.3,19.6-0.8c4.2-0.3,8.9-0.6,14-0.9
			c5.1-0.3,10.7-0.5,16.6-0.7c5.9-0.2,12.2-0.4,18.9-0.5c6.6-0.1,13.6-0.1,20.9-0.1c14.6,0,30.3-0.1,46.9-0.7
			c16.7-0.5,34.2-1.1,52.4-1.6c18.2-0.6,36.9-1.3,56-1.9c9.5-0.3,19.2-0.6,28.8-1c9.6-0.4,19.3-0.9,29-1.5c9.7-0.6,19.4-1.1,29-1.7
			c9.6-0.5,19.2-1.1,28.8-1.7c9.5-0.6,19-1.2,28.3-1.7c9.3-0.5,18.5-1,27.6-1.5c9.1-0.4,18-0.9,26.8-1.1c4.4-0.2,8.7-0.3,13-0.5
			c4.3-0.1,8.5-0.2,12.7-0.4c2.1-0.1,4.1-0.1,6.2-0.2c2-0.1,4.1-0.2,6.1-0.2c4-0.2,8-0.4,11.9-0.6c7.8-0.4,15.3-0.8,22.6-1.2
			c7.3-0.4,14.2-0.8,20.9-1c3.3-0.1,6.5-0.2,9.7-0.4c3.1-0.1,6.2-0.2,9.1-0.3c5.9-0.2,11.4-0.4,16.6-0.5c5.1-0.1,9.8-0.2,14.1-0.3
			c8.5-0.2,15.2-0.3,19.7-0.3c4.6,0,7,0,7,0l0.1,1.3c0,0-2.4,0.4-6.9,1c-4.5,0.7-11.1,1.6-19.5,2.7c-4.2,0.5-8.9,1.1-14,1.8
			c-5.1,0.6-10.6,1.3-16.4,2c-11.7,1.3-25,2.9-39.4,4.5c-7.2,0.8-14.8,1.7-22.6,2.5c-3.9,0.4-7.9,0.7-12,1.1c-2,0.2-4.1,0.3-6.1,0.5
			c-2.1,0.1-4.2,0.3-6.2,0.4c-4.2,0.3-8.4,0.5-12.6,0.8c-4.3,0.2-8.6,0.5-13,0.8c-8.7,0.5-17.7,0.9-26.7,1.4
			c-4.6,0.2-9.2,0.4-13.8,0.6c-4.6,0.2-9.3,0.3-13.9,0.5c-9.4,0.3-18.8,0.5-28.4,0.8c-9.5,0.2-19.2,0.5-28.8,0.7
			c-9.6,0.3-19.3,0.5-29,0.8c-9.7,0.3-19.4,0.6-29.1,0.8c-9.7,0.2-19.3,0.2-28.9,0.4c-19.1,0.2-37.9,0.4-56.1,0.5
			c-18.2,0-35.8,0.1-52.4,0.1c-16.7,0.1-32.5-0.4-47.1-0.8c-7.3-0.2-14.2-0.4-20.8-0.6c-6.6-0.1-12.9-0.1-18.8-0.1
			c-11.8,0-22.1,0.3-30.6,0.5s-15.2,0.1-19.7,0.1c-4.5-0.1-7-0.1-7-0.1L1263,677.3z"/>
	</g>
	<g id="XMLID_21_">
		<path id="XMLID_80_" class="st15" d="M2034,682.1c0,0,10.9-0.4,27.2-1c4.1-0.2,8.5-0.4,13.1-0.7c4.7-0.3,9.6-0.7,14.6-1.2
			c10.1-0.9,21-2.1,31.8-3.2c5.4-0.6,10.8-1.2,16.1-1.8c5.3-0.7,10.5-1.3,15.6-1.9c5.1-0.6,9.9-1.1,14.6-1.6
			c2.3-0.3,4.6-0.5,6.7-0.8c2.2-0.2,4.3-0.5,6.3-0.7c4-0.5,7.7-0.9,11-1.3c1.6-0.2,3.2-0.4,4.6-0.6c1.4-0.2,2.7-0.3,3.9-0.5
			c4.7-0.7,7.4-1,7.4-1l0.2,0.6c0,0-0.6,0.2-1.8,0.7c-1.2,0.5-3,1.1-5.3,1.9c-2.3,0.8-5.1,1.6-8.3,2.5c-1.6,0.4-3.3,0.9-5.2,1.3
			c-1.8,0.4-3.7,0.9-5.8,1.3c-4,0.9-8.4,1.7-13,2.5s-9.5,1.5-14.6,2c-5.1,0.6-10.4,1-15.7,1.3c-5.4,0.3-10.8,0.7-16.2,1
			c-10.9,0.7-21.7,1.3-31.9,1.9c-5.1,0.2-10.1,0.5-14.8,0.5c-4.7,0.1-9.1,0.1-13.2,0c-8.2-0.1-15-0.2-19.7-0.3
			c-4.8-0.1-7.5-0.2-7.5-0.2L2034,682.1z"/>
	</g>
	<g id="XMLID_26_">
		<path id="XMLID_67_" class="st15" d="M1892.3,669.5c0,0,3.8-0.2,10.5-0.6c6.7-0.4,16.3-0.9,27.8-1.7c5.7-0.4,12-0.8,18.5-1.3
			c6.6-0.5,13.5-0.9,20.7-1.3c14.4-0.9,29.7-1.7,45-2.6c7.7-0.5,15.3-0.9,22.8-1.5c7.5-0.5,14.9-1.1,22.1-1.6c7.1-0.5,14-1,20.6-1.4
			c6.6-0.5,12.8-0.9,18.5-1.4c5.7-0.4,11-0.8,15.7-1.2c4.7-0.3,8.7-0.6,12.1-0.8c3.4-0.2,6-0.3,7.8-0.4c1.8-0.1,2.8-0.1,2.8-0.1
			l0.1,0.7c0,0-0.9,0.2-2.7,0.6c-1.8,0.4-4.3,1-7.6,1.7c-3.3,0.7-7.3,1.5-11.9,2.4s-9.8,1.8-15.5,2.7c-2.9,0.4-5.8,0.9-8.9,1.3
			c-3.1,0.4-6.3,0.8-9.6,1.2c-6.6,0.8-13.5,1.5-20.8,2c-7.2,0.5-14.7,0.7-22.2,0.9c-7.6,0.2-15.2,0.3-22.9,0.5
			c-15.4,0.3-30.7,0.6-45.1,1s-27.8,0.8-39.3,1.1s-21.1,0.4-27.8,0.5c-6.7,0.1-10.6,0.1-10.6,0.1L1892.3,669.5z"/>
	</g>
	<g id="XMLID_27_">
		<path id="XMLID_63_" class="st15" d="M2219.6,671c0,0,5.7-0.8,14.2-2c4.3-0.6,9.2-1.3,14.5-2.1c5.3-0.8,11-1.6,16.6-2.6
			c2.8-0.5,5.6-1,8.4-1.6c2.7-0.6,5.4-1.1,8.1-1.7c2.6-0.6,5.1-1.1,7.5-1.6c1.2-0.2,2.4-0.5,3.5-0.8s2.2-0.5,3.3-0.7
			c4.2-1,7.6-1.9,10.1-2.5c2.4-0.6,3.8-0.9,3.8-0.9l0.1,0.3c0,0-1.3,0.6-3.6,1.7c-1.1,0.5-2.6,1.1-4.2,1.8c-1.6,0.7-3.5,1.3-5.5,2
			c-2.1,0.7-4.3,1.4-6.7,2c-2.4,0.7-4.9,1.3-7.6,1.9c-2.7,0.5-5.4,1-8.2,1.4s-5.7,0.8-8.5,1.2c-5.7,0.8-11.4,1.4-16.8,1.9
			c-2.7,0.3-5.3,0.6-7.7,0.8c-2.5,0.2-4.8,0.4-6.9,0.6c-8.6,0.8-14.3,1.3-14.3,1.3L2219.6,671z"/>
	</g>
	<g id="XMLID_32_">
		<path id="XMLID_59_" class="st15" d="M2352,644.3c0,0,3.6-0.8,9.1-2c2.7-0.6,5.9-1.3,9.3-2.1c3.4-0.8,7-1.6,10.6-2.5
			c1.8-0.5,3.6-1,5.3-1.5s3.5-1,5.1-1.5c1.7-0.5,3.3-1,4.8-1.5s2.9-1,4.3-1.4c5.3-1.8,8.8-3,8.8-3l0.1,0.2c0,0-0.8,0.5-2.2,1.3
			c-0.7,0.4-1.6,0.9-2.6,1.4s-2.2,1.1-3.5,1.6c-1.3,0.5-2.7,1.2-4.2,1.7c-1.5,0.6-3.1,1.1-4.8,1.6c-1.7,0.5-3.4,1-5.2,1.4
			c-1.8,0.4-3.6,0.8-5.4,1.2c-7.3,1.6-14.6,2.8-20.1,3.8c-5.5,0.9-9.2,1.5-9.2,1.5L2352,644.3z"/>
	</g>
	<g id="XMLID_35_">
		<path id="XMLID_65_" class="st15" d="M2435.6,612.3c0,0,0.2-0.1,0.5-0.4c0.1-0.1,0.3-0.3,0.5-0.5c0.2-0.2,0.4-0.5,0.5-0.7
			c0.2-0.3,0.3-0.6,0.4-1s0.2-0.7,0.3-1.2c0-0.2,0-0.4,0.1-0.6c0-0.2,0-0.4,0-0.7c0-0.4-0.1-0.9-0.1-1.3c-0.1-0.4-0.2-0.9-0.3-1.3
			c-0.1-0.4-0.3-0.8-0.4-1.2c-0.1-0.4-0.3-0.8-0.4-1.2s-0.3-0.7-0.4-1c-0.2-0.6-0.4-1.2-0.6-1.6c-0.1-0.4-0.2-0.6-0.2-0.6h0.1
			c0,0,0.2,0.2,0.4,0.5c0.1,0.2,0.3,0.4,0.4,0.6c0.2,0.2,0.4,0.5,0.5,0.8c0.2,0.3,0.3,0.7,0.5,1c0.2,0.4,0.4,0.8,0.5,1.2
			c0.1,0.4,0.3,0.9,0.3,1.3c0.1,0.5,0.2,0.9,0.2,1.4s0.1,1,0,1.4c0,0.2,0,0.5,0,0.7s-0.1,0.5-0.1,0.7c-0.1,0.4-0.2,0.9-0.4,1.2
			c-0.2,0.4-0.4,0.7-0.6,1s-0.4,0.5-0.6,0.7c-0.2,0.2-0.4,0.3-0.6,0.5C2435.9,612.3,2435.7,612.4,2435.6,612.3L2435.6,612.3z"/>
	</g>
	<g id="XMLID_36_">
		<path id="XMLID_61_" class="st15" d="M2380.3,617.6c0,0,2.6-0.3,6.5-0.9c3.9-0.7,9-1.6,14-3c1.2-0.4,2.5-0.7,3.7-1.1
			c1.2-0.4,2.4-0.8,3.5-1.3c1.1-0.4,2.2-0.8,3.2-1.2s2-0.8,2.8-1.2c0.9-0.4,1.7-0.8,2.3-1.2c0.7-0.4,1.3-0.7,1.7-1
			c0.5-0.3,0.8-0.6,1.1-0.8c0.3-0.2,0.4-0.3,0.4-0.3l0.1,0.1c0,0-0.1,0.1-0.3,0.4c-0.2,0.2-0.5,0.6-0.9,1c-0.2,0.2-0.4,0.5-0.7,0.7
			s-0.6,0.5-0.9,0.8c-0.6,0.5-1.4,1.1-2.2,1.6c-0.8,0.5-1.8,1.1-2.8,1.6s-2.1,1-3.3,1.4c-1.2,0.4-2.4,0.8-3.7,1.1
			c-1.3,0.3-2.5,0.6-3.8,0.9c-5.2,1.1-10.4,1.8-14.3,2.1c-3.9,0.4-6.5,0.4-6.5,0.4L2380.3,617.6z"/>
	</g>
	<g id="XMLID_48_">
		<path id="XMLID_56_" class="st15" d="M2143,652.6L2143,652.6L2143,652.6C2142.9,652.6,2142.9,652.7,2143,652.6L2143,652.6
			L2143,652.6L2143,652.6l0.1-0.1c0.2,0,0.7,0,1.2,0c1.1,0,2.7-0.1,4.7-0.2c4-0.3,9.8-0.8,16.6-1.6c6.9-0.8,14.9-1.8,23.4-2.9
			c8.6-1.1,17.7-2.5,26.8-4c4.5-0.8,9.1-1.5,13.5-2.4c4.4-0.8,8.8-1.7,13.1-2.5c4.2-0.8,8.3-1.5,12.2-2.2c3.9-0.7,7.5-1.4,10.9-2.1
			c3.4-0.7,6.5-1.3,9.2-1.9c2.7-0.6,5.1-1.1,7.1-1.6s3.5-0.8,4.5-1.1c1.1-0.3,1.6-0.4,1.6-0.4l0.1,0.4c0,0-0.5,0.2-1.5,0.7
			s-2.5,1.1-4.3,1.8c-1.9,0.7-4.2,1.6-6.9,2.5c-2.7,0.9-5.7,1.8-9.1,2.7c-1.7,0.4-3.4,0.9-5.2,1.4c-1.8,0.4-3.7,0.9-5.6,1.3
			c-3.9,0.9-8,1.7-12.3,2.5c-4.3,0.8-8.7,1.5-13.2,2.1s-9.1,1.3-13.7,1.9c-9.2,1.2-18.3,2.2-27,3.1c-8.6,0.9-16.7,1.5-23.6,2
			s-12.7,0.8-16.7,0.9c-2,0.1-3.6,0.1-4.7,0c-0.5,0-1-0.1-1.3-0.1c-0.1,0-0.1,0-0.2-0.1h-0.1l-0.1-0.1c-0.1-0.1-0.1-0.2,0-0.3
			s0.1-0.1,0.1-0.1l0,0l0,0L2143,652.6z"/>
	</g>
	<g id="XMLID_46_">
		<path id="XMLID_54_" class="st15" d="M1211.1,683.7c0,0-1.6,0.1-4.5,0.3s-7.3,0.5-12.8,0.7c-5.5,0.3-12.2,0.5-19.8,0.7
			c-7.7,0.2-16.3,0.5-25.7,0.8c-4.7,0.2-9.6,0.3-14.7,0.5s-10.3,0.3-15.7,0.5c-10.8,0.3-22.2,0.7-34,0.9c-3,0.1-5.9,0.2-8.9,0.2
			s-6,0-9,0.1c-6.1,0-12.2,0.1-18.4,0.1c-12.4,0-24.9,0-37.5,0c-12.6-0.3-25.2-0.6-37.5-0.8c-12.4-0.2-24.5-0.7-36.3-1
			c-11.8-0.2-23.2-0.4-33.9-0.7c-5.4-0.1-10.7-0.2-15.8-0.5c-5.1-0.2-10.1-0.5-14.7-0.9c-4.7-0.3-9.2-0.7-13.5-1.1
			c-4.3-0.4-8.4-0.9-12.2-1.3c-7.6-0.9-14.3-1.9-19.7-2.9s-9.7-2-12.5-2.8c-1.4-0.4-2.5-0.7-3.2-1s-1.1-0.4-1.1-0.4s0.4,0.1,1.1,0.3
			s1.8,0.4,3.3,0.7c2.9,0.5,7.2,1.1,12.6,1.6c5.5,0.5,12.1,1,19.7,1.5c7.6,0.4,16.2,0.7,25.6,0.9s19.5,0.1,30.3,0
			c10.8-0.2,22.2-0.5,34-0.4c5.9,0,11.9,0.1,17.9,0.1c3,0,6.1,0,9.1,0.1c3.1,0,6.1,0.1,9.2,0.1c12.4,0.2,24.9,0.4,37.5,0.6
			c12.6,0.1,25.1,0.2,37.5,0.3c12.4,0,24.6,0.5,36.3,0.4c11.8,0,23.2,0.1,34,0.2c10.8,0.1,21,0.2,30.4,0.4
			c9.4,0.2,18.1,0.4,25.7,0.7c7.7,0.3,14.3,0.5,19.8,0.7C1204.8,683.5,1211.1,683.7,1211.1,683.7z"/>
	</g>
	<g id="XMLID_42_">
		<path id="XMLID_52_" class="st15" d="M2276.3,641.4c0,0,5.5-0.6,13.9-1.4c2.1-0.2,4.3-0.5,6.7-0.8c2.4-0.3,4.9-0.6,7.5-0.9
			c2.6-0.4,5.2-0.8,7.9-1.3s5.3-1.2,8-1.9c2.7-0.8,5.3-1.5,7.9-2.4c2.6-0.8,5.2-1.7,7.7-2.4c2.5-0.8,4.9-1.5,7.2-2.1
			c2.3-0.6,4.5-1.2,6.5-1.7c4.1-1,7.5-1.8,9.9-2.2c2.4-0.5,3.8-0.7,3.8-0.7l0.1,0.3c0,0-1.3,0.6-3.6,1.4c-1.1,0.5-2.5,1-4.1,1.6
			c-1.6,0.6-3.4,1.3-5.4,1.9c-3.9,1.4-8.6,3-13.6,4.5c-2.5,0.7-5.1,1.5-7.8,2.2c-2.7,0.7-5.4,1.4-8.1,2s-5.5,1.2-8.2,1.6
			c-2.7,0.4-5.4,0.8-8,1c-5.2,0.5-10.1,0.8-14.3,1c-8.4,0.4-13.9,0.7-13.9,0.7L2276.3,641.4z"/>
	</g>
	<g id="XMLID_5_">
		<path id="XMLID_50_" class="st15" d="M2295.9,649.8c0,0,3.5-0.7,8.9-1.7c2.7-0.5,5.8-1.1,9.1-1.7c3.3-0.6,6.9-1.3,10.4-2
			c1.8-0.4,3.5-0.8,5.2-1.2s3.4-0.8,5-1.2s3.2-0.7,4.7-1c0.8-0.2,1.5-0.3,2.2-0.5c0.7-0.1,1.4-0.3,2.1-0.4c1.3-0.3,2.5-0.5,3.6-0.7
			s2-0.4,2.8-0.5c1.6-0.3,2.5-0.4,2.5-0.4l0.1,0.3c0,0-0.8,0.5-2.2,1.2c-0.7,0.4-1.6,0.7-2.6,1.2c-1,0.4-2.2,0.9-3.5,1.4
			s-2.7,1-4.2,1.4c-1.5,0.5-3.1,0.9-4.8,1.3c-1.7,0.4-3.4,0.7-5.2,0.9c-1.8,0.3-3.6,0.5-5.4,0.8c-7.2,1-14.3,1.9-19.7,2.4
			c-5.4,0.6-9,0.9-9,0.9V649.8z"/>
	</g>
	<g id="XMLID_44_">
		<path id="XMLID_47_" class="st15" d="M2390.5,575.2c0,0,2.6,0.6,6.4,1.7c3.9,1.1,9,2.6,14,4.4c2.5,0.9,5,1.8,7.3,2.8
			c1.1,0.5,2.3,1,3.3,1.5s2,1.1,2.8,1.6c0.9,0.5,1.6,1,2.3,1.5c0.7,0.5,1.2,1,1.6,1.4s0.7,0.7,0.9,1c0.2,0.2,0.3,0.4,0.3,0.4
			l-0.1,0.1c0,0-0.1-0.1-0.4-0.3c-0.2-0.2-0.6-0.5-1-0.9c-0.5-0.3-1-0.7-1.7-1.2c-0.7-0.4-1.5-0.9-2.4-1.3c-1.8-0.9-3.9-1.9-6.1-2.9
			c-2.3-1-4.7-2-7.2-3C2400.7,578.3,2390.5,575.3,2390.5,575.2L2390.5,575.2z"/>
	</g>
</g>
<g id="Layer_4">
	<g id="XMLID_41_">
		<g id="XMLID_129_">
			<path id="XMLID_149_" class="st16" d="M739,655.6c0,0,9.5-93.8,9.6-94.7c0.1-0.9,5.8-40.9,8.3-51.2
				c2.4-10.1,22.5-116.8,22.5-116.8l1.9-8.1l9-34.1c0,0,3.7,1,5.9-3c2.2-4,1.4,2.2,10.1-36.7c0,0,2-6.2,3.1-22.3l-24.6-2.8
				c0,0-10.3,31.7-10.6,35.8c0,0-0.2,3.9-3.7,12c0,0-5.7,5.6-4.1,17.9c0,0,1.2,2.6,4,2.1l-11,58l-12.5,61.6l-7.8,41l-9.2,54.7
				l-15.2,84.1L739,655.6z"/>
		</g>
		<g id="XMLID_96_">
			<path id="XMLID_128_" class="st16" d="M745.8,360.2c0.7,0,1.4-0.1,2.1-0.1c0.1,0,0.2-0.1,0.4-0.2c0.2-0.1,0.3-0.1,0.6-0.2
				c-1.2-0.1-2.1-0.1-2.8,0c-0.4,0.1-0.7,0.2-0.9,0.3c0,0.1-0.1,0.1-0.1,0.1c0.1,0,0.1,0,0.2,0.1
				C745.4,360.3,745.6,360.3,745.8,360.2z"/>
			<path id="XMLID_127_" class="st16" d="M765.5,357.1c0.2,0.6,0.4,1.3,0.6,1.9c0.3,0.1,0.5,0.2,0.8,0.4c-0.4-0.7-0.9-1.6-1.4-2.5
				C765.5,357,765.5,357.1,765.5,357.1z"/>
			<path id="XMLID_126_" class="st16" d="M754,359.4c-0.5-0.2-1-0.4-1.5-0.5c0.3,0.2,0.7,0.4,1,0.5
				C753.7,359.5,753.9,359.5,754,359.4z"/>
			<path id="XMLID_125_" class="st16" d="M749.7,358.3c0.3,0.1,0.7,0.2,1.1,0.4c0.2,0.1,0.4,0.2,0.7,0.2c-0.3-0.2-0.5-0.3-0.8-0.5
				l0,0C750.2,358.4,749.9,358.4,749.7,358.3z"/>
			<path id="XMLID_124_" class="st16" d="M763.5,356.5c0.2,0.6,0.4,1.2,0.7,1.8h0.1c0-0.5,0-1,0-1.4s0-0.8,0-1.1
				c0-0.2,0-0.3,0.1-0.4c-0.3-0.5-0.6-0.9-0.9-1.4c-0.3-0.4-0.5-0.8-0.8-1.2c0,0.1,0,0.3,0,0.4c0,0.4,0.1,0.9,0.2,1.5
				c0.1,0.3,0.1,0.6,0.2,0.9C763.3,355.8,763.4,356.1,763.5,356.5z"/>
			<path id="XMLID_123_" class="st16" d="M782.1,354.3L782.1,354.3c0-0.2,0.1-0.3,0.1-0.5l0,0c-0.1,0.2-0.1,0.5-0.2,0.7
				C782,354.5,782.1,354.4,782.1,354.3z"/>
			<path id="XMLID_122_" class="st16" d="M754.7,362.9c-0.1,0-0.1-0.1-0.2-0.1c-0.1-0.1-0.3-0.2-0.4-0.4c-0.5,0-1-0.1-1.4-0.1
				C753.3,362.5,754,362.7,754.7,362.9z"/>
			<path id="XMLID_121_" class="st16" d="M748,360.1c0.4,0,0.8-0.1,1.1-0.1c0.3,0,0.5,0,0.8,0c0.1,0,0.2-0.1,0.3-0.1
				c-0.3,0-0.5-0.1-0.8-0.1l0,0c0,0,0,0-0.1,0c-0.4,0.1-0.8,0.1-1.1,0.2C748.2,360,748.1,360.1,748,360.1z"/>
			<path id="XMLID_120_" class="st16" d="M760.3,391.9c-0.1,0.3-0.2,0.5-0.3,0.8c0.2-0.3,0.5-0.7,0.7-1
				C760.5,391.7,760.4,391.8,760.3,391.9z"/>
			<path id="XMLID_119_" class="st16" d="M790,401.8L790,401.8c0.1,0.2,0.1,0.3,0.2,0.5l0,0c0-0.2-0.1-0.5-0.2-0.7
				C790,401.6,790,401.7,790,401.8z"/>
			<path id="XMLID_118_" class="st16" d="M761.9,393.3c0,0.1-0.1,0.1-0.1,0.1C761.9,393.4,761.9,393.4,761.9,393.3
				C762,393.3,762,393.3,761.9,393.3z"/>
			<path id="XMLID_117_" class="st16" d="M753,361.5c-0.2-0.2-0.5-0.4-0.7-0.5c-0.1,0-0.1-0.1-0.2-0.1c-1,0-2,0-3,0
				c-0.6,0-1.2,0-1.8,0c0.7,0.2,1.5,0.4,2.2,0.6c0.6,0.2,1.2,0.3,1.8,0.5C751.8,361.8,752.4,361.7,753,361.5z"/>
			<path id="XMLID_116_" class="st16" d="M758.7,392.2c-0.2,0.2-0.4,0.5-0.6,0.7c0.2-0.1,0.3-0.3,0.5-0.4
				C758.7,392.4,758.7,392.3,758.7,392.2z"/>
			<path id="XMLID_115_" class="st16" d="M748.2,378.3L748.2,378.3L748.2,378.3C748.3,378.2,748.3,378.3,748.2,378.3z"/>
			<path id="XMLID_114_" class="st16" d="M754,389.8c-0.3,0.2-0.5,0.5-0.7,0.7s-0.4,0.5-0.6,0.7c-0.4,0.4-0.7,0.8-0.9,1.2
				c-0.3,0.5-0.5,0.9-0.6,1.1c0.6-0.9,1.3-1.8,2-2.7c0.4-0.5,0.8-0.9,1.2-1.4C754.3,389.6,754.1,389.7,754,389.8z"/>
			<path id="XMLID_97_" class="st16" d="M811.8,384c-0.2-0.2-0.4-0.5-0.7-0.8c-0.3-0.2-0.6-0.5-0.8-0.8c-0.6-0.6-1.2-1.1-2-1.7
				c-0.7-0.6-1.5-1.1-2.4-1.7c-0.8-0.6-1.7-1.1-2.6-1.7c-0.2-0.1-0.4-0.3-0.6-0.4c-0.1-0.1-0.2-0.2-0.3-0.3c0.1,0,0.1,0,0.2,0.1
				c1.3,0.5,2.2,0.9,2.7,1.1c0.2,0.1,0.3,0.2,0.4,0.3c0.7,0.4,1,0.8,1,0.8s-0.1-0.1-0.2-0.3c-0.1-0.2-0.3-0.5-0.6-0.7
				c-0.6-0.6-1.5-1.3-2.7-2.1c-0.4-0.3-0.9-0.6-1.4-0.9c0.3,0.1,0.6,0.2,0.9,0.3c0.7,0.3,1.1,0.5,1.1,0.5s-0.4-0.3-1-0.7
				c-0.7-0.4-1.7-1-2.9-1.5c-0.2-0.1-0.4-0.2-0.6-0.2c-0.6-0.6-1.2-1.2-1.7-1.7c0.6,0,1.1-0.1,1.7-0.1c2,1.3,3.3,2.6,3.3,2.6
				s-0.8-1-2.1-2c0.1,0,0.1,0,0.2,0c0.2,0,0.4-0.2,0.6-0.2c1,0.2,2,0.3,2.9,0.6c1,0.3,1.9,0.4,2.8,0.7c0.3,0.1,0.6,0.2,0.9,0.3h0.1
				c0.6,0.5,0.7,0.9,0.8,0.9c0,0-0.1-0.3-0.4-0.8c0.4,0.1,0.8,0.3,1.2,0.4c0.8,0.3,1.6,0.6,2.2,1c0.3,0.2,0.7,0.3,1,0.5
				s0.6,0.4,0.8,0.5c0.5,0.3,1,0.6,1.3,0.9c0.7,0.6,1,0.9,1,0.9s-0.3-0.4-0.8-1.1c-0.2-0.4-0.7-0.8-1.1-1.2
				c-0.2-0.2-0.5-0.5-0.7-0.7c-0.3-0.2-0.6-0.4-0.9-0.7c-0.6-0.5-1.3-1-2.1-1.5c-0.7-0.5-1.6-1-2.4-1.5c-0.8-0.4-1.6-0.8-2.4-1.3
				c0.2,0,0.4,0.1,0.6,0.1c0.8,0.2,1.3,0.4,1.3,0.4s-0.4-0.2-1.2-0.6c-0.4-0.2-0.9-0.4-1.4-0.6c-0.3-0.1-0.6-0.2-0.9-0.3
				c-0.2,0-0.5-0.1-0.7-0.1c-0.3-0.1-0.5-0.2-0.8-0.4c-1-0.5-2-0.9-3-1.3c0.4-0.2,0.8-0.4,1.3-0.6c0.8,0.2,1.5,0.5,2,0.7
				c0.7,0.3,1,0.6,1,0.6s-0.3-0.3-0.9-0.8c-0.3-0.3-0.8-0.6-1.3-0.9c0.2-0.1,0.4-0.2,0.6-0.2c0.3-0.1,0.6-0.3,0.9-0.4
				c0.4,0.1,0.8,0.2,1.1,0.3c0.7,0.2,1.1,0.4,1.1,0.4s0,0-0.1,0c0.4,0.2,0.6,0.3,0.6,0.3s-0.4-0.3-1-0.8c-0.1-0.1-0.3-0.2-0.4-0.3
				c0.8,0.1,1.5,0.1,2.2,0.2c0.3,0,0.5,0.1,0.8,0.1c0.1,0,0.2,0.1,0.3,0.1c0.5,0.3,0.8,0.5,0.8,0.5s-0.2-0.2-0.5-0.5
				c0.8,0.1,1.4,0.3,1.9,0.5c0.4,0.2,0.6,0.3,0.8,0.5c0.1,0.2,0.1,0.3,0.1,0.3s0-0.1-0.1-0.3c-0.1-0.2-0.3-0.5-0.7-0.7
				c-0.7-0.5-1.7-0.9-3-1.4c0.4,0,0.7-0.1,1,0c0.9,0.1,1.4,0.1,1.4,0.1s-0.5-0.1-1.4-0.4c-0.4-0.1-0.9-0.2-1.5-0.2
				c0.8-0.3,1.6-0.6,2.3-0.8c0.9-0.3,1.7-0.5,2.3-0.6s0.9,0,0.9,0s-0.3-0.2-0.9-0.3c-0.6-0.1-1.4-0.1-2.5-0.1
				c-1.7,0-3.8,0.2-6.1,0.4c-0.7-0.2-1.5-0.4-2.3-0.5c-0.2,0-0.4-0.1-0.6-0.1c1-0.3,2.1-0.7,3.2-1c0.5-0.1,1-0.3,1.5-0.4
				c0.2,0,0.4,0,0.6,0c0.3,0,0.7,0.1,1,0.1c0.6,0.1,1.2,0.1,1.6,0.2c0.9,0.2,1.4,0.4,1.4,0.4s-0.5-0.2-1.3-0.7
				c-0.4-0.2-0.9-0.4-1.4-0.5c1.9-0.4,3.7-0.7,5.3-0.7c0.6,0,1.2,0,1.6,0.1c0.5,0.1,0.9,0.2,1.2,0.3c0.7,0.2,1,0.5,1,0.5
				s-0.3-0.3-0.9-0.7c-0.3-0.2-0.7-0.4-1.2-0.6c-0.5-0.2-1-0.4-1.7-0.5c-2.5-0.6-5.9-0.8-9.3-0.7c-1,0-1.9,0.1-2.9,0.1
				c0.5-0.8,0.9-1.4,1.2-1.9c0.5-0.6,0.8-0.9,0.8-0.9s-0.4,0.3-1,0.7c-0.6,0.5-1.4,1.2-2.2,2.2c-1.4,0.1-2.7,0.2-3.9,0.4
				c0.1-0.2,0.2-0.4,0.3-0.6c0.1-0.2,0.2-0.3,0.2-0.4c0.3-0.3,0.6-0.7,0.9-1c0.9-0.9,1.8-1.8,2.6-2.6c0.9-0.8,1.7-1.5,2.4-2
				c0.4-0.3,0.7-0.5,1.1-0.7c0.3-0.2,0.6-0.3,0.9-0.4c0.5-0.1,0.8-0.2,0.8-0.2s-0.3,0-0.9-0.1c-0.3,0-0.6,0.1-1,0.1
				c-0.4,0.1-0.8,0.2-1.3,0.3c-0.9,0.3-2,0.7-3.1,1.2c-1.1,0.5-2.3,1.1-3.5,1.7c-0.3,0.2-0.6,0.3-0.9,0.5c0.2-1.1,0.5-2,0.6-2.6
				c0.3-0.7,0.5-1.1,0.5-1.1s-0.3,0.4-0.7,1c-0.4,0.7-0.9,1.7-1.5,3c-0.1,0.1-0.1,0.3-0.2,0.5c-0.4,0.2-0.8,0.5-1.2,0.7
				c0-0.2,0.1-0.4,0.1-0.6v-0.1c0.1-0.1,0.1-0.3,0.2-0.4c0.5-1.2,1-2.1,1.5-2.7c0.4-0.6,0.7-0.9,0.7-0.9s-0.4,0.2-1,0.7
				c-0.2,0.2-0.5,0.5-0.8,0.8c0.1-0.2,0.1-0.4,0.2-0.5c0.3-0.7,0.5-1.1,0.5-1.1s-0.3,0.4-0.7,1c-0.3,0.5-0.7,1.2-1.1,2
				c0,0.1-0.1,0.1-0.1,0.2c-0.3,0.4-0.7,0.9-1,1.5c0-0.2,0.1-0.4,0.1-0.5c0.2-0.8,0.4-1.5,0.7-2.2c0.1-0.3,0.2-0.7,0.4-1
				c0.1-0.3,0.3-0.6,0.4-0.8c0.3-0.5,0.5-1,0.8-1.3c0.5-0.7,0.8-1.1,0.8-1.1s-0.4,0.3-1,0.9c-0.4,0.3-0.7,0.7-1,1.1l0,0
				c0.4-0.8,0.6-1.2,0.6-1.2s-2.3,2.7-5.1,6.3c0-0.1,0-0.3,0-0.4c1.5-3.3,2.7-5.7,2.7-5.7s-1.1,1.3-2.7,3.3c0-0.3,0-0.7,0.1-1
				c0-0.5,0.1-0.9,0.1-1.3c0.7-1.2,1.2-2,1.2-2s-0.4,0.6-1.1,1.7c0-0.3,0.1-0.6,0.1-0.8c0.1-0.4,0.1-0.7,0.2-1.1
				c0.1-0.3,0.2-0.7,0.3-1c0.2-0.6,0.3-1.2,0.5-1.5c0.4-0.8,0.6-1.3,0.6-1.3s-0.3,0.4-0.9,1.2c-0.3,0.4-0.5,0.9-0.8,1.5
				c-0.1,0.3-0.3,0.6-0.5,0.9c-0.1,0.3-0.3,0.7-0.4,1.1c-0.3,0.7-0.6,1.6-0.8,2.5c-0.1,0.4-0.2,0.7-0.3,1.1c0-0.1,0-0.1,0-0.2
				c0.1-0.9,0.3-1.7,0.4-2.3c0.2-0.7,0.4-1.1,0.4-1.1s-0.3,0.3-0.7,1c-0.1,0.1-0.1,0.2-0.2,0.4c0.1-0.3,0.1-0.7,0.2-1
				c0.1-0.6,0.3-1.2,0.5-1.8c0.2-0.6,0.4-1,0.6-1.5s0.4-0.8,0.6-1.1c0.4-0.6,0.6-0.9,0.6-0.9s-0.3,0.3-0.8,0.8
				c-0.3,0.3-0.6,0.5-0.9,0.9s-0.7,0.8-1,1.4c-0.1,0.2-0.2,0.4-0.3,0.6c0-0.3,0-0.7,0-0.9c0.1-0.9,0.2-1.4,0.2-1.4s-0.2,0.5-0.5,1.4
				c-0.1,0.3-0.2,0.6-0.2,0.9c-0.1,0.2-0.2,0.4-0.4,0.7c-0.3,0.4-0.4,0.9-0.6,1.4c-0.1,0.3-0.2,0.6-0.3,0.9c0,0.2-0.1,0.4-0.2,0.6
				c-0.3,0.6-0.5,1.2-0.8,1.9c0,0.1-0.1,0.3-0.1,0.5c0-0.1,0-0.3-0.1-0.4c-0.1-0.8-0.2-1.5-0.3-2c0-0.2,0-0.4-0.1-0.5
				c0-0.2,0.1-0.4,0.1-0.6c0.1-0.6,0.1-1.1,0.3-1.5c0.3-0.8,0.4-1.3,0.4-1.3s-0.2,0.4-0.7,1.2c-0.3,0.4-0.4,0.9-0.6,1.4
				c0,0.1-0.1,0.2-0.1,0.3c0-0.2,0-0.4,0-0.6c-0.1-1.6,0-3.1,0.1-4.3c0.1-1.3,0.3-2.3,0.5-3c0.2-0.7,0.4-1.1,0.4-1.1s-0.3,0.3-0.7,1
				c-0.4,0.7-0.8,1.7-1.3,2.9c-0.2,0.5-0.4,1.1-0.5,1.8c-0.2,0.3-0.3,0.7-0.5,1.1v-0.1c0-0.6-0.1-1.2,0-1.6c0.1-0.9,0.2-1.4,0.2-1.4
				s-0.2,0.5-0.5,1.4c-0.2,0.4-0.2,1-0.3,1.6c0,0.3-0.1,0.7-0.2,1c0,0.4,0,0.7,0,1.1c0,0.1,0,0.3,0,0.4c-0.1,0.3-0.2,0.6-0.2,0.8
				c-0.1-0.6-0.3-1.2-0.4-1.8c-0.2-0.9-0.4-1.8-0.4-2.7c-0.1-0.9-0.2-1.7-0.3-2.5s-0.1-1.6,0-2.3c0-0.4,0-0.7,0-1s0.1-0.6,0.1-0.9
				c0.1-0.6,0.1-1.1,0.3-1.5c0.3-0.8,0.4-1.3,0.4-1.3s-0.2,0.4-0.7,1.2c-0.3,0.4-0.4,0.9-0.6,1.4c-0.1,0.3-0.2,0.6-0.3,0.9
				c-0.1,0.3-0.2,0.7-0.3,1c-0.2,0.7-0.4,1.5-0.5,2.4c-0.1,0.8-0.2,1.7-0.3,2.7c-0.1,0.9-0.1,1.9-0.1,2.9c0,0.8,0,1.6,0,2.5
				c-0.2,0.1-0.5,0.1-0.7,0.2c0.1-0.3,0.1-0.7,0.2-0.9c0.2-0.7,0.4-1.1,0.4-1.1s-0.3,0.3-0.7,1c-0.1,0.2-0.2,0.4-0.3,0.6
				c-0.3-1-0.6-1.9-0.9-2.8c0.1-0.4,0.2-0.6,0.2-0.6s-0.1,0.2-0.3,0.5c-0.1-0.3-0.2-0.6-0.3-0.9c0.1-1.5,0.2-2.5,0.2-2.5
				s-0.2,0.6-0.5,1.5c-0.3-1.2-0.6-2.4-0.9-3.4c-0.1-0.6-0.3-1.2-0.3-1.8c-0.1-0.5-0.2-1-0.2-1.4c0-0.8,0-1.2,0-1.2
				s-0.1,0.4-0.2,1.2c-0.1,0.4-0.1,0.9-0.1,1.4c-0.1,0.6-0.1,1.2-0.1,1.9c0,2.2,0.1,5.1,0.4,8c-0.1,0.5-0.3,0.9-0.4,1.4
				c-0.8-1.2-1.9-2.7-3-4.1c0-0.6-0.1-1.1,0-1.5c0.1-0.9,0.2-1.4,0.2-1.4s-0.2,0.5-0.5,1.4c-0.1,0.3-0.2,0.6-0.2,0.9
				c-0.1-0.2-0.3-0.4-0.4-0.6c-0.8-1-1.6-2-2.4-2.9s-1.6-1.7-2.3-2.3c-0.4-0.3-0.7-0.6-1-0.8s-0.6-0.4-0.9-0.5
				c-0.5-0.2-0.8-0.3-0.8-0.3s0.3,0.1,0.8,0.4c0.2,0.2,0.5,0.4,0.8,0.6c0.3,0.2,0.6,0.6,0.9,0.9c0.6,0.7,1.4,1.5,2.1,2.5
				c0.4,0.5,0.8,1.1,1.2,1.6c0,0.2-0.1,0.4-0.1,0.6c-0.1,0.4-0.1,0.9-0.1,1.5c0,0.3,0,0.6,0,1c0,0.3,0.1,0.7,0.1,1.1
				c0,0.3,0.1,0.6,0.1,0.8c-0.7-0.4-1.4-0.8-2.2-1.2c-0.9-0.5-1.8-0.9-2.7-1.3c-0.1-0.2-0.1-0.3-0.2-0.5c-0.2-0.6-0.5-1.1-0.6-1.5
				c-0.2-0.9-0.3-1.4-0.3-1.4s0,0.5,0.1,1.4c0,0.5,0.1,1,0.2,1.6c-0.7-0.3-1.3-0.6-2-0.8c-0.8-0.4-1.7-0.6-2.5-0.8
				c-0.4-0.1-0.8-0.2-1.1-0.3c-0.4-0.1-0.7-0.1-1-0.2c-0.6-0.1-1.2-0.2-1.7-0.2c-0.9,0-1.4,0-1.4,0s0.5,0.1,1.4,0.3
				c0.4,0.1,1,0.3,1.5,0.5c0.3,0.1,0.6,0.2,0.9,0.4c0.1,0.1,0.3,0.1,0.4,0.2c-1.8-0.6-3.5-1.2-4.9-1.4c-0.6-0.1-1.2-0.1-1.7-0.1
				s-0.9,0-1.3,0.1c-0.7,0.1-1.1,0.3-1.1,0.3s0.4-0.2,1.1-0.2c0.4,0,0.8-0.1,1.3,0c0.5,0,1.1,0.1,1.6,0.2c1.7,0.4,3.7,1.1,5.8,2.1
				c-0.4-0.1-0.7-0.1-1.1-0.2c-0.4,0-0.7,0-1,0c-0.7,0-1.2-0.1-1.7,0c-0.9,0.1-1.4,0.2-1.4,0.2s0.5,0,1.4,0.1c0.4,0,1,0.2,1.6,0.3
				c0.3,0.1,0.6,0.1,1,0.2c0.3,0.1,0.7,0.2,1,0.4c0.7,0.2,1.5,0.6,2.3,0.9c0.8,0.3,1.6,0.8,2.5,1.2c0.4,0.2,0.8,0.4,1.2,0.7
				c0.1,0.1,0.1,0.3,0.2,0.4c-0.2-0.1-0.5-0.1-0.7-0.2c-0.9-0.2-1.8-0.4-2.6-0.6c-0.8-0.2-1.6-0.3-2.4-0.3c-0.4,0-0.7-0.1-1.1-0.1
				c-0.3,0-0.7,0-1,0h-0.1c-0.8-0.4-1.6-0.8-2.3-1.1c-0.9-0.4-1.7-0.7-2.2-0.9c-0.6-0.2-0.9-0.1-0.9-0.1s0.3-0.1,0.9,0.2
				c0.5,0.2,1.3,0.5,2.2,1c0.5,0.3,1,0.6,1.6,0.9c-0.2,0-0.4,0-0.6,0.1c-0.1,0-0.3,0.1-0.4,0.1h-0.1c-0.6-0.1-1.2-0.3-1.6-0.3
				c-0.9-0.1-1.4-0.1-1.4-0.1s0.5,0.1,1.4,0.4c0.4,0.1,0.9,0.4,1.5,0.6c0.3,0.1,0.6,0.3,0.9,0.4c0.3,0.2,0.5,0.3,0.8,0.5
				c-0.1,0-0.2,0-0.3,0c-0.1,0-0.3,0-0.4,0c-1.4-0.1-2.7,0-3.5,0.1c-0.4,0.1-0.7,0.3-0.9,0.4c0,0.1-0.1,0.1-0.1,0.2
				c-2.6-0.7-5.1-1.3-7.1-1.7c-1.6-0.3-3-0.6-3.9-0.7c-0.5,0-0.9-0.1-1.1,0c-0.3,0-0.4,0.1-0.4,0.1s0.1,0,0.4,0c0.3,0,0.6,0,1.1,0.1
				c0.9,0.1,2.3,0.4,3.9,0.9c1.7,0.4,3.7,1,5.8,1.7c-0.4,0-0.7,0.1-1.1,0.1c-1.1,0.1-2.1,0.3-3,0.5c-1,0.2-1.9,0.4-2.7,0.6
				c-0.8,0.2-1.6,0.4-2.2,0.6c-0.7,0.2-1.2,0.4-1.7,0.6c-0.9,0.4-1.4,0.6-1.4,0.6s0.5-0.2,1.5-0.5c0.5-0.2,1-0.4,1.7-0.5
				s1.4-0.4,2.2-0.5s1.7-0.3,2.7-0.4c1-0.1,2-0.2,3-0.3c0.8,0,1.7-0.1,2.6-0.2c1.4,0.4,2.7,0.9,4.1,1.3c0.2,0.1,0.5,0.2,0.7,0.2
				c-0.1,0-0.1,0.1-0.1,0.1s0.1,0,0.2,0c0.9,0.3,1.7,0.6,2.6,0.9c-0.6,0-1.2,0.1-1.7,0.1c-0.3,0-0.6,0.1-0.9,0.1
				c-0.2,0-0.5-0.1-0.7-0.1c-0.3,0-0.7,0-1,0c-0.6,0-1.1,0-1.6,0.1c-0.8,0.1-1.3,0.2-1.3,0.2s0.5,0,1.3,0.1c0.2,0,0.4,0,0.6,0.1
				c-0.9,0.1-1.8,0.2-2.6,0.4c-1,0.2-1.9,0.4-2.8,0.6l0,0c-1.2-0.1-2.2-0.1-2.9,0c-0.4,0-0.8,0.1-1,0.2c-0.2,0.1-0.3,0.2-0.3,0.2
				s0.1-0.1,0.3-0.2c0.2-0.1,0.6-0.1,1-0.2c0.6,0,1.4,0,2.3,0.1c-0.6,0.2-1.3,0.3-1.8,0.6c-0.4,0.1-0.7,0.2-1.1,0.4
				c-0.3,0.2-0.6,0.3-0.9,0.4c-0.6,0.3-1.1,0.5-1.4,0.8c-0.7,0.5-1.2,0.8-1.2,0.8s0.5-0.2,1.3-0.5c0.4-0.2,0.9-0.3,1.5-0.4
				c0.3-0.1,0.6-0.1,0.9-0.2c0.3,0,0.7-0.1,1.1-0.1c0.7-0.1,1.6-0.2,2.4-0.2c0.4,0,0.8,0,1.3,0c-0.1,0-0.1,0.1-0.2,0.1
				c-0.7,0.1-1.4,0.3-2,0.5c-0.4,0.1-0.7,0.2-1.1,0.3c-0.3,0.1-0.6,0.3-0.9,0.4c-0.6,0.2-1.1,0.4-1.5,0.7c-0.8,0.5-1.2,0.7-1.2,0.7
				s0.4-0.2,1.2-0.7c0.4-0.2,0.9-0.4,1.5-0.6c0.3-0.1,0.6-0.2,0.9-0.3s0.7-0.2,1.1-0.3c0.5-0.1,1-0.2,1.6-0.3l0,0c0,0,0,0,0.1,0
				c0.3,0,0.5-0.1,0.8-0.1c0.9-0.1,1.8-0.2,2.7-0.3c0.1,0,0.2,0,0.2,0c0.1,0,0.1,0,0.2,0c-0.1,0-0.2,0.1-0.3,0.1
				c-0.5,0.2-0.9,0.4-1.2,0.6c-0.6,0.4-0.9,0.8-0.9,0.7c0,0,0.3-0.3,0.9-0.7c0.3-0.2,0.7-0.4,1.2-0.5c0.2-0.1,0.5-0.1,0.7-0.2
				c0.1,0,0.3,0,0.4,0c1,0,2,0.2,3,0.3c0.2,0,0.4,0.1,0.6,0.1c0.1,0,0.1,0,0.2,0.1c-1.7,0.9-2.7,1.5-2.7,1.5s1.5-0.4,3.9-1.1
				c0.3,0.1,0.5,0.2,0.8,0.3l-0.4,0.1c0,0,0.1,0.2,0.3,0.6c-0.4,0.2-0.9,0.4-1.3,0.7c-0.2,0-0.4,0-0.6,0c-1.4,0.1-2.5,0.3-3.3,0.5
				s-1.2,0.4-1.2,0.4s0.4,0,1.2-0.1c0.3,0,0.6,0,0.9,0c-0.6,0.1-1.1,0.2-1.6,0.3c-1.4,0.3-2.5,0.7-3.3,1.1c-0.4,0.2-0.7,0.4-0.8,0.5
				c-0.2,0.1-0.2,0.2-0.2,0.2s0.4-0.3,1.2-0.5c0.1,0,0.3-0.1,0.5-0.1c0.5,0,1.6-0.1,2.9-0.2c0.1,0,0.1,0,0.2,0
				c-0.1,0.1-0.2,0.1-0.3,0.2c-0.2,0-0.5,0.1-0.7,0.1c-1,0.2-2,0.4-3,0.7s-1.9,0.5-2.8,0.8c-0.9,0.3-1.7,0.6-2.4,0.9
				c-0.4,0.2-0.7,0.3-1.1,0.5c-0.3,0.2-0.6,0.4-0.9,0.5c-0.6,0.3-1.1,0.6-1.4,0.9c-0.7,0.6-1.1,0.9-1.1,0.9s0.5-0.2,1.3-0.7
				c0.4-0.2,0.9-0.4,1.5-0.6c0.3-0.1,0.6-0.2,0.9-0.3s0.7-0.2,1.1-0.2c0.7-0.2,1.6-0.3,2.4-0.4c0.5-0.1,1-0.1,1.6-0.2
				c-0.1,0.1-0.2,0.1-0.3,0.2c-0.6,0.5-1.2,0.9-1.6,1.4c-0.5,0.5-0.9,0.9-1.3,1.3c-0.3,0.4-0.6,0.8-0.8,1.1
				c-0.3,0.7-0.5,1.1-0.5,1.1s0.3-0.3,0.7-0.9c0.2-0.3,0.6-0.5,1-0.9c0.4-0.3,0.9-0.6,1.4-0.9c0.4-0.3,1-0.5,1.5-0.8
				c0.4-0.1,0.8-0.2,1.2-0.3c0.3-0.1,0.5-0.1,0.8-0.2c-0.1,0.1-0.1,0.1-0.2,0.2c-0.4,0.2-0.8,0.4-1.2,0.7c-0.7,0.4-1.4,0.9-2,1.3
				c-0.3,0.2-0.6,0.4-0.9,0.6c-0.3,0.2-0.5,0.4-0.7,0.7c-0.4,0.4-0.8,0.7-1.1,1.1c-0.5,0.7-0.8,1.1-0.8,1.1s0.4-0.3,1-0.9
				c0.3-0.3,0.8-0.5,1.3-0.8c0.2-0.1,0.5-0.3,0.8-0.5c0,0,0.1,0,0.1-0.1c-0.2,0.2-0.3,0.4-0.4,0.6c-0.4,0.7-0.6,1-0.6,1
				s0.2-0.4,0.6-1c0.1-0.2,0.4-0.5,0.7-0.7c0.2-0.1,0.4-0.2,0.5-0.2c0.6-0.3,1.3-0.5,2-0.7c-0.4,0.4-0.8,0.7-1.2,1.1
				c-0.3,0.3-0.6,0.5-0.8,0.8s-0.5,0.6-0.7,0.8c-0.4,0.5-0.8,0.9-1,1.3c-0.5,0.8-0.7,1.3-0.7,1.3s0.3-0.4,0.9-1.1
				c0.3-0.4,0.7-0.7,1.2-1.1c0.2-0.2,0.5-0.4,0.7-0.6c0.4-0.2,0.8-0.5,1.3-0.7c1.1-0.5,2.3-1.1,3.7-1.6c0,0,0,0-0.1,0.1
				c-0.2,0.1-0.5,0.3-0.7,0.4c-0.8,0.5-1.6,1-2.3,1.5c-0.3,0.3-0.7,0.5-1,0.7c-0.3,0.3-0.6,0.5-0.9,0.8s-0.5,0.5-0.8,0.7
				c-0.2,0.3-0.4,0.5-0.6,0.8c-0.4,0.5-0.7,0.9-0.9,1.3c-0.4,0.8-0.6,1.2-0.6,1.2s0.3-0.4,0.9-1c0.2-0.3,0.7-0.6,1.1-1
				c0.2-0.2,0.5-0.4,0.7-0.6c0.3-0.2,0.6-0.3,0.9-0.5c0.3-0.2,0.6-0.4,1-0.6c0.4-0.2,0.7-0.3,1.1-0.5s0.8-0.4,1.2-0.5
				c-0.2,0.3-0.3,0.5-0.5,0.8c-0.1,0.1-0.2,0.1-0.3,0.2c-0.6,0.5-1.2,0.9-1.7,1.4c-0.1,0.1-0.1,0.1-0.2,0.2c-1.5,1.2-2.9,2.4-4,3.4
				c-0.5,0.5-1,0.9-1.3,1.3c-0.4,0.4-0.7,0.7-1,1.1c-0.5,0.6-0.7,1-0.7,1s0.3-0.3,0.9-0.8c0.3-0.2,0.7-0.5,1.2-0.8
				c0.4-0.3,1-0.6,1.5-0.9c0.9-0.5,2-1.1,3.1-1.6c-0.5,0.9-0.8,1.4-0.8,1.4s0.6-0.7,1.7-1.8c0.3-0.1,0.6-0.3,0.9-0.4
				c-0.1,0.3-0.2,0.5-0.2,0.5s0.1-0.2,0.3-0.6c0.7-0.3,1.3-0.6,2-0.9c-0.1,0.1-0.2,0.2-0.3,0.3c-1.8,1.3-3.5,2.5-4.8,3.6
				c-0.5,0.4-1,0.8-1.4,1.2c-0.4,0.4-0.7,0.7-1,1c-0.5,0.6-0.8,0.9-0.8,0.9s0.3-0.3,0.8-0.9c0.3-0.3,0.6-0.6,1.1-0.9
				c0.4-0.4,0.9-0.7,1.4-1.1c1-0.8,2.3-1.6,3.6-2.5c-0.1,0.2-0.2,0.4-0.2,0.4s0.2-0.2,0.6-0.5c0.2-0.2,0.4-0.3,0.8-0.5
				c0.2-0.1,0.3-0.2,0.5-0.3c-0.1,0.4-0.1,0.7-0.1,0.7s0.1-0.3,0.4-0.8c0.1,0,0.2-0.1,0.3-0.1c0.2-0.1,0.5-0.1,0.7-0.2
				c-0.6,0.5-1.2,1-1.7,1.6c-0.7,0.7-1.4,1.3-2,2s-1.2,1.3-1.8,2c-0.6,0.6-1,1.3-1.4,1.9c-0.2,0.3-0.4,0.6-0.6,0.9
				c-0.2,0.3-0.3,0.6-0.4,0.9c-0.3,0.5-0.5,1-0.6,1.4c-0.3,0.8-0.4,1.3-0.4,1.3s0.2-0.4,0.7-1.2c0.2-0.4,0.5-0.8,0.9-1.2
				c0.2-0.2,0.4-0.5,0.6-0.7s0.5-0.5,0.7-0.7c0.5-0.5,1.1-1,1.7-1.5c0.6-0.5,1.3-1,2.1-1.5c0.7-0.5,1.5-1,2.3-1.5
				c0.6-0.4,1.2-0.7,1.8-1c-0.2,0.1-0.4,0.3-0.5,0.4c-0.7,0.6-1.4,1.2-2.1,1.9c-0.7,0.6-1.3,1.2-1.8,1.9c-0.6,0.6-1.1,1.2-1.5,1.8
				c-0.2,0.3-0.4,0.6-0.6,0.8c-0.2,0.3-0.3,0.6-0.5,0.8c-0.3,0.5-0.6,0.9-0.7,1.4c-0.3,0.8-0.5,1.2-0.5,1.2s0.2-0.4,0.5-1.2
				c0.1-0.4,0.4-0.8,0.8-1.3c0.2-0.2,0.3-0.5,0.5-0.8s0.4-0.5,0.7-0.8c0.4-0.6,1-1.1,1.6-1.7c0.6-0.6,1.2-1.2,1.9-1.8
				c0.7-0.6,1.4-1.2,2.2-1.7c0.5-0.4,1.1-0.8,1.7-1.3c-0.3,1.8-0.4,2.9-0.4,2.9s0.6-1.4,1.5-3.6c0.7-0.5,1.5-1,2.2-1.5
				c0.1-0.1,0.3-0.1,0.4-0.2c0,0.1-0.1,0.2-0.1,0.4c-0.6,0.7-1.2,1.3-1.7,2c-0.6,0.6-1,1.3-1.4,1.9c-0.2,0.3-0.4,0.6-0.6,0.9
				c-0.2,0.3-0.3,0.6-0.4,0.9c-0.3,0.5-0.5,1-0.6,1.4c-0.2,0.7-0.4,1.2-0.4,1.2c-0.2,0.3-0.4,0.5-0.5,0.8c-0.7,1.1-1.2,2.1-1.4,2.8
				c-0.3,0.7-0.3,1.1-0.3,1.1s0.1-0.4,0.4-1.1c0.3-0.7,0.9-1.6,1.6-2.6c0.8-1,1.7-2.2,2.8-3.4c0.5-0.5,1-1,1.5-1.5
				c0,0.1-0.1,0.2-0.1,0.4c-0.5,1-0.9,1.8-1.1,2.5c-0.2,0.7-0.3,1.2-0.3,1.2s0.1-0.3,0.4-0.9c-0.1,0.2-0.2,0.5-0.2,0.7
				c-0.5,1.3-1,2.3-1.3,3c-0.4,0.7-0.7,1-0.7,1s0.3-0.3,0.9-0.9c0.5-0.6,1.2-1.5,2-2.7c0.9-1.3,1.8-2.9,2.8-4.6c0,0,0,0,0.1-0.1
				c-0.5,1.6-1,3.1-1.5,4.4c-0.3,0.8-0.6,1.5-0.9,2.1c-0.2,0.3-0.5,0.5-0.6,0.8c-0.5,0.8-0.8,1.2-0.8,1.2s0.3-0.4,0.8-1.2
				c0.1-0.1,0.2-0.3,0.4-0.4c-0.1,0.2-0.2,0.3-0.2,0.5c-0.4,0.7-0.7,1-0.7,1s0.3-0.3,0.9-0.9c0.3-0.4,0.7-0.9,1.1-1.4
				c-0.2,0.5-0.4,1-0.6,1.4c-0.2,0.6-0.3,1.1-0.4,1.6c-0.2,0.5-0.1,0.9-0.2,1.3c-0.1,0.7-0.1,1.1-0.1,1.1s0.1-0.4,0.2-1.1
				c0.1-0.3,0.1-0.8,0.3-1.2c0.2-0.5,0.3-1,0.5-1.5c0.3-0.5,0.5-1.1,0.8-1.7c0.3-0.4,0.5-0.8,0.8-1.3c0.3-0.3,0.6-0.5,1-0.8
				c-0.1,0.3-0.2,0.5-0.2,0.7c-0.1,0.4-0.5,0.6-0.5,0.6s0-0.2,0-0.4c0,0.1,0,0.2-0.1,0.4c0,0.3,0.1,0.5,0.1,0.8
				c-1.7,2.3-2.7,3.9-2.7,3.9s1-0.8,2.5-2.1c-0.1,0.5-0.1,0.9-0.1,0.9s0.1-0.3,0.2-0.9l0.1-0.1c-0.1,0.6-0.1,1-0.1,1
				s0.2-0.5,0.5-1.3c1-0.8,2.1-1.9,3.3-3c-0.1,0.2-0.1,0.3-0.1,0.3c-2.2,3.2-3.9,5.4-3.9,5.4s2.3-1.9,5.3-4.6
				c-0.1,0.3-0.3,0.6-0.4,0.9c-0.6,1.2-0.9,2.3-1.2,3.1c-0.1,0.2-0.2,0.4-0.3,0.6c-0.4,0.7-0.6,1.2-0.8,1.6
				c-0.2,0.4-0.3,0.6-0.3,0.6s0.1-0.2,0.3-0.6c0.2-0.3,0.5-0.8,0.9-1.4c-0.1,0.3-0.1,0.4-0.1,0.4s0.2-0.3,0.4-0.9
				c0.3-0.4,0.6-0.8,0.9-1.2c-0.2,0.6-0.5,1.2-0.7,1.6c-0.3,0.7-0.6,1-0.6,1s0.4-0.3,0.8-0.8s0.9-1.2,1.4-2.1
				c-0.4,1.4-0.6,2.3-0.6,2.3s0.3-1.1,0.8-2.8c0,0,0-0.1,0.1-0.1c0.3-0.5,0.6-1.1,0.8-1.6c0,0.2,0,0.4-0.1,0.6
				c0,0.4-0.1,0.7-0.1,1.1c0,0.1-0.1,0.1-0.1,0.2c-0.4,0.7-0.7,1-0.7,1s0.2-0.2,0.7-0.6c0,0.2-0.1,0.4-0.1,0.6
				c-0.1,0.3-0.1,0.7-0.2,1s-0.2,0.6-0.3,0.9c-0.2,0.5-0.3,1-0.6,1.4c-0.4,0.7-0.6,1.2-0.6,1.2s0.3-0.4,0.9-1
				c0.3-0.3,0.6-0.8,0.9-1.3c0.2-0.3,0.3-0.5,0.5-0.8c0.1-0.2,0.2-0.4,0.3-0.6c0.4-0.5,0.7-1.1,1.1-1.8c0.3-0.5,0.6-1.1,0.8-1.6
				c0,0.2,0,0.4-0.1,0.6c-0.1,0.8-0.2,1.6-0.4,2.3c-0.1,0.3-0.1,0.7-0.2,1c-0.1,0.3-0.2,0.6-0.3,0.9c-0.2,0.5-0.3,1-0.6,1.4
				c-0.4,0.7-0.6,1.2-0.6,1.2s0.3-0.4,0.9-1c0.3-0.3,0.6-0.8,0.9-1.3c0-0.1,0.1-0.2,0.1-0.2c0,0.2,0,0.4-0.1,0.6
				c-0.2,1.6-0.5,3-0.9,4.2c-0.3,1.2-0.7,2.2-1.1,2.9c-0.3,0.7-0.6,1-0.6,1s0.4-0.3,0.8-0.8c0.5-0.6,1.1-1.5,1.8-2.6
				c0.5-1,1.1-2.2,1.6-3.4c0,0.3-0.1,0.6-0.1,0.9c-0.1,0.6-0.1,1.2-0.3,1.6c-0.3,0.9-0.4,1.4-0.4,1.4s0.3-0.5,0.7-1.3
				c0.3-0.4,0.4-0.9,0.6-1.6c0.1-0.3,0.2-0.6,0.3-1c0.1-0.4,0.2-0.7,0.2-1.1c0.2-0.7,0.3-1.5,0.4-2.3v0.1c0,0.9,0.1,1.9,0.1,2.8
				c0,0.9,0,1.9,0,2.7c0,0.9-0.1,1.7-0.2,2.5c-0.1,0.8-0.2,1.6-0.4,2.3c-0.1,0.3-0.1,0.7-0.2,1s-0.2,0.6-0.3,0.9
				c-0.2,0.5-0.3,1-0.6,1.4c-0.4,0.7-0.6,1.2-0.6,1.2s0.3-0.4,0.9-1c0.3-0.3,0.6-0.8,0.9-1.3c0.2-0.3,0.3-0.5,0.5-0.8
				c0.1-0.3,0.3-0.6,0.4-1c0.3-0.7,0.6-1.4,0.9-2.2s0.5-1.7,0.8-2.6c0.3-0.9,0.4-1.8,0.7-2.8c0.2-0.8,0.3-1.5,0.4-2.3
				c0.1,0.2,0.1,0.5,0.2,0.7c0,0.1,0,0.2,0.1,0.3c-0.3,0.5-0.5,0.7-0.5,0.7s0.2-0.1,0.5-0.5c0,0.2,0,0.4,0.1,0.6
				c0,0.3,0.1,0.6,0,0.9c-0.1,0.5-0.1,0.8-0.1,0.8s0.1-0.3,0.4-0.7c0.1-0.2,0.2-0.5,0.3-0.9c0.1-0.2,0.1-0.5,0.2-0.8
				c0.1,0.7,0.2,1.5,0.3,2.2c-0.2,0.4-0.3,0.6-0.3,0.6s0.1-0.1,0.3-0.4c0,0.3,0.1,0.6,0.1,1c-0.4,1.5-0.7,2.4-0.7,2.4
				s0.3-0.5,0.8-1.4c0.1,1.2,0.2,2.4,0.2,3.5c0,0.7,0.1,1.3,0,1.8c0,0.5,0,1-0.1,1.4c-0.1,0.8-0.2,1.2-0.2,1.2s0.2-0.4,0.5-1.2
				c0.1-0.4,0.2-0.8,0.4-1.4c0.2-0.5,0.3-1.1,0.4-1.8c0.4-2.2,0.8-5,1.1-8c0.1-0.1,0.2-0.3,0.2-0.5c0.2,0.5,0.3,0.9,0.5,1.3
				c0,0.2,0.1,0.5,0.1,0.7c0,0.4,0,0.8,0,1.1c0,0.4,0,0.7,0,1s-0.1,0.6-0.1,0.9c-0.1,0.6-0.1,1.1-0.3,1.5c-0.3,0.8-0.4,1.3-0.4,1.3
				s0.2-0.4,0.7-1.2c0.3-0.4,0.4-0.9,0.6-1.5c0.1-0.3,0.2-0.5,0.3-0.8c0.1,0.2,0.1,0.5,0.2,0.7c0.1,0.8,0.1,1.2,0.1,1.2
				s0.1-0.5,0.1-1.2c0-0.6,0-1.5-0.1-2.6c0-0.1,0-0.3,0.1-0.4c0-0.4,0.1-0.8,0.1-1.2c0.1-0.6,0.1-1.2,0.1-1.8
				c0.2,0.5,0.4,1.1,0.6,1.6v0.1c0,0.2,0,0.3,0.1,0.5c0,0.5,0.1,1,0.1,1.5c0,0.3-0.1,0.7-0.1,1c-0.1,0.6-0.1,1.2-0.3,1.6
				c-0.3,0.9-0.4,1.4-0.4,1.4s0.3-0.5,0.7-1.3c0.3-0.4,0.4-0.9,0.6-1.6c0-0.1,0.1-0.3,0.1-0.4c0,0.1,0.1,0.2,0.1,0.4
				c0.1,0.8,0.1,1.2,0.1,1.2s0.1-0.5,0.1-1.2c0-0.4,0-1,0-1.6c0-0.1,0.1-0.3,0.1-0.4c0-0.1,0-0.2,0.1-0.3c0.2,0.4,0.5,0.8,0.7,1.2
				c0,0.2,0.1,0.4,0.1,0.7s0,0.6,0,0.9c0,0.6,0.1,1.1,0,1.5c-0.1,0.8-0.2,1.3-0.2,1.3s0.4-0.4,0.7-1.2c0.2-0.4,0.5-0.9,0.6-1.5
				c0,0,0,0,0-0.1c-0.1,0.8-0.2,1.3-0.2,1.3s0-0.4,0.1-1.1c0.1,0.1,0.1,0.3,0.1,0.4c0.1,0.2,0.1,0.3,0.2,0.5
				c-0.1,0.4-0.2,0.7-0.2,0.7s0.1-0.2,0.3-0.5c0.2,0.4,0.3,0.8,0.4,1c0.2,0.4,0.3,0.7,0.3,0.7s0-0.3,0-0.7c0-0.5,0-1.1,0-1.9
				c0-0.1,0-0.3,0-0.4c0.1-0.2,0.1-0.3,0.2-0.5c0.1-0.3,0.2-0.6,0.3-0.9c0,0.8,0.1,1.3,0.1,1.3s0.3-1.7,0.8-4.2
				c0.2,0.3,0.3,0.6,0.4,0.9c0.2,0.4,0.4,0.8,0.5,1.2c0,1.4-0.1,2.3-0.1,2.3s0.1-0.8,0.2-2c0.1,0.3,0.2,0.5,0.3,0.8
				c0.1,0.4,0.3,0.7,0.4,1c0.1,0.3,0.2,0.7,0.2,1c0.1,0.6,0.3,1.2,0.3,1.6c0.1,0.9,0.1,1.4,0.1,1.4s0.1-0.5,0.2-1.4
				c0.1-0.5,0-1,0-1.7c0-0.3,0-0.7,0-1c-0.1-0.4-0.1-0.7-0.2-1.1c-0.1-0.8-0.3-1.7-0.5-2.5c-0.1-0.4-0.2-0.7-0.3-1.1l0.1,0.1
				c0.4,0.9,0.6,1.7,0.7,2.2c0.2,0.7,0.2,1.2,0.2,1.2s0.1-0.4,0.1-1.2c0-0.1,0-0.3,0-0.4c0.1,0.3,0.2,0.7,0.4,1
				c0.2,0.6,0.3,1.2,0.5,1.8c0.1,0.6,0.1,1.1,0.2,1.6c0.1,0.5,0,0.9,0,1.2c0,0.7-0.1,1.1-0.1,1.1s0.1-0.4,0.3-1.1
				c0.1-0.3,0.3-0.8,0.3-1.3c0.1-0.5,0.2-1.1,0.2-1.7c0-0.2,0-0.4,0-0.7c0.2,0.3,0.3,0.6,0.4,0.8c0.3,0.8,0.5,1.3,0.5,1.3
				s-0.1-0.5-0.3-1.4c0-0.3-0.1-0.6-0.3-0.9c0-0.2,0-0.4,0-0.8c0-0.4-0.1-0.9-0.1-1.5c0-0.3-0.1-0.6-0.1-1c-0.1-0.2-0.1-0.4-0.2-0.6
				c0-0.6-0.1-1.3-0.2-2.1c0-0.1-0.1-0.3-0.1-0.5c0.1,0.1,0.2,0.2,0.2,0.3c0.5,0.7,0.9,1.2,1.2,1.6c0.1,0.2,0.2,0.3,0.3,0.4
				c0.1,0.2,0.1,0.4,0.2,0.6c0.2,0.5,0.4,1,0.4,1.4c0.2,0.8,0.2,1.3,0.2,1.3s0-0.5,0-1.3c0-0.4-0.1-0.9-0.1-1.5c0-0.1,0-0.2,0-0.3
				c0.1,0.2,0.2,0.3,0.3,0.5c0.8,1.4,1.5,2.7,2,3.8c0.5,1.2,0.8,2.2,1,2.9s0.2,1.2,0.2,1.2s0.1-0.4,0.1-1.2s-0.1-1.9-0.3-3.2
				c-0.1-0.6-0.2-1.2-0.4-1.8c0-0.4,0-0.8-0.1-1.2c0,0,0,0.1,0.1,0.1c0.3,0.5,0.6,1,0.8,1.4c0.3,0.8,0.5,1.3,0.5,1.3
				s-0.1-0.5-0.3-1.4c-0.1-0.5-0.3-1-0.5-1.6c-0.1-0.3-0.2-0.6-0.4-1c-0.2-0.3-0.3-0.7-0.5-1c-0.1-0.1-0.1-0.2-0.2-0.3
				c-0.1-0.3-0.1-0.6-0.2-0.9c0.4,0.4,0.8,0.9,1.2,1.4c0.6,0.7,1.2,1.4,1.7,2.1c0.5,0.7,1,1.4,1.5,2.1c0.5,0.7,0.8,1.3,1.1,2
				c0.2,0.3,0.3,0.6,0.5,0.9c0.1,0.3,0.2,0.6,0.3,0.9c0.2,0.5,0.4,1,0.4,1.4c0.2,0.8,0.2,1.3,0.2,1.3s0-0.5,0-1.3
				c0-0.4-0.1-0.9-0.1-1.5c0-0.3-0.1-0.6-0.1-1c-0.1-0.3-0.2-0.7-0.3-1c-0.2-0.7-0.4-1.5-0.7-2.3s-0.6-1.6-1-2.5
				c-0.4-0.9-0.8-1.7-1.3-2.6c-0.3-0.7-0.7-1.4-1.1-2.1c0.2,0.1,0.4,0.3,0.6,0.4c0.1,0.1,0.1,0.1,0.2,0.2c0.1,0.5,0.1,0.9,0.1,0.9
				s0.1-0.2,0.1-0.7c0.2,0.1,0.3,0.3,0.4,0.4c0.2,0.2,0.4,0.5,0.6,0.7c0.3,0.4,0.4,0.7,0.4,0.7s-0.1-0.3-0.2-0.8
				c0-0.3-0.1-0.6-0.3-0.9c-0.1-0.2-0.2-0.5-0.4-0.8c0.5,0.5,1.1,1,1.6,1.5c0.1,0.4,0.1,0.7,0.1,0.7s0-0.2,0-0.5
				c0.2,0.2,0.5,0.4,0.7,0.7c0.6,1.4,1,2.3,1,2.3s-0.1-0.6-0.3-1.5c0.9,0.9,1.7,1.8,2.4,2.5c0.4,0.5,0.8,1,1.2,1.4
				c0.3,0.4,0.6,0.8,0.8,1.1c0.4,0.7,0.6,1.1,0.6,1.1s-0.1-0.4-0.4-1.2c-0.1-0.4-0.3-0.8-0.6-1.3c-0.2-0.5-0.5-1.1-0.8-1.7
				c-1-2-2.6-4.4-4.2-6.9c-0.1-0.3-0.1-0.6-0.2-1c0.3,0.3,0.7,0.6,1,0.9c0.3,0.3,0.6,0.6,0.9,0.8c0.3,0.3,0.5,0.6,0.7,0.8
				c0.2,0.3,0.5,0.5,0.7,0.8s0.3,0.5,0.5,0.8c0.3,0.5,0.6,0.9,0.7,1.3c0.3,0.8,0.5,1.2,0.5,1.2s-0.1-0.5-0.2-1.3
				c0-0.4-0.3-0.9-0.5-1.5c-0.1-0.3-0.2-0.6-0.3-0.9c-0.2-0.3-0.3-0.6-0.5-0.9c-0.2-0.3-0.4-0.7-0.6-1c-0.2-0.3-0.5-0.7-0.7-1
				c-0.5-0.7-1-1.4-1.6-2.2c-0.2-0.3-0.5-0.6-0.7-0.8c1.2,1,2.3,1.9,3.1,2.8c0.4,0.4,0.7,0.8,1,1.1c0.2,0.3,0.3,0.6,0.5,0.8
				c0.3,0.5,0.6,1,0.8,1.4c0.3,0.8,0.5,1.3,0.5,1.3s-0.1-0.5-0.3-1.4c-0.1-0.5-0.3-1-0.5-1.6c-0.1-0.3-0.2-0.6-0.4-1
				c-0.2-0.3-0.3-0.7-0.5-1c-0.2-0.5-0.5-0.9-0.7-1.4c0.6,0.4,1.2,0.9,1.6,1.4c0.3,0.2,0.5,0.5,0.8,0.7c0.2,0.2,0.4,0.5,0.6,0.7
				c0.4,0.4,0.7,0.8,0.9,1.2c0.4,0.7,0.7,1.1,0.7,1.1s-0.2-0.5-0.4-1.3c-0.1-0.4-0.4-0.9-0.7-1.4c-0.1-0.3-0.3-0.5-0.5-0.8
				s-0.4-0.6-0.6-0.9c-0.4-0.6-0.9-1.3-1.5-1.9c-0.4-0.5-0.8-0.9-1.3-1.4c0.4,0.2,0.7,0.4,1,0.6c0.4,0.2,0.7,0.5,1,0.7
				c0.4,0.4,0.9,0.8,1.2,1.2c0.4,0.5,0.8,0.9,1.1,1.4c0.3,0.4,0.6,0.8,0.7,1.2c0.3,0.7,0.4,1.1,0.4,1.1s0-0.4-0.1-1.2
				c0-0.4-0.2-0.8-0.4-1.3c-0.1-0.5-0.5-1-0.8-1.7c-0.3-0.6-0.7-1.2-1.1-1.9c-0.1-0.1-0.1-0.2-0.2-0.3c0.5,0.2,1,0.4,1.5,0.7
				c0.8,0.4,1.5,0.8,2.2,1.2c0.3,0.2,0.6,0.4,0.9,0.6c0.3,0.2,0.5,0.4,0.8,0.6c0.5,0.4,1,0.7,1.2,1.1c0.6,0.7,1,1.1,1,1.1
				s-0.3-0.4-0.8-1.2C812.6,384.9,812.2,384.5,811.8,384z M749.4,354.4L749.4,354.4c0.3,0,0.6,0.1,0.8,0.1c-0.1,0-0.2,0.1-0.3,0.1
				c-0.3,0-0.5,0-0.8,0c-0.4,0-0.8,0-1.1,0.1c0.1,0,0.2-0.1,0.3-0.1C748.6,354.5,748.9,354.5,749.4,354.4L749.4,354.4z M754.5,357.3
				c0.1,0,0.1,0.1,0.2,0.1c-0.7-0.2-1.4-0.4-2-0.6c0.4,0,0.9,0,1.4,0.1C754.2,357.1,754.4,357.2,754.5,357.3z M782.2,348.5
				L782.2,348.5c0,0.1,0,0.3-0.1,0.4l0,0c0,0.1-0.1,0.2-0.1,0.3C782,348.9,782.1,348.7,782.2,348.5z M766.9,354
				c-0.3-0.1-0.5-0.2-0.8-0.4c-0.2-0.7-0.4-1.3-0.6-1.9c0-0.1,0-0.1,0-0.2C766,352.4,766.5,353.3,766.9,354z M762.8,347.7
				c0-0.2,0-0.3,0-0.4c0.3,0.4,0.5,0.8,0.8,1.2c0.3,0.5,0.6,0.9,0.9,1.4c0,0.1,0,0.3-0.1,0.4c0,0.4,0,0.7,0,1.1c0,0.5,0,0.9,0,1.4
				h-0.1c-0.3-0.6-0.5-1.2-0.7-1.8c-0.1-0.3-0.2-0.7-0.3-1c-0.1-0.3-0.1-0.6-0.2-0.9C762.9,348.6,762.8,348.1,762.8,347.7z
				 M754,354.1c-0.2,0-0.4,0-0.5,0c-0.3-0.2-0.7-0.4-1-0.5C753,353.7,753.5,353.8,754,354.1z M751.4,353.6c-0.2-0.1-0.5-0.2-0.7-0.2
				c-0.4-0.1-0.7-0.3-1.1-0.4c0.3,0,0.6,0.1,0.9,0.1l0,0C750.9,353.2,751.1,353.4,751.4,353.6z M745.1,354.7
				c0.2-0.1,0.5-0.3,0.9-0.3c0.7-0.1,1.7-0.1,2.8,0c-0.2,0-0.4,0.1-0.6,0.2c-0.1,0.1-0.3,0.1-0.4,0.2c-0.7,0-1.4,0.1-2.1,0.1
				c-0.2,0-0.4,0-0.6,0.1c-0.1,0-0.1,0-0.2-0.1C745,354.8,745,354.8,745.1,354.7z M747.4,355.5c0.6,0,1.2,0,1.8,0c1,0,2,0,3,0
				c0.1,0,0.1,0.1,0.2,0.1c0.2,0.2,0.5,0.3,0.7,0.5c-0.6,0.1-1.2,0.3-1.6,0.4c-0.6-0.2-1.2-0.3-1.8-0.5
				C748.8,355.9,748.1,355.7,747.4,355.5z M748.2,372.9L748.2,372.9C748.3,372.9,748.2,372.9,748.2,372.9L748.2,372.9z M753.2,385.4
				c-0.8,0.9-1.4,1.8-2,2.7c0.1-0.2,0.3-0.5,0.6-1.1c0.2-0.4,0.5-0.8,0.9-1.2c0.2-0.2,0.4-0.5,0.6-0.7s0.5-0.5,0.7-0.7
				c0.1-0.1,0.3-0.3,0.4-0.4C754,384.5,753.6,385,753.2,385.4z M758.2,387.5c0.2-0.2,0.4-0.5,0.6-0.7c0,0.1,0,0.2-0.1,0.4
				C758.5,387.3,758.3,387.4,758.2,387.5z M760.3,386.5c0.1-0.1,0.2-0.2,0.4-0.2c-0.2,0.4-0.5,0.7-0.7,1
				C760.1,387,760.2,386.8,760.3,386.5z M761.9,387.9C762,387.9,762,387.9,761.9,387.9l-0.1,0.1C761.9,388,761.9,388,761.9,387.9z
				 M790.2,396.9L790.2,396.9c0-0.1-0.1-0.3-0.2-0.4l0,0c0-0.1,0-0.2,0-0.3C790.1,396.4,790.2,396.6,790.2,396.9z"/>
		</g>
		<g id="XMLID_84_">
			<path id="XMLID_95_" class="st16" d="M801.4,291.5c1.5-12.1-11.4-50.7-13.7-62.3c-2-10-14.2-50-24.9-63.4c3.8,8.3,5,24,5.2,26.3
				c-5.1-18-14.3-31.4-21.1-37.7c2.5,5.5,7.7,12.2,7.2,18.7c-3.1-3.8-5.9-9.7-12.3-12.7c2.8,4.1,3.5,9.9,4.3,12.5
				c-5-6.5-12.8-14.1-20.1-17.9c6.7,6.2,11.2,13.4,15.9,18.9c-4.6-1.6-9.8-2.4-14.8-3.2c5.4,2.5,10.4,5.7,15.2,9.4
				c-4.3-1.9-13.7,0.6-14.9,4.3c6.1-2.3,10.8-2.3,16-1c3.3,0.8-5,2.7-3.4,11.7c1.6-5,6.1-9.5,10.5-10c-5.5,5.7-5.7,15.6-4,21.1
				c1.6-4,2.8-8.3,10.5-9.4c-1.3,3-6,4.2-5.7,10c5.8-3.2,9.9-0.8,12.6,3.7c-5.9-2-10.6-0.4-16.2,3.4c6.2-0.6,11.1,1.1,15.3,4.3
				c-5,0.8-9.8,1.6-13.9,5.8c5.8-1,12.7-1.7,17.7,2.8c-4.1-1.6-10.3,0.7-11.9,2.1c3.7,0.1,6.9-0.7,10.3,2.1
				c-2.9-0.6-5.1-0.5-7.5,2.6c5.4-0.9,15,6,12.6,5.4c-5-1.2-9.2,2.2-10,5.4c5.9-3.7,10.6,0.9,14.1,4.3c-0.9,0.3-4.1,0.2-6.2,2
				c4.1,1.1,7.7,4.3,10.3,6.3c-3.5-0.8-9.2,1.1-10.4,5.8c5.7-3.9,9-2.1,13.1-1.1c1.8,1.6-1.5,5.6-6.5,7.9
				c13.9-0.4,18.6,15.2,19.2,20.9C794.3,295.9,799.9,303.5,801.4,291.5z"/>
			<path id="XMLID_94_" class="st16" d="M705.1,189.4c10.7,6.9,18,17,20.1,22.2c-8.2-9.1-15.2-11.1-22.3-12.8
				c5.3,3.3,15.3,8.6,20,16.7c-9.3-6.5-23.6-11-29.9-7.7c6.4,1.1,12.8,3.2,16.5,4.8c-3.4-0.5-10.8-0.1-12.9,1.9
				c8,0.3,14.6,3,22.1,7.2c-9.2-2.3-16.9-1-21.6,0.1c8.3,0.1,20.3,4,24.3,7.7c-10-1.3-21.1,0.6-25.6,8.4c10.6-4,22.4-2,33.4,3.8
				c-4.4,0.5-8.8,3-10.3,5c6.1-0.5,15.6,2.3,21.7,5.3c-1.9-0.1-5.2,0.5-7.5,1.4c4.9,1.1,7.9,1,13.2,4.4c-3,0.4-7.6,1-9.3,2.3
				c5.2,0.5,15.5,4,21.3,7.3c-4.4-1.2-7.9,0.4-9.4,1.2c6.5,0.8,15.3,6.6,20.9,9.3c-5.1-0.8-8.3-0.4-9.9,1.4c9.4,0.9,21,12.2,26.8,17
				c5.4,4.5,15.1,15.3,11.4,2.9C794.6,287.2,770.1,223.1,705.1,189.4z"/>
			<path id="XMLID_93_" class="st16" d="M927.4,266.2c-9.2-1.9-18.9,0.7-23.1,3.2c9.4-1.3,13.9,1.7,18.1,5c-4.5-1-12.3-3.5-19.6-0.8
				c8.4,1.3,17.6,7.2,18.4,13.5c-3.5-3.3-7.8-5.9-10.5-7c1.9,1.8,5,6.8,4.7,9.5c-3.8-4.9-8.5-7.2-14.6-8.9c5.7,4.2,8.3,10,9.7,13.8
				c-3.8-5.2-11.7-10.1-15.8-10c5.3,5.4,9.1,13.9,6.2,22.2c-2.3-9.5-8.9-15.7-17.5-18.5c1.7,3.1,2,7.7,1.5,10.1
				c-2.5-4.2-8.6-8.3-13.2-10c1,1.1,2.1,3.7,2.5,5.7c-2.9-2.3-4.2-4.3-8.8-5.2c1.1,2.3,2.8,5.6,2.7,7.6c-2.7-2.9-9.5-7-14.2-8.3
				c2.8,1.9,3.3,5.2,3.5,6.9c-3.4-3.6-11.1-5.1-15.3-6.7c2.8,2.7,4,5,3.6,7.3c-4.8-5.3-17.2-4.6-22.8-4.9c-5.3-0.3-16.5,1.4-7-5.2
				C825,279.3,876.7,249.1,927.4,266.2z"/>
			<path id="XMLID_91_" class="st16" d="M790.5,294.5c-18.3-51.7-40.8-70.7-53-78.2c-7.1-4.4-19.5-13.2-28.9-10.8
				c6.8,2.3,13.2,5.4,18.4,10.1c-13.5-4-23-3.2-30.6,4.4c4.8-1,8.8-3.4,12.8-2.1c-6.9,1.5-16.5,7.2-23.9,16.4
				c4.1-2.3,9.8-6,16.4-5.8c-4.7,1.8-8.5,6.1-10.7,7.7c8-4.9,18.3-6.3,24.7-6.1c-3.3,0.8-7.3,3-9,5.1c3.9-1.6,13.8-1.7,17.8-1.4
				c-3.1,1.5-5.3,3.2-6.7,6.6c3.6-3.2,10.8-4,15.4-2.4c-5,1-8.3,2.8-11.8,7.4c6.4-3.3,16.8-6.7,25.8-4.9c-9.2,2.6-17.2,6-22.9,11.9
				c6.9-2.9,17.7-5,24.3-3.1c-7,2.9-14.8,7.5-19.9,13.7c7.4-4,19.3-7.9,26-7.1c-4,0.8-9.7,4.6-14.3,9.3c6-2.2,10.9-4.2,16.4-2
				c-3.4,1.3-5.8,3.3-8.4,6.1c19.4-1.6,25.2,8.4,28.9,10.5c-6.7-3.8-14-5.5-18.3-3.6c14.9,3.2,19.7,14.5,22,18.2
				C787.2,304.5,797.5,314.5,790.5,294.5z"/>
			<path id="XMLID_89_" class="st16" d="M798.2,284.7c-2.8-73.8,16.9-106.2,29-120.3c7.1-8.2,18.8-23.9,32.4-24
				c-7.8,5.4-14.6,11.6-19,19.5c15.7-9.8,28.6-12.1,42.5-4.7c-6.7,0.4-13.3-1.4-17.9,1.7c9.8-0.4,25.3,3.7,39.9,13.1
				c-6.6-1.5-16-4.4-24.5-1.9c7,0.7,14.3,5,18,6.4c-13.1-3.7-27.3-1.9-35.6,0.5c4.8-0.2,11.2,1.3,14.5,3.5c-6-0.9-19,2.5-24.1,4.3
				c4.8,1,8.6,2.3,12.2,6.3c-6.4-2.9-16.3-1.5-21.5,2.2c7.1-0.4,12.4,0.8,19.3,5.6c-10.1-2.1-25.6-3-36.3,2.5
				c13.4,0.2,25.6,1.9,36.2,7.6c-10.6-1.3-25.8-0.5-33.6,4.3c10.6,1.4,23.2,4.7,33.2,11c-11.7-2.8-29.4-3.6-37.8-0.4
				c5.7-0.3,15.1,2.6,23.5,7.2c-8.9-0.8-16.4-1.8-22.5,3c5.1,0.5,9.3,2.3,14.2,5c-26.3,4.6-16.9,11.7-10.1,12.7
				c-17.9,9.2-18.3,25.6-19.5,31.3C807.7,296.6,799.3,313.2,798.2,284.7z"/>
			<path id="XMLID_88_" class="st16" d="M810.3,269.1c1.2-6.5,11.2-43.4,24.7-58.5c7-7.7,13.5-14.5,21.8-21.2
				c9.1-7.4,23.7-7.9,32.3-14.1c-4.7,6.5-12.5,9.1-19.6,13c11.3-1.8,30.7-4.8,40.7-8.2c-10,9.6-29.2,10.1-41,14.3
				c7.2,1.5,13.3,1.5,27.9,0.5c-8.9,3.8-17.6,3.8-21.9,4.5c3.4,2,7.7,2.6,11.4,2.1c-7.8,4.3-18.9,2.9-26.2,1.8c7,5,17,6.8,23.3,6.3
				c-12,3.7-22.8-1.5-29.1,0.2c3.9,2.3,14.6,4.8,21.1,5.5c-6.2,1.1-13.2,2.5-21.4,1c3.9,2,6.4,2.5,10.4,3.1
				c-3.8,2-13.3,3.3-17.5,1.6c4.4,2.7,10.6,1.3,18.2,4.7c-4.5-0.5-14.9,0.6-22.7,4.9c4.7,0.6,8.3,0.8,12.6,2.2
				c-4.4,1.2-13.1,2.3-15.3,1.7c0.8,0.9,4.5,3.9,7.7,4.1c-4.1,2.3-7.6,2.2-10.4,2.3c0.9,0.9,1.7,2.2,2.4,3
				c-3.7,3.8-8.1,5.4-13.3,6.8c1.3,1.1,5,0.2,6.1,1.2c-13.5,8.6-14.7,17.5-16.2,24C814,284.4,808,281.9,810.3,269.1z"/>
			<path id="XMLID_87_" class="st16" d="M807.1,284.6c14.7-26.7,46.8-58.8,59.9-67.2c16.1-10.4,19.1-20.8,32.7-25.9
				c-3.1,5.7-7,10.5-7.4,14.4c7.8-4.6,14.1-10.7,20-13.1c-3,3.1-6.7,7.1-8.4,10.6c7.4-4.9,17.5-6.8,25.2-4.3
				c-7.4,1.9-15,3.8-20.1,9.6c8.3-0.4,23.4-5.5,34.1,4.3c-5-2.2-14.4,1.3-19.8,2.8c15.3-0.4,23.7,4,30.9,7.5
				c-8.7-1.9-18.1-0.5-25.3-0.4c7.2,1.2,21.1,5.9,27.1,17.7c-6.4-5.7-16.5-9.3-20.9-9.5c6.5,4.9,10.2,11,10.5,14.7
				c-3.3-1.6-6.5-2.6-9.1-1.4c0.8,7.3,7.1,14.1,6.3,13.2c-8.1-5.3-14.3-13.5-19.9-20.6c0.8,5.7,3.1,12.6,6,18.5
				c-5.7-4.7-8.3-6.8-11.1-12.7c0.5,4.6,1,9.4,0,12.7c-3.2-12.9-13.8-12.4-17.3-20.4c-0.1,2.7,0.7,6.5,1.5,9.4
				c-3-3.9-4.7-8.5-10.1-9.4c-1,6.2,2.5,12.8,5.1,16.7c-4.6-3-10.8-7.5-17.2-10.5c1.2,3.2,6,9.4,7.1,12.5c-1.4-1.2-6.5-4.8-8.3-5.4
				c-0.1,1.3,4,5.7,3.5,6.9c-5.2-2.9-8.7-2.7-13.2-3.5c-0.2,2.1,4.2,6.7,2,5.8c-3.6-1.4-9.1,0.2-10.4-0.5c-6.2-3.2-3.8,2.5-2.6,8.1
				c-2.3,0.1-4.7-1.4-6.7-2.8c-1.3,2,1,5-0.4,6.9c-2.5-0.5-4.2-0.5-6.7,0.3c-1.7,0.6-21.9,9.6-25.7,18.3
				C813.2,299.1,801.5,294.8,807.1,284.6z"/>
			<path id="XMLID_86_" class="st16" d="M800.6,193.5c-1.4-6.8,3.6-23.9-5-39.1c2,9.4-0.1,14.5,0.2,18c-4.7-20.7-10-27.3-15.7-33
				c2.1,4.7,4.3,10.1,3.8,12.6c-3.3-7.3-9.8-13.4-16.6-18.3c2.1,2.7,2.1,5.2,2.1,6.3c-7.3-8.1-21.5-11.4-24-12.7
				c7.9,5.4,17.2,13.5,24.8,22.2c-6.6-2.4-12.3-2.5-16.8-0.9c6.6,1.1,15.1,4.6,19.9,7.1c-6.4-0.7-12.1-0.1-16.9,0.8
				c4.8,1.3,9.8,2.1,13.7,4.5c-0.8,0.2-6,2.4-6.7,2.9c2.7,1.3,7.1,2,9.7,4.3c-0.5,0.9-3.2,2.5-6.3,2c4.4,3.4,11,6.6,16.5,7.5
				c-5,2.9-13.7,3.5-19.2,4c4.9,2.7,10.6,4,15.5,6.7c-1.2,2-6.5,2.5-8.6,3.5c3,1.7,6.4,2.9,9.5,4.6c-2.5,0.4-6.7,1.1-7.5,1.8
				c4.9,1.7,17.3,6.5,15.7,7.4c-3.8,2.3-9.4,3.3-11.7,4.5c6.3,1.3,11.9,4.7,14,8.4c-3.6,2.7-6.9,1.8-11.9,1.1
				c3.6,3.1,9.1,6.5,10.2,9.2c-0.8,0.3-3.9,0.9-6.3,0.4c1.7,2,8.2,3.7,8.5,6.4c0.3,3.3,10.4,27.5,5.1,46.1c-3.4,11.7,7,8.5,9.3-4.9
				C810.2,251.5,805.7,218.1,800.6,193.5z"/>
			<path id="XMLID_85_" class="st16" d="M861.9,255.1c4.9-2.3,13.4-13.6,27-15.3c-6.8,3.2-9.1,7-11.4,8.4
				c15.3-6.9,21.9-6.6,28.2-5.8c-4,0.9-8.4,2-9.7,3.6c6.2-1.4,13.1-0.2,19.4,1.8c-2.7-0.1-4.3,1.1-5,1.7c8.6,0.7,17.4,8.1,19.3,9.1
				c-7.1-2.4-16.6-4.4-25.8-5.2c4.7,3,7.4,6.6,8.5,10.2c-3.8-3.6-10.1-7.4-13.9-9.2c3.5,3.7,5.8,7.6,7.5,11c-3.1-2.4-6-5.1-9.3-6.5
				c0.2,0.6,1.3,4.9,1.4,5.6c-2.1-1.1-4.7-3.5-7.3-4c-0.3,0.7-0.1,3.2,1.7,4.9c-4.3-1.2-9.4-3.8-12.6-6.9c0.5,4.6,4.3,10.3,6.6,14
				c-4-1.9-7.5-4.8-11.6-6.6c-0.7,1.7,1.5,5.3,1.8,7.1c-2.5-1.1-4.9-2.6-7.4-3.8c0.9,1.8,2.5,4.8,2.5,5.6
				c-3.4-2.3-12.3-7.8-12.1-6.4c0.4,3.5,2.4,7.5,2.7,9.5c-3.8-3.3-8.6-5.3-11.9-4.9c0,3.6,2.2,5.2,5,8c-3.6-0.8-8.4-2.7-10.6-2.1
				c0.2,0.7,1.3,2.8,2.7,4.2c-2-0.1-6.2-3.5-8.1-2.4c-2.2,1.3-22.3,6.5-31.5,18.6c-5.8,7.7-8.7-0.4-1.3-8.2
				C820.8,276.5,844,263.5,861.9,255.1z"/>
		</g>
		<polygon id="XMLID_43_" class="st16" points="790.6,312.2 817.5,299.4 837.3,285.3 836.8,264.7 813.3,252.2 787.5,248.2 
			769,260.2 789.4,298.7 		"/>
	</g>
	<g id="XMLID_29_">
		<path id="XMLID_83_" class="st17" d="M691.3,670.5c0,0,2.1-76.9,2.1-78s-1.1-50.5-0.1-62.8c1.1-12.3,2.1-159.8,2.1-159.8l0.4-12.1
			l2.7-52.5c0,0,5.3,2.8,7-3.5s2.5,4.7,2.5-62.4c0,0,0.7-10.3-2.8-40.3h-31.7c0,0-4.6,51.2-3.9,57.5c0,0,0.7,5.8-1.7,18.1
			c0,0-6.1,7.8-0.8,26.6c0,0,2.3,4.1,5.8,3.9l-0.3,83l-2.6,80.4l-1.6,50.1l-1.1,64l-4.3,89.4L691.3,670.5z"/>
		<g id="XMLID_138_">
			<path id="XMLID_139_" class="st17" d="M642.8,314c0.9-0.2,1.7-0.4,2.6-0.6c0.1-0.1,0.3-0.2,0.4-0.3c0.2-0.1,0.4-0.2,0.7-0.3
				c-1.5,0.1-2.7,0.3-3.6,0.6c-0.5,0.2-0.8,0.4-1.1,0.6c0,0.1-0.1,0.1-0.1,0.2c0.1,0,0.2,0,0.3,0C642.3,314.1,642.6,314,642.8,314z"
				/>
			<path id="XMLID_464_" class="st17" d="M666.9,305.9c0.3,0.7,0.7,1.5,1.2,2.3c0.4,0.1,0.7,0.2,1.1,0.3c-0.7-0.8-1.5-1.8-2.3-2.8
				C666.8,305.8,666.8,305.8,666.9,305.9z"/>
			<path id="XMLID_465_" class="st17" d="M653,311.2c-0.7-0.1-1.4-0.3-2-0.3c0.4,0.2,0.9,0.3,1.3,0.5
				C652.5,311.3,652.7,311.3,653,311.2z"/>
			<path id="XMLID_466_" class="st17" d="M647.3,310.9c0.4,0.1,0.9,0.1,1.4,0.2c0.3,0,0.6,0.2,0.9,0.3c-0.4-0.2-0.7-0.3-1-0.3
				c0,0,0,0-0.1,0C648,311,647.6,310.9,647.3,310.9z"/>
			<path id="XMLID_467_" class="st17" d="M664.2,305.5c0.3,0.7,0.8,1.4,1.2,2.1h0.1c-0.1-0.6-0.2-1.2-0.3-1.8
				c-0.1-0.5-0.1-1-0.2-1.4c0-0.2,0-0.4,0-0.6c-0.5-0.5-0.9-1-1.4-1.6c-0.4-0.4-0.8-0.9-1.2-1.3c0,0.2,0.1,0.3,0.1,0.5
				c0.1,0.5,0.3,1.1,0.6,1.8c0.1,0.3,0.3,0.7,0.4,1.1C663.8,304.7,664,305.1,664.2,305.5z"/>
			<path id="XMLID_468_" class="st17" d="M687,298.9L687,298.9c0-0.2,0-0.4,0-0.6l0,0c-0.1,0.3-0.1,0.6-0.1,1
				C687,299.2,687,299,687,298.9z"/>
			<path id="XMLID_469_" class="st17" d="M654.5,315.4c-0.1,0-0.1-0.1-0.2-0.1c-0.2-0.1-0.4-0.2-0.6-0.4c-0.7,0.1-1.3,0.1-1.8,0.2
				C652.7,315.2,653.6,315.3,654.5,315.4z"/>
			<path id="XMLID_470_" class="st17" d="M645.6,313.3c0.5-0.1,0.9-0.2,1.4-0.3c0.3-0.1,0.7-0.1,1-0.2c0.1,0,0.2-0.1,0.3-0.1
				c-0.3,0-0.7,0-1,0l0,0c0,0,0,0-0.1,0c-0.5,0.2-1,0.2-1.3,0.5C645.8,313.2,645.7,313.2,645.6,313.3z"/>
			<path id="XMLID_471_" class="st17" d="M667.6,350.5c-0.1,0.4-0.2,0.7-0.3,1.1c0.2-0.5,0.4-1,0.7-1.5
				C667.9,350.2,667.7,350.4,667.6,350.5z"/>
			<path id="XMLID_472_" class="st17" d="M706.9,356.7L706.9,356.7c0.1,0.2,0.2,0.4,0.3,0.5l0,0c-0.1-0.3-0.2-0.6-0.4-0.9
				C706.8,356.4,706.9,356.6,706.9,356.7z"/>
			<path id="XMLID_473_" class="st17" d="M670,351.9c0,0.1-0.1,0.1-0.1,0.2C669.9,352.1,670,352,670,351.9L670,351.9z"/>
			<path id="XMLID_474_" class="st17" d="M652.2,314.1c-0.3-0.2-0.7-0.3-1-0.5c-0.1,0-0.2-0.1-0.2-0.1c-1.2,0.2-2.5,0.4-3.7,0.6
				c-0.8,0.1-1.5,0.3-2.3,0.4c0.9,0.1,1.9,0.2,2.9,0.3c0.8,0.1,1.6,0.2,2.4,0.2C650.7,314.6,651.4,314.4,652.2,314.1z"/>
			<path id="XMLID_475_" class="st17" d="M665.7,351.2c-0.2,0.4-0.4,0.7-0.5,1c0.2-0.2,0.4-0.4,0.5-0.6
				C665.7,351.5,665.7,351.4,665.7,351.2z"/>
			<path id="XMLID_476_" class="st17" d="M649.7,336C649.6,336,649.6,336,649.7,336C649.7,336,649.8,336,649.7,336
				C649.7,335.9,649.7,336,649.7,336z"/>
			<path id="XMLID_477_" class="st17" d="M659.3,349.2c-0.3,0.4-0.5,0.7-0.8,1c-0.2,0.4-0.4,0.7-0.6,1c-0.4,0.6-0.7,1.2-0.9,1.7
				c-0.3,0.7-0.4,1.2-0.5,1.4c0.6-1.2,1.2-2.5,2-3.8c0.4-0.6,0.8-1.3,1.2-2C659.6,348.9,659.5,349.1,659.3,349.2z"/>
			<path id="XMLID_480_" class="st17" d="M731.6,336.6c-0.3-0.3-0.7-0.5-1-0.8c-0.4-0.3-0.8-0.5-1.2-0.8c-0.8-0.6-1.8-1.1-2.8-1.7
				c-1-0.6-2.1-1.1-3.3-1.6c-1.2-0.6-2.4-1-3.6-1.5c-0.3-0.1-0.6-0.2-0.9-0.3c-0.1-0.1-0.3-0.2-0.4-0.3c0.1,0,0.2,0,0.2,0
				c1.7,0.4,3,0.7,3.6,0.9c0.2,0.1,0.4,0.1,0.6,0.2c0.9,0.4,1.4,0.8,1.4,0.8s-0.1-0.1-0.3-0.3c-0.2-0.2-0.5-0.5-0.9-0.8
				c-0.9-0.6-2.2-1.3-3.9-2c-0.6-0.3-1.3-0.5-1.9-0.8c0.4,0,0.8,0.1,1.2,0.1c1,0.2,1.5,0.4,1.5,0.4s-0.5-0.3-1.4-0.7
				c-0.9-0.4-2.3-0.9-4-1.3c-0.2-0.1-0.5-0.1-0.8-0.2c-0.9-0.6-1.7-1.2-2.5-1.8c0.7-0.2,1.4-0.3,2.1-0.5c2.8,1.3,4.6,2.1,4.6,2.1
				s-1.2-0.9-3-2.4c0.1,0,0.2,0,0.2,0c0.3,0,0.5,0,0.8,0c1.3,0.1,2.6,0.1,3.8,0.3c1.2,0.1,2.5,0.2,3.7,0.4c0.4,0.1,0.8,0.1,1.2,0.2
				c0,0,0.1,0,0.1,0.1c0.8,0.5,1.1,1,1.1,0.9c0,0-0.2-0.4-0.6-0.9c0.5,0.1,1.1,0.2,1.6,0.3c1.1,0.2,2.1,0.5,3,0.8
				c0.5,0.1,0.9,0.3,1.3,0.4c0.4,0.2,0.8,0.3,1.1,0.5c0.7,0.3,1.4,0.5,1.8,0.9c1,0.6,1.5,1,1.5,1s-0.5-0.5-1.3-1.2
				c-0.4-0.4-1-0.8-1.7-1.3c-0.3-0.2-0.7-0.5-1.1-0.7c-0.4-0.2-0.8-0.4-1.3-0.7c-0.9-0.5-1.8-1-2.9-1.4c-1-0.5-2.2-0.9-3.3-1.3
				c-1-0.4-2.1-0.7-3.2-1.1c0.3,0,0.6,0,0.8,0c1.1,0.1,1.7,0.2,1.7,0.2s-0.6-0.2-1.6-0.5c-0.5-0.2-1.2-0.3-1.9-0.4
				c-0.4-0.1-0.8-0.1-1.2-0.2c-0.3,0-0.6,0-0.9,0c-0.4-0.1-0.7-0.2-1.1-0.3c-1.4-0.4-2.7-0.7-4.1-1c0.5-0.3,1-0.7,1.5-1
				c1.1,0.1,2,0.3,2.7,0.5c0.9,0.2,1.4,0.5,1.4,0.5s-0.4-0.4-1.3-0.8c-0.5-0.3-1.1-0.6-1.8-0.8c0.2-0.1,0.4-0.3,0.6-0.4
				c0.4-0.2,0.7-0.5,1.1-0.7c0.6,0,1.1,0.1,1.5,0.1c0.9,0.1,1.5,0.3,1.5,0.3s0,0-0.1,0c0.5,0.2,0.8,0.3,0.8,0.3s-0.5-0.3-1.5-0.8
				c-0.2-0.1-0.4-0.2-0.5-0.3c1-0.1,2-0.2,2.8-0.2c0.4,0,0.7,0,1,0c0.1,0,0.3,0,0.4,0.1c0.7,0.3,1.1,0.4,1.1,0.4s-0.2-0.2-0.7-0.5
				c1,0,1.9,0.1,2.5,0.2c0.5,0.1,0.9,0.3,1.1,0.5c0.2,0.2,0.2,0.3,0.2,0.3s0-0.1-0.2-0.4c-0.2-0.2-0.5-0.5-1-0.8
				c-0.9-0.4-2.4-0.8-4.1-1.1c0.4-0.1,0.9-0.2,1.2-0.2c1.2-0.1,1.8-0.2,1.8-0.2s-0.7-0.1-1.8-0.2c-0.6-0.1-1.2,0-2,0
				c1-0.6,1.9-1.1,2.7-1.5c1.1-0.6,2.1-1,2.7-1.3c0.7-0.3,1.1-0.2,1.1-0.2s-0.4-0.2-1.2-0.2s-1.8,0.1-3.1,0.4
				c-2.1,0.4-4.8,1-7.5,1.7c-0.9-0.1-2-0.2-3-0.1c-0.3,0-0.5,0-0.8,0c1.2-0.6,2.5-1.3,3.7-1.9c0.6-0.3,1.2-0.6,1.8-0.8
				c0.2,0,0.5-0.1,0.7-0.1c0.4,0,0.9-0.1,1.3-0.1c0.8,0,1.5-0.1,2.1,0c1.2,0.1,1.8,0.2,1.8,0.2s-0.6-0.2-1.8-0.5
				c-0.5-0.2-1.1-0.3-1.8-0.4c2.3-0.9,4.5-1.7,6.4-2c0.7-0.1,1.4-0.2,2.1-0.2c0.6,0,1.2,0,1.6,0.1c0.9,0.1,1.4,0.4,1.4,0.4
				s-0.4-0.4-1.3-0.7c-0.4-0.2-1-0.4-1.6-0.5c-0.6-0.2-1.4-0.3-2.2-0.3c-3.3-0.3-7.6,0.2-11.8,1.1c-1.2,0.2-2.4,0.5-3.6,0.8
				c0.4-1.1,0.8-2,1.1-2.6c0.5-0.9,0.8-1.3,0.8-1.3s-0.4,0.4-1.1,1.1c-0.6,0.7-1.4,1.8-2.3,3.2c-1.7,0.4-3.4,0.9-4.9,1.3
				c0.1-0.3,0.2-0.6,0.2-0.8c0.1-0.3,0.1-0.4,0.2-0.6c0.3-0.5,0.6-1,1-1.5c0.9-1.3,1.8-2.6,2.7-3.8c0.9-1.2,1.8-2.2,2.6-3.1
				c0.4-0.4,0.8-0.8,1.2-1.1c0.4-0.3,0.7-0.5,1-0.7c0.6-0.3,1-0.4,1-0.4s-0.4,0-1.1,0.1c-0.3,0.1-0.8,0.2-1.3,0.4s-1,0.4-1.6,0.7
				c-1.1,0.6-2.4,1.3-3.7,2.2c-1.3,0.9-2.6,1.8-4,2.8c-0.4,0.3-0.7,0.6-1.1,0.8c0-1.4,0.2-2.5,0.3-3.4c0.2-1,0.3-1.5,0.3-1.5
				s-0.3,0.5-0.7,1.4c-0.4,0.9-0.8,2.3-1.2,4c0,0.2-0.1,0.4-0.1,0.6c-0.5,0.4-1,0.8-1.4,1.1c0-0.2,0-0.5,0-0.8c0-0.1,0-0.1,0-0.1
				c0-0.2,0.1-0.4,0.1-0.6c0.4-1.6,0.9-2.8,1.3-3.7c0.4-0.9,0.7-1.3,0.7-1.3s-0.4,0.3-1,1.1c-0.3,0.3-0.6,0.7-0.9,1.2
				c0-0.3,0.1-0.5,0.1-0.7c0.2-1,0.3-1.5,0.3-1.5s-0.3,0.5-0.7,1.4c-0.3,0.7-0.6,1.6-0.9,2.8c0,0.1-0.1,0.2-0.1,0.2
				c-0.3,0.6-0.7,1.3-1,2.1c0-0.2,0-0.5,0-0.7c0.1-1,0.2-2,0.4-2.9c0.1-0.4,0.2-0.9,0.2-1.3c0.1-0.4,0.2-0.8,0.3-1.1
				c0.2-0.7,0.4-1.3,0.7-1.8c0.5-1,0.8-1.5,0.8-1.5s-0.4,0.5-1.1,1.3c-0.4,0.4-0.7,1-1.1,1.7c0,0,0,0,0,0.1c0.3-1,0.5-1.6,0.5-1.6
				s-2.3,3.8-5,9c0-0.2-0.1-0.3-0.1-0.5c1.2-4.5,2.2-7.7,2.2-7.7s-1.1,1.8-2.7,4.7c-0.1-0.4-0.1-0.9-0.1-1.3
				c-0.1-0.6-0.1-1.1-0.1-1.7c0.7-1.7,1.1-2.7,1.1-2.7s-0.4,0.9-1.1,2.3c0-0.4,0-0.7,0-1.1c0-0.5,0-1,0-1.4s0.1-0.9,0.1-1.3
				c0.1-0.8,0.1-1.5,0.3-2c0.3-1.1,0.5-1.8,0.5-1.8s-0.3,0.6-0.8,1.6c-0.3,0.5-0.5,1.2-0.7,2c-0.1,0.4-0.3,0.8-0.4,1.3
				c-0.1,0.5-0.2,0.9-0.3,1.4c-0.2,1-0.4,2.1-0.5,3.3c-0.1,0.5-0.1,1-0.1,1.5c0-0.1-0.1-0.1-0.1-0.2c0-1.2,0-2.2,0.1-3
				c0.1-0.9,0.3-1.5,0.3-1.5s-0.3,0.5-0.6,1.4c-0.1,0.2-0.1,0.3-0.2,0.5c0-0.4,0-0.9,0-1.3c0-0.8,0.1-1.6,0.2-2.4
				c0.1-0.7,0.3-1.4,0.4-2s0.4-1.1,0.5-1.5c0.3-0.8,0.5-1.3,0.5-1.3s-0.3,0.4-0.8,1.1c-0.3,0.4-0.6,0.8-0.9,1.4
				c-0.3,0.6-0.7,1.2-1,1.9c-0.1,0.2-0.2,0.5-0.3,0.8c-0.1-0.4-0.2-0.8-0.2-1.2c-0.1-1.2-0.1-1.8-0.1-1.8s-0.1,0.7-0.3,1.8
				c-0.1,0.4-0.1,0.8-0.1,1.2c-0.1,0.2-0.2,0.5-0.3,0.9c-0.2,0.5-0.3,1.2-0.5,1.9c-0.1,0.4-0.2,0.8-0.2,1.2c0,0.3,0,0.5-0.1,0.8
				c-0.2,0.7-0.4,1.6-0.6,2.6c0,0.2-0.1,0.4-0.1,0.6c0-0.1-0.1-0.3-0.2-0.4c-0.4-1-0.6-1.9-0.8-2.5c-0.1-0.3-0.1-0.5-0.2-0.6
				c0-0.3,0-0.5,0-0.8c0-0.7-0.1-1.4,0.1-1.9c0.2-1.1,0.3-1.7,0.3-1.7s-0.2,0.6-0.6,1.6c-0.2,0.5-0.3,1.2-0.5,1.9
				c0,0.1,0,0.2-0.1,0.4c0-0.2-0.1-0.5-0.2-0.7c-0.4-2-0.7-3.8-0.8-5.4c-0.1-1.6-0.1-3,0-3.9c0.1-0.9,0.3-1.5,0.3-1.5
				s-0.3,0.5-0.6,1.4s-0.7,2.3-1,3.9c-0.1,0.7-0.2,1.5-0.3,2.3c-0.2,0.4-0.3,0.9-0.4,1.5c0,0,0-0.1,0-0.2c-0.2-0.8-0.4-1.5-0.3-2
				c-0.1-1.2-0.1-1.8-0.1-1.8s-0.1,0.7-0.3,1.8c-0.1,0.6-0.1,1.3-0.1,2.1c0,0.4,0,0.9,0,1.3c0.1,0.5,0.1,0.9,0.2,1.4
				c0,0.2,0,0.3,0.1,0.5c0,0.4-0.1,0.7-0.1,1.1c-0.3-0.7-0.6-1.4-0.8-2.1c-0.4-1.1-0.8-2.2-1.1-3.3c-0.3-1.1-0.6-2.1-0.9-3.1
				s-0.4-2-0.5-2.9c-0.1-0.4-0.1-0.9-0.2-1.3c0-0.4,0-0.8,0-1.2c0-0.7-0.1-1.4,0.1-1.9c0.2-1.1,0.3-1.7,0.3-1.7s-0.2,0.6-0.6,1.6
				c-0.2,0.5-0.3,1.2-0.5,1.9c-0.1,0.4-0.2,0.8-0.2,1.2s-0.1,0.9-0.1,1.3c-0.1,0.9-0.1,2-0.1,3.1s0.1,2.2,0.2,3.4
				c0.1,1.2,0.3,2.4,0.4,3.6c0.1,1,0.3,2.1,0.5,3.1c-0.3,0.1-0.6,0.3-0.9,0.4c0-0.4,0-0.9,0.1-1.2c0.1-0.9,0.3-1.5,0.3-1.5
				s-0.3,0.5-0.6,1.4c-0.1,0.2-0.2,0.5-0.3,0.8c-0.6-1.1-1.2-2.2-1.7-3.3c0.1-0.5,0.1-0.8,0.1-0.8s-0.1,0.2-0.2,0.6
				c-0.2-0.4-0.4-0.7-0.5-1.1c-0.1-1.9-0.2-3.1-0.2-3.1s-0.1,0.7-0.3,2c-0.7-1.4-1.3-2.8-1.8-4c-0.3-0.8-0.6-1.5-0.8-2.2
				c-0.2-0.7-0.4-1.2-0.5-1.7c-0.2-1-0.3-1.5-0.3-1.5s0,0.6,0,1.6c0,0.5,0.1,1.1,0.1,1.8s0.2,1.5,0.3,2.3c0.4,2.8,1.2,6.4,2.1,10
				c-0.1,0.6-0.2,1.2-0.2,1.9c-1.3-1.3-2.9-2.9-4.6-4.5c-0.2-0.7-0.3-1.4-0.3-1.9c-0.1-1.2-0.1-1.8-0.1-1.8s-0.1,0.7-0.3,1.8
				c-0.1,0.3-0.1,0.8-0.1,1.2c-0.2-0.2-0.4-0.4-0.7-0.6c-1.2-1.1-2.4-2.1-3.6-3.1c-1.2-0.9-2.3-1.8-3.4-2.4c-0.5-0.3-1-0.6-1.4-0.8
				c-0.5-0.2-0.9-0.4-1.2-0.5c-0.7-0.1-1.1-0.2-1.1-0.2s0.4,0.1,1.1,0.3c0.3,0.2,0.7,0.4,1.1,0.6c0.4,0.2,0.9,0.6,1.4,0.9
				c1,0.7,2,1.6,3.1,2.7c0.6,0.6,1.2,1.2,1.8,1.8c0,0.2,0,0.5,0,0.8c0,0.6,0.1,1.2,0.2,2c0.1,0.4,0.1,0.8,0.2,1.2
				c0.1,0.4,0.2,0.8,0.4,1.3c0.1,0.3,0.2,0.7,0.3,1c-1-0.4-2-0.7-2.9-1c-1.2-0.4-2.4-0.8-3.6-1.1c-0.1-0.2-0.2-0.4-0.4-0.6
				c-0.4-0.7-0.9-1.2-1-1.8c-0.5-1.1-0.7-1.7-0.7-1.7s0.1,0.7,0.4,1.8c0.1,0.6,0.4,1.2,0.6,1.9c-0.9-0.2-1.8-0.5-2.6-0.6
				c-1.1-0.3-2.2-0.4-3.3-0.5c-0.5-0.1-1-0.1-1.4-0.2c-0.5,0-0.9,0-1.3,0c-0.8,0-1.5,0-2.1,0.1c-1.2,0.2-1.8,0.3-1.8,0.3
				s0.7,0,1.8,0.1c0.6,0,1.3,0.2,2,0.3c0.4,0.1,0.8,0.2,1.2,0.3c0.2,0.1,0.4,0.1,0.6,0.2c-2.4-0.4-4.6-0.7-6.5-0.7
				c-0.8,0-1.5,0.1-2.1,0.2c-0.6,0.1-1.2,0.2-1.6,0.4c-0.9,0.3-1.3,0.6-1.3,0.6s0.4-0.3,1.3-0.5c0.4-0.1,1-0.2,1.6-0.3
				c0.6-0.1,1.3-0.1,2.1,0c2.2,0.1,4.9,0.6,7.6,1.4c-0.5,0-1,0-1.4,0c-0.5,0.1-0.9,0.1-1.3,0.2c-0.8,0.1-1.5,0.2-2.1,0.4
				c-1.1,0.3-1.8,0.5-1.8,0.5s0.7-0.1,1.8-0.2c0.6-0.1,1.3,0,2.1,0c0.4,0,0.8,0.1,1.3,0.1c0.4,0.1,0.9,0.2,1.4,0.2
				c1,0.1,2,0.4,3.1,0.7c1.1,0.3,2.2,0.6,3.4,1c0.6,0.2,1.1,0.4,1.7,0.6c0.1,0.2,0.2,0.3,0.3,0.5c-0.3,0-0.6-0.1-1-0.1
				c-1.2-0.1-2.3-0.2-3.4-0.1c-1.1,0-2.1,0-3,0.1c-0.5,0-0.9,0.1-1.3,0.1c-0.4,0.1-0.8,0.2-1.2,0.3c-0.1,0-0.1,0-0.1,0
				c-1.1-0.4-2.1-0.7-3.1-0.9c-1.2-0.3-2.3-0.5-3-0.6s-1.1,0.1-1.1,0.1s0.4-0.1,1.1,0s1.7,0.4,2.9,0.8c0.7,0.2,1.4,0.5,2.2,0.8
				c-0.3,0.1-0.5,0.1-0.8,0.3c-0.2,0.1-0.3,0.1-0.5,0.2h-0.1c-0.8,0-1.5-0.1-2.1,0c-1.2,0.1-1.8,0.2-1.8,0.2s0.7,0.1,1.8,0.2
				c0.6,0,1.2,0.2,2,0.4c0.4,0.1,0.8,0.2,1.2,0.3s0.7,0.3,1.1,0.4c-0.1,0-0.2,0.1-0.4,0.1c-0.1,0-0.3,0-0.5,0
				c-1.8,0.2-3.3,0.5-4.3,0.9c-0.5,0.2-0.8,0.5-1,0.7c0,0.1-0.1,0.2-0.1,0.2c-3.4-0.3-6.6-0.5-9.3-0.6c-2.1-0.1-3.8-0.1-5.1,0
				c-0.6,0-1.1,0.1-1.4,0.2c-0.3,0.1-0.5,0.2-0.5,0.2s0.2-0.1,0.5-0.1c0.3-0.1,0.8-0.1,1.4-0.1c1.2,0,3,0.1,5,0.3
				c2.2,0.2,4.9,0.5,7.7,0.9c-0.4,0.1-0.9,0.3-1.3,0.4c-1.3,0.4-2.5,0.8-3.7,1.2c-1.2,0.4-2.2,0.9-3.2,1.3c-1,0.4-1.9,0.9-2.7,1.2
				c-0.8,0.4-1.4,0.8-2,1.1c-1.1,0.6-1.7,1-1.7,1s0.6-0.3,1.7-0.9c0.6-0.3,1.2-0.7,2-1s1.7-0.7,2.7-1.1c1-0.3,2.1-0.7,3.3-1.1
				c1.2-0.3,2.4-0.7,3.7-1c1-0.2,2.1-0.5,3.2-0.7c1.8,0.2,3.6,0.5,5.4,0.8c0.3,0,0.6,0.1,1,0.1c-0.1,0.1-0.1,0.1-0.1,0.1
				s0.1,0,0.2-0.1c1.2,0.2,2.3,0.3,3.4,0.5c-0.7,0.2-1.4,0.3-2.1,0.5c-0.4,0.1-0.7,0.2-1.1,0.3c-0.3,0-0.6,0-0.9,0
				c-0.4,0.1-0.8,0.1-1.2,0.2c-0.8,0.1-1.4,0.2-1.9,0.4c-1,0.3-1.6,0.5-1.6,0.5s0.6-0.1,1.7-0.2c0.2,0,0.5,0,0.8,0
				c-1.1,0.3-2.2,0.7-3.2,1.1c-1.2,0.4-2.3,0.8-3.3,1.3l0,0c-1.5,0.1-2.8,0.3-3.7,0.6c-0.5,0.1-0.9,0.3-1.2,0.5
				c-0.2,0.2-0.3,0.3-0.3,0.3s0.1-0.1,0.3-0.3c0.3-0.1,0.7-0.3,1.2-0.4c0.8-0.2,1.8-0.3,2.9-0.3c-0.8,0.3-1.5,0.7-2.2,1.1
				c-0.4,0.2-0.9,0.5-1.3,0.7c-0.4,0.3-0.7,0.5-1.1,0.7c-0.7,0.5-1.3,0.8-1.7,1.3c-0.8,0.8-1.3,1.2-1.3,1.2s0.5-0.3,1.5-1
				c0.4-0.3,1.1-0.6,1.8-0.9c0.4-0.2,0.7-0.3,1.1-0.5c0.4-0.1,0.9-0.3,1.3-0.4c0.9-0.3,1.9-0.6,3-0.8c0.5-0.1,1-0.2,1.6-0.3
				c-0.1,0.1-0.1,0.1-0.2,0.2c-0.9,0.3-1.7,0.7-2.4,1.1c-0.4,0.2-0.9,0.4-1.3,0.6c-0.4,0.2-0.7,0.5-1.1,0.7
				c-0.7,0.4-1.3,0.8-1.7,1.2c-0.9,0.7-1.3,1.2-1.3,1.2s0.5-0.4,1.4-1.1c0.4-0.4,1-0.7,1.7-1.1c0.3-0.2,0.7-0.4,1.1-0.6
				c0.4-0.2,0.8-0.4,1.3-0.5c0.6-0.3,1.2-0.5,1.9-0.7v0.1c0,0,0,0,0.1-0.1c0.3-0.1,0.7-0.2,1-0.3c1-0.4,2.2-0.7,3.3-1
				c0.1,0,0.2,0,0.3-0.1c0.1,0,0.2,0,0.2,0c-0.1,0.1-0.2,0.1-0.3,0.2c-0.6,0.3-1,0.7-1.4,1c-0.7,0.6-0.9,1.2-1,1.1
				c0,0,0.3-0.5,1-1.1c0.4-0.3,0.8-0.6,1.4-0.9c0.3-0.1,0.6-0.3,0.9-0.4c0.2,0,0.3,0,0.5,0c1.2-0.1,2.5-0.2,3.8-0.3
				c0.3,0,0.5,0,0.8,0c0.1,0,0.2,0,0.2,0c-1.9,1.5-3,2.4-3,2.4s1.8-0.9,4.6-2.1c0.3,0.1,0.7,0.2,1,0.2l-0.4,0.2c0,0,0.2,0.3,0.5,0.7
				c-0.5,0.4-1,0.7-1.5,1.1c-0.2,0.1-0.5,0.1-0.8,0.2c-1.7,0.4-3.1,0.9-4,1.3c-0.9,0.5-1.4,0.7-1.4,0.7s0.6-0.1,1.5-0.4
				c0.3,0,0.7-0.1,1.2-0.1c-0.7,0.3-1.4,0.5-1.9,0.8c-1.7,0.7-3,1.4-3.9,2c-0.4,0.3-0.7,0.6-0.9,0.8c-0.2,0.2-0.3,0.3-0.3,0.3
				s0.4-0.4,1.4-0.8c0.2-0.1,0.4-0.1,0.6-0.2c0.7-0.2,1.9-0.5,3.6-0.9c0.1,0,0.2,0,0.2,0c-0.1,0.1-0.3,0.2-0.4,0.3
				c-0.3,0.1-0.6,0.2-0.9,0.3c-1.2,0.5-2.5,1-3.6,1.5c-1.2,0.5-2.3,1-3.3,1.6c-1,0.5-2,1.1-2.8,1.7c-0.4,0.3-0.8,0.5-1.2,0.8
				c-0.4,0.3-0.7,0.6-1,0.8c-0.6,0.5-1.2,1-1.6,1.4c-0.8,0.9-1.2,1.4-1.2,1.4s0.5-0.4,1.4-1.1c0.4-0.4,1.1-0.7,1.8-1.1
				c0.3-0.2,0.7-0.4,1.1-0.6c0.4-0.2,0.9-0.3,1.3-0.5c0.9-0.4,1.9-0.7,3-1c0.6-0.2,1.3-0.4,2-0.6c-0.1,0.1-0.2,0.2-0.3,0.3
				c-0.6,0.8-1.3,1.4-1.8,2.1c-0.5,0.7-1,1.3-1.3,1.9c-0.3,0.6-0.6,1.1-0.8,1.6c-0.3,0.9-0.4,1.5-0.4,1.5s0.3-0.5,0.7-1.3
				c0.2-0.4,0.7-0.8,1.1-1.3c0.4-0.5,1-0.9,1.6-1.5c0.5-0.4,1.1-0.8,1.7-1.3c0.4-0.2,0.9-0.4,1.4-0.6c0.3-0.1,0.6-0.2,1-0.4
				c-0.1,0.1-0.1,0.2-0.2,0.3c-0.5,0.3-0.9,0.7-1.3,1.1c-0.9,0.7-1.6,1.4-2.3,2.1c-0.3,0.3-0.7,0.7-1,1s-0.5,0.7-0.8,1
				c-0.5,0.6-0.9,1.1-1.1,1.6c-0.5,1-0.8,1.5-0.8,1.5s0.4-0.5,1.1-1.3c0.3-0.4,0.8-0.8,1.4-1.3c0.3-0.2,0.6-0.5,0.9-0.7l0.1-0.1
				c-0.2,0.3-0.3,0.6-0.4,0.8c-0.3,0.9-0.5,1.4-0.5,1.4s0.2-0.5,0.6-1.4c0.1-0.3,0.4-0.7,0.7-1.1c0.2-0.1,0.4-0.3,0.6-0.4
				c0.7-0.5,1.5-0.9,2.3-1.4c-0.4,0.5-0.9,1.1-1.2,1.6c-0.3,0.4-0.6,0.8-0.9,1.2c-0.2,0.4-0.5,0.8-0.7,1.1c-0.4,0.7-0.8,1.3-1,1.9
				c0.3,0.6,0,1.2,0,1.2s0.3-0.6,1-1.6c0.3-0.5,0.8-1,1.3-1.6c0.3-0.3,0.5-0.6,0.8-0.9c0.4-0.4,0.9-0.8,1.5-1.2
				c1.2-0.9,2.7-1.8,4.3-2.7c0,0,0,0.1-0.1,0.1c-0.3,0.2-0.6,0.5-0.8,0.7c-0.9,0.8-1.8,1.6-2.5,2.4c-0.4,0.4-0.7,0.8-1.1,1.1
				c-0.3,0.4-0.6,0.8-0.9,1.2s-0.6,0.7-0.8,1.1c-0.2,0.4-0.4,0.7-0.6,1.1c-0.4,0.7-0.8,1.2-0.9,1.8c-0.4,1-0.6,1.6-0.6,1.6
				s0.3-0.5,0.9-1.5c0.2-0.5,0.7-0.9,1.2-1.5c0.2-0.3,0.5-0.6,0.8-0.9c0.3-0.3,0.7-0.5,1-0.8s0.7-0.6,1.1-0.9
				c0.4-0.3,0.8-0.6,1.3-0.8c0.4-0.3,0.9-0.6,1.4-0.9c-0.1,0.4-0.3,0.7-0.4,1.1c-0.1,0.1-0.2,0.2-0.3,0.3c-0.7,0.7-1.3,1.4-1.9,2.1
				c-0.1,0.1-0.1,0.2-0.2,0.3c-1.6,1.8-3.1,3.6-4.3,5.1c-0.5,0.7-1,1.3-1.4,1.9c-0.4,0.6-0.7,1.1-1,1.5c-0.5,0.9-0.7,1.4-0.7,1.4
				s0.4-0.4,1-1.2c0.3-0.4,0.8-0.8,1.3-1.2c0.5-0.5,1.1-1,1.7-1.5c1-0.8,2.2-1.7,3.5-2.7c-0.4,1.2-0.7,1.9-0.7,1.9s0.6-1,1.7-2.6
				c0.3-0.2,0.7-0.5,1-0.7c-0.1,0.4-0.1,0.7-0.1,0.7s0.1-0.3,0.3-0.8c0.8-0.5,1.5-1,2.3-1.6c-0.1,0.2-0.2,0.3-0.4,0.5
				c-2,2-3.8,3.9-5.3,5.5c-0.5,0.7-1.1,1.2-1.5,1.8c-0.4,0.6-0.8,1-1,1.5c-0.5,0.9-0.8,1.3-0.8,1.3s0.3-0.5,0.9-1.3
				c0.3-0.4,0.7-0.8,1.1-1.4c0.4-0.5,1-1.1,1.6-1.7c1.1-1.2,2.5-2.5,4-3.8c-0.1,0.3-0.2,0.5-0.2,0.5s0.2-0.3,0.7-0.8
				c0.2-0.2,0.5-0.5,0.8-0.7c0.2-0.1,0.4-0.3,0.6-0.4c-0.1,0.6,0,0.9,0,0.9s0.1-0.4,0.3-1.1c0.1-0.1,0.2-0.1,0.3-0.2
				c0.2-0.1,0.5-0.3,0.8-0.4c-0.6,0.8-1.3,1.5-1.9,2.4c-0.7,1-1.5,2-2.1,3c-0.7,1-1.3,1.9-1.8,2.9c-0.6,0.9-1,1.8-1.4,2.7
				c-0.2,0.4-0.4,0.8-0.6,1.2c-0.1,0.4-0.3,0.8-0.4,1.2c-0.2,0.7-0.5,1.3-0.5,1.9c-0.1,1.1-0.2,1.7-0.2,1.7s0.2-0.6,0.6-1.6
				c0.1-0.5,0.5-1.1,0.9-1.7c0.2-0.3,0.4-0.7,0.6-1c0.2-0.3,0.5-0.7,0.8-1c0.5-0.7,1.1-1.5,1.8-2.2c0.7-0.8,1.4-1.5,2.3-2.3
				c0.8-0.8,1.7-1.6,2.6-2.3c0.6-0.6,1.3-1.1,2-1.6c-0.2,0.2-0.4,0.4-0.6,0.7c-0.8,0.9-1.5,1.8-2.2,2.8c-0.7,0.9-1.3,1.8-1.9,2.7
				c-0.6,0.9-1.1,1.7-1.5,2.6c-0.2,0.4-0.4,0.8-0.6,1.2c-0.1,0.4-0.3,0.8-0.4,1.1c-0.3,0.7-0.5,1.3-0.6,1.8
				c-0.2,1.1-0.3,1.7-0.3,1.7s0.1-0.6,0.4-1.6c0.1-0.5,0.4-1.1,0.7-1.8c0.1-0.3,0.3-0.7,0.5-1.1c0.2-0.4,0.4-0.7,0.7-1.1
				c0.4-0.8,1-1.6,1.6-2.5c0.6-0.9,1.3-1.7,2-2.6c0.7-0.9,1.5-1.8,2.3-2.6c0.6-0.7,1.2-1.3,1.9-1.9c0,2.3,0.1,3.7,0.1,3.7
				s0.4-1.9,1.1-4.8c0.8-0.8,1.6-1.6,2.5-2.3c0.2-0.1,0.3-0.2,0.5-0.4c0,0.2,0,0.3,0,0.5c-0.7,1-1.3,1.9-1.8,2.8
				c-0.6,0.9-1,1.8-1.4,2.7c-0.2,0.4-0.4,0.8-0.6,1.2c-0.1,0.4-0.3,0.8-0.4,1.2c-0.2,0.7-0.5,1.3-0.5,1.9c-0.1,1-0.2,1.5-0.2,1.6
				c-0.2,0.4-0.4,0.8-0.5,1.1c-0.6,1.5-1,2.8-1.2,3.8c-0.2,0.9-0.2,1.5-0.2,1.5s0-0.5,0.3-1.5c0.3-0.9,0.7-2.2,1.4-3.6
				c0.7-1.4,1.7-3.1,2.8-4.8c0.5-0.7,1-1.5,1.6-2.2c0,0.2,0,0.3-0.1,0.5c-0.4,1.3-0.7,2.5-0.8,3.3c-0.2,1-0.1,1.5-0.1,1.5
				s0.1-0.5,0.4-1.2c-0.1,0.3-0.1,0.6-0.2,0.9c-0.3,1.7-0.7,3-1,4c-0.4,0.9-0.6,1.4-0.6,1.4s0.3-0.5,0.9-1.3
				c0.5-0.9,1.2-2.1,1.9-3.7c0.8-1.8,1.7-4,2.6-6.4c0,0,0-0.1,0.1-0.1c-0.3,2.1-0.6,4.1-0.9,5.8c-0.2,1.1-0.5,2-0.7,2.8
				c-0.2,0.4-0.5,0.8-0.6,1.1c-0.5,1.1-0.7,1.7-0.7,1.7s0.3-0.6,0.8-1.6c0.1-0.2,0.2-0.4,0.3-0.6c-0.1,0.2-0.1,0.4-0.2,0.6
				c-0.4,0.9-0.6,1.4-0.6,1.4s0.3-0.5,0.9-1.3c0.3-0.5,0.7-1.2,1.1-2c-0.2,0.7-0.3,1.3-0.4,1.9c-0.1,0.8-0.1,1.5-0.2,2.1
				c-0.1,0.6,0,1.2,0,1.6c0.1,0.9,0.1,1.4,0.1,1.4s0-0.5,0-1.4c0-0.4-0.1-1,0.1-1.6c0.1-0.6,0.2-1.3,0.3-2c0.2-0.7,0.4-1.5,0.7-2.3
				c0.2-0.6,0.5-1.2,0.7-1.8c0.3-0.4,0.7-0.8,1.1-1.2c0,0.4-0.1,0.7-0.1,1c-0.1,0.6-0.5,0.9-0.5,0.9s-0.2-0.5-0.2-0.8
				c0,0.2,0,0.3,0,0.5c0,0.3,0.3,0.7,0.3,1c-1.6,3.3-2.6,5.5-2.6,5.5s1.1-1.2,2.8-3.2c0,0.7,0.1,1.1,0.1,1.1s0-0.4,0.1-1.2l0.1-0.1
				c0,0.8,0,1.3,0,1.3s0.1-0.7,0.4-1.8c1-1.3,2.2-2.8,3.5-4.4c0,0.2-0.1,0.3-0.1,0.4c-2.1,4.4-3.7,7.6-3.7,7.6s2.5-2.9,5.7-6.9
				c-0.1,0.4-0.2,0.8-0.3,1.2c-0.4,1.7-0.7,3.1-0.8,4.1c-0.1,0.3-0.2,0.5-0.3,0.8c-0.3,0.9-0.5,1.7-0.7,2.2
				c-0.1,0.5-0.2,0.8-0.2,0.8s0.1-0.3,0.3-0.8c0.2-0.5,0.5-1.1,0.8-1.9c0,0.3,0,0.5,0,0.5s0.1-0.5,0.4-1.2c0.3-0.5,0.5-1.1,0.9-1.7
				c-0.1,0.9-0.3,1.6-0.5,2.2c-0.3,0.9-0.5,1.4-0.5,1.4s0.4-0.4,0.9-1.2c0.4-0.7,0.9-1.7,1.4-2.9c-0.2,1.9-0.2,3-0.2,3
				s0.1-1.4,0.5-3.6c0,0,0-0.1,0.1-0.1c0.2-0.7,0.5-1.4,0.7-2.2c0,0.3,0,0.5,0,0.8c0,0.5,0.1,0.9,0.1,1.4c0,0.1-0.1,0.2-0.1,0.3
				c-0.4,0.9-0.6,1.4-0.6,1.4s0.3-0.3,0.7-0.9c0,0.2,0,0.5,0,0.7c0,0.5,0,0.9-0.1,1.3c-0.1,0.4-0.1,0.8-0.2,1.1
				c-0.1,0.7-0.2,1.4-0.4,1.9c-0.4,1-0.6,1.6-0.6,1.6s0.3-0.5,0.9-1.4c0.3-0.5,0.5-1.1,0.8-1.8c0.1-0.4,0.3-0.7,0.5-1.1
				c0.1-0.2,0.1-0.5,0.2-0.8c0.3-0.7,0.7-1.5,1-2.5c0.2-0.7,0.5-1.4,0.7-2.2c0,0.3,0,0.5,0,0.8c0.1,1,0.1,2,0,2.9
				c0,0.5,0,0.9-0.1,1.3c-0.1,0.4-0.1,0.8-0.2,1.1c-0.1,0.7-0.2,1.4-0.4,1.9c-0.4,1-0.6,1.6-0.6,1.6s0.3-0.5,0.9-1.4
				c0.3-0.5,0.5-1.1,0.8-1.8c0-0.1,0.1-0.2,0.1-0.3c0,0.2,0,0.5,0,0.7c0.1,2,0,3.9-0.2,5.5s-0.4,2.9-0.7,3.8
				c-0.3,0.9-0.5,1.4-0.5,1.4s0.4-0.4,0.9-1.2s1.1-2.1,1.7-3.7c0.5-1.3,0.9-2.9,1.3-4.6c0,0.4,0,0.8,0,1.2c0,0.8,0.1,1.5,0,2.1
				c-0.2,1.2-0.2,1.8-0.2,1.8s0.2-0.6,0.6-1.7c0.2-0.6,0.3-1.3,0.5-2.1c0.1-0.4,0.1-0.8,0.2-1.3c0-0.5,0-0.9,0.1-1.5
				c0.1-0.9,0.1-1.9,0-2.9v0.1c0.2,1.2,0.5,2.4,0.7,3.5c0.2,1.2,0.4,2.3,0.5,3.4c0.1,1.1,0.3,2.2,0.3,3.2c0.1,1,0.1,2,0,2.9
				c0,0.5,0,0.9-0.1,1.3c-0.1,0.4-0.1,0.8-0.2,1.1c-0.1,0.7-0.2,1.4-0.4,1.9c-0.4,1-0.6,1.6-0.6,1.6s0.3-0.5,0.9-1.4
				c0.3-0.5,0.5-1.1,0.8-1.8c0.1-0.4,0.3-0.7,0.5-1.1c0.1-0.4,0.2-0.8,0.3-1.3c0.3-0.9,0.5-1.9,0.6-3c0.2-1.1,0.3-2.2,0.4-3.4
				c0.1-1.2,0.2-2.4,0.2-3.6c0.1-1,0-2,0-3c0.1,0.3,0.3,0.6,0.4,0.8c0.1,0.1,0.1,0.2,0.1,0.3c-0.2,0.7-0.4,1-0.4,1s0.2-0.2,0.5-0.7
				c0.1,0.3,0.1,0.5,0.2,0.7c0.1,0.4,0.2,0.8,0.2,1.1c0,0.6,0,1,0,1s0.1-0.4,0.3-1c0.1-0.3,0.2-0.7,0.2-1.2c0-0.3,0.1-0.7,0.1-1.1
				c0.3,0.9,0.5,1.8,0.8,2.7c-0.2,0.5-0.3,0.8-0.3,0.8s0.1-0.2,0.3-0.6c0.1,0.4,0.2,0.8,0.3,1.2c-0.2,1.9-0.3,3.1-0.3,3.1
				s0.3-0.7,0.7-1.9c0.4,1.5,0.8,3,1,4.3c0.1,0.8,0.3,1.6,0.4,2.3c0.1,0.7,0.2,1.3,0.2,1.8c0,1,0,1.6,0,1.6s0.1-0.6,0.3-1.5
				c0.1-0.5,0.1-1.1,0.2-1.8c0.1-0.7,0.1-1.5,0.1-2.4c0.1-2.8,0-6.5-0.3-10.2c0.1-0.2,0.1-0.4,0.2-0.6c0.3,0.5,0.6,1,0.9,1.5
				c0.1,0.3,0.2,0.6,0.3,0.9c0.1,0.5,0.2,0.9,0.3,1.4c0.1,0.4,0.2,0.9,0.3,1.3c0,0.4,0,0.8,0.1,1.2c0,0.7,0.1,1.4,0,1.9
				c-0.2,1.1-0.2,1.7-0.2,1.7s0.2-0.6,0.6-1.6c0.2-0.5,0.3-1.2,0.4-1.9c0.1-0.3,0.1-0.7,0.2-1.1c0.1,0.3,0.2,0.6,0.3,0.8
				c0.3,1,0.4,1.5,0.4,1.5s0-0.6-0.1-1.6c-0.1-0.8-0.3-1.9-0.6-3.2c0-0.2,0-0.3,0-0.5c0-0.5-0.1-1-0.1-1.6c0-0.8-0.1-1.5-0.3-2.3
				c0.4,0.6,0.7,1.3,1,1.9c0,0,0,0.1,0.1,0.1c0.1,0.2,0.1,0.4,0.2,0.6c0.2,0.7,0.3,1.3,0.4,1.9c0,0.4,0,0.8,0,1.2
				c0,0.8,0.1,1.5,0,2.1c-0.2,1.2-0.2,1.8-0.2,1.8s0.2-0.6,0.6-1.7c0.2-0.6,0.3-1.3,0.5-2.1c0-0.2,0.1-0.4,0.1-0.5
				c0.1,0.1,0.1,0.3,0.2,0.4c0.3,1,0.4,1.5,0.4,1.5s0-0.6-0.1-1.6c-0.1-0.5-0.2-1.2-0.4-2c0-0.2,0-0.4,0-0.6c0-0.1,0-0.3,0-0.4
				c0.4,0.4,0.8,0.9,1.1,1.3c0.1,0.3,0.2,0.5,0.3,0.8c0.1,0.4,0.2,0.8,0.2,1.1c0.1,0.7,0.3,1.4,0.3,1.9c0,1.1,0,1.7,0,1.7
				s0.5-0.6,0.7-1.7c0.1-0.5,0.5-1.2,0.5-2c0,0,0,0,0-0.1c0,1.1,0,1.7,0,1.7s-0.2-0.5-0.2-1.3c0.1,0.2,0.1,0.3,0.2,0.5
				c0.1,0.2,0.2,0.4,0.3,0.5c-0.1,0.6-0.2,0.9-0.2,0.9s0.1-0.2,0.3-0.7c0.3,0.5,0.6,0.9,0.8,1.2c0.3,0.5,0.5,0.8,0.5,0.8
				s0-0.3-0.1-0.9c-0.1-0.6-0.2-1.4-0.4-2.3c0-0.2-0.1-0.3-0.1-0.5s0.1-0.4,0.1-0.7c0.1-0.4,0.1-0.8,0.2-1.2c0.2,1,0.4,1.6,0.4,1.6
				s0.1-2.1,0.1-5.4c0.3,0.4,0.5,0.7,0.7,1.1c0.3,0.5,0.6,0.9,0.9,1.4c0.2,1.8,0.4,2.9,0.4,2.9s-0.1-1-0.2-2.6
				c0.2,0.3,0.4,0.6,0.5,0.9c0.2,0.4,0.5,0.8,0.7,1.2c0.2,0.4,0.3,0.8,0.5,1.2c0.3,0.7,0.6,1.4,0.7,1.9c0.3,1.1,0.4,1.8,0.4,1.8
				s0-0.7-0.1-1.8c0-0.6-0.2-1.3-0.3-2.1c-0.1-0.4-0.2-0.8-0.3-1.3c-0.1-0.4-0.3-0.9-0.4-1.4c-0.3-1-0.7-2-1.1-3.1
				c-0.2-0.4-0.4-0.9-0.6-1.4c0.1,0,0.1,0.1,0.2,0.1c0.6,1,1.1,2,1.4,2.7c0.4,0.9,0.4,1.4,0.4,1.4s0.1-0.6-0.1-1.5
				c0-0.2-0.1-0.3-0.1-0.5c0.2,0.4,0.4,0.8,0.6,1.1c0.4,0.8,0.7,1.5,1,2.2s0.4,1.4,0.6,1.9c0.2,0.6,0.2,1.1,0.3,1.6
				c0.1,0.9,0.2,1.4,0.2,1.4s0.1-0.5,0.2-1.4c0.1-0.4,0.2-1,0.1-1.6c0-0.6,0-1.4-0.1-2.2c0-0.3-0.1-0.6-0.1-0.8
				c0.3,0.3,0.5,0.6,0.7,0.9c0.6,1,1,1.6,1,1.6s-0.2-0.6-0.6-1.7c-0.1-0.4-0.3-0.7-0.5-1.1c0-0.3-0.1-0.6-0.1-1
				c0-0.6-0.3-1.2-0.5-1.9c-0.1-0.4-0.2-0.8-0.4-1.2c-0.1-0.2-0.2-0.5-0.3-0.7c-0.2-0.8-0.4-1.6-0.7-2.6c-0.1-0.2-0.2-0.4-0.2-0.6
				c0.1,0.1,0.2,0.2,0.4,0.3c0.8,0.7,1.4,1.4,1.9,1.8c0.2,0.2,0.3,0.3,0.5,0.5c0.1,0.2,0.3,0.5,0.4,0.7c0.4,0.6,0.7,1.2,0.9,1.7
				c0.4,1,0.6,1.6,0.6,1.6s-0.1-0.6-0.2-1.7c0-0.6-0.3-1.2-0.5-1.9c0-0.1-0.1-0.2-0.1-0.4c0.2,0.2,0.3,0.4,0.5,0.5
				c1.3,1.5,2.4,3,3.3,4.4c0.9,1.4,1.5,2.5,1.9,3.4c0.4,0.9,0.4,1.4,0.4,1.4s0.1-0.6-0.1-1.5c-0.1-1-0.5-2.3-1-3.9
				c-0.2-0.7-0.5-1.4-0.9-2.2c-0.1-0.4-0.2-0.9-0.4-1.5l0.1,0.1c0.5,0.6,1,1.1,1.3,1.6c0.6,1,1,1.6,1,1.6s-0.2-0.6-0.6-1.7
				c-0.2-0.6-0.6-1.2-1-1.9c-0.2-0.4-0.4-0.7-0.7-1.1c-0.3-0.4-0.6-0.8-0.9-1.2c-0.1-0.1-0.2-0.3-0.3-0.4c-0.1-0.3-0.3-0.7-0.4-1
				c0.6,0.5,1.2,1,1.8,1.5c0.9,0.8,1.8,1.5,2.6,2.3s1.6,1.5,2.3,2.3s1.3,1.5,1.8,2.2c0.3,0.4,0.5,0.7,0.8,1c0.2,0.4,0.4,0.7,0.6,1
				c0.4,0.6,0.7,1.2,0.9,1.7c0.4,1,0.6,1.6,0.6,1.6s-0.1-0.6-0.2-1.7c0-0.6-0.3-1.2-0.5-1.9c-0.1-0.4-0.2-0.8-0.4-1.2
				c-0.2-0.4-0.4-0.8-0.6-1.2c-0.4-0.9-0.8-1.8-1.4-2.7c-0.5-1-1.1-1.9-1.8-2.9c-0.6-1-1.4-2-2.1-3c-0.6-0.8-1.2-1.6-1.9-2.4
				c0.3,0.1,0.6,0.3,0.8,0.4c0.1,0.1,0.2,0.1,0.3,0.2c0.2,0.6,0.3,1.1,0.3,1.1s0-0.3,0-0.9c0.2,0.1,0.4,0.3,0.6,0.4
				c0.4,0.3,0.7,0.5,0.8,0.7c0.4,0.5,0.7,0.8,0.7,0.8s-0.1-0.3-0.4-1c-0.1-0.3-0.3-0.7-0.6-1.1c-0.2-0.3-0.4-0.6-0.6-0.9
				c0.8,0.5,1.6,1,2.3,1.6c0.2,0.5,0.3,0.8,0.3,0.8s0-0.2-0.1-0.7c0.3,0.2,0.7,0.5,1,0.7c1.1,1.6,1.7,2.6,1.7,2.6s-0.2-0.7-0.7-1.9
				c1.3,0.9,2.5,1.8,3.5,2.7c0.6,0.5,1.3,1,1.7,1.5c0.5,0.5,1,0.9,1.3,1.2c0.6,0.8,1,1.2,1,1.2s-0.3-0.5-0.7-1.4
				c-0.2-0.4-0.6-0.9-1-1.5c-0.4-0.6-0.9-1.2-1.4-1.9c-1.7-2.3-4.1-5-6.7-7.7c-0.1-0.4-0.3-0.8-0.5-1.2c0.5,0.3,0.9,0.6,1.4,0.9
				c0.4,0.3,0.9,0.6,1.3,0.8c0.4,0.3,0.7,0.6,1.1,0.9c0.4,0.3,0.7,0.6,1,0.8c0.3,0.3,0.5,0.6,0.8,0.9c0.5,0.5,1,1,1.2,1.5
				c0.6,0.9,0.9,1.5,0.9,1.5s-0.2-0.6-0.6-1.6c-0.1-0.6-0.5-1.1-0.9-1.8c-0.2-0.3-0.4-0.7-0.6-1.1c-0.3-0.3-0.5-0.7-0.8-1.1
				c-0.3-0.4-0.6-0.8-0.9-1.2c-0.4-0.4-0.7-0.8-1.1-1.1c-0.7-0.8-1.6-1.6-2.5-2.4c-0.3-0.3-0.7-0.6-1.1-0.9c1.7,0.9,3.2,1.9,4.5,2.8
				c0.6,0.4,1,0.8,1.5,1.2c0.3,0.3,0.6,0.6,0.8,0.9c0.5,0.6,1,1.1,1.3,1.6c0.6,1,1,1.6,1,1.6s-0.2-0.6-0.6-1.7
				c-0.2-0.6-0.6-1.2-1-1.9c-0.2-0.4-0.4-0.7-0.7-1.1c-0.3-0.4-0.6-0.8-0.9-1.2c-0.4-0.5-0.8-1.1-1.2-1.6c0.9,0.4,1.7,0.9,2.3,1.4
				c0.4,0.2,0.7,0.5,1.1,0.7c0.3,0.3,0.6,0.5,0.9,0.7c0.6,0.5,1.1,0.9,1.4,1.3c0.7,0.8,1.1,1.3,1.1,1.3s-0.3-0.5-0.8-1.5
				c-0.2-0.5-0.7-1-1.1-1.6c-0.2-0.3-0.5-0.6-0.8-1c-0.3-0.3-0.6-0.6-1-1c-0.7-0.7-1.4-1.4-2.3-2.1c-0.6-0.5-1.2-1-1.9-1.5
				c0.5,0.2,0.9,0.3,1.4,0.5s1,0.4,1.4,0.6c0.6,0.4,1.2,0.8,1.7,1.3c0.6,0.5,1.2,1,1.6,1.5c0.4,0.5,0.9,0.9,1.1,1.3
				c0.5,0.8,0.7,1.3,0.7,1.3s-0.1-0.5-0.4-1.5c-0.1-0.5-0.5-1-0.8-1.6c-0.3-0.7-0.8-1.2-1.3-1.9s-1.1-1.3-1.8-2.1
				c-0.1-0.1-0.2-0.2-0.3-0.3c0.7,0.2,1.3,0.3,2,0.6c1.1,0.3,2.1,0.6,3,1c0.5,0.2,0.9,0.4,1.3,0.5c0.4,0.2,0.8,0.4,1.1,0.6
				c0.7,0.4,1.3,0.7,1.8,1.1c0.9,0.7,1.4,1.1,1.4,1.1s-0.4-0.5-1.2-1.4C732.8,337.5,732.2,337.1,731.6,336.6z M647.3,312.7
				C647.3,312.6,647.3,312.6,647.3,312.7c0.3,0,0.7,0,1,0c-0.1,0-0.2,0.1-0.3,0.1c-0.3,0.1-0.7,0.1-1,0.2c-0.5,0.1-0.9,0.2-1.4,0.3
				c0.1-0.1,0.2-0.1,0.3-0.2C646.2,312.9,646.7,312.8,647.3,312.7C647.2,312.7,647.2,312.7,647.3,312.7z M654.3,315.2
				c0.1,0,0.1,0.1,0.2,0.1c-0.9-0.1-1.8-0.2-2.7-0.3c0.6-0.1,1.2-0.2,1.8-0.2C653.8,315,654.1,315.1,654.3,315.2z M687,298.3
				L687,298.3c0,0.2,0,0.4,0,0.6l0,0c0,0.1-0.1,0.3-0.1,0.4C686.9,298.9,686.9,298.6,687,298.3z M669.1,308.5
				c-0.4-0.1-0.7-0.2-1.1-0.3c-0.4-0.8-0.8-1.6-1.2-2.3c0-0.1-0.1-0.1-0.1-0.2C667.6,306.7,668.4,307.6,669.1,308.5z M662.6,301.5
				c0-0.2-0.1-0.4-0.1-0.5c0.4,0.4,0.8,0.9,1.2,1.3c0.5,0.5,1,1,1.4,1.6c0,0.2,0,0.4,0,0.6c0.1,0.5,0.1,0.9,0.2,1.4
				c0.1,0.6,0.1,1.2,0.3,1.8h-0.1c-0.5-0.7-0.9-1.4-1.2-2.1c-0.2-0.4-0.4-0.8-0.6-1.1c-0.2-0.4-0.3-0.7-0.4-1.1
				C662.9,302.6,662.6,302,662.6,301.5z M653,311.2c-0.2,0-0.4,0.1-0.7,0.1c-0.5-0.2-0.9-0.3-1.3-0.5
				C651.6,311,652.3,311.1,653,311.2z M649.6,311.3c-0.3-0.1-0.6-0.2-0.9-0.2c-0.5-0.1-1-0.1-1.4-0.1c0.4,0,0.8,0.1,1.2,0.1
				c0,0,0,0,0.1,0C648.9,311,649.2,311.1,649.6,311.3z M641.9,313.9c0.2-0.2,0.5-0.4,1.1-0.6c0.9-0.3,2.1-0.5,3.6-0.6
				c-0.3,0.1-0.5,0.2-0.7,0.3c-0.2,0.1-0.3,0.2-0.4,0.3c-0.9,0.2-1.7,0.4-2.6,0.6c-0.3,0.1-0.5,0.1-0.8,0.2c-0.1,0-0.2,0-0.3,0
				C641.8,314.1,641.9,314,641.9,313.9z M644.9,314.4c0.8-0.1,1.5-0.3,2.3-0.4c1.2-0.2,2.5-0.4,3.7-0.6c0.1,0,0.2,0.1,0.2,0.1
				c0.3,0.2,0.6,0.3,1,0.5c-0.8,0.3-1.4,0.6-2,0.9c-0.8-0.1-1.6-0.2-2.4-0.2C646.8,314.6,645.9,314.5,644.9,314.4z M649.7,336
				C649.7,336,649.8,336,649.7,336C649.7,336,649.7,336,649.7,336C649.6,336,649.6,336,649.7,336z M658.6,350.6
				c-0.8,1.3-1.4,2.6-2,3.8c0.1-0.2,0.3-0.7,0.5-1.4c0.1-0.5,0.5-1.1,0.9-1.7c0.2-0.3,0.4-0.7,0.6-1c0.2-0.3,0.5-0.7,0.8-1
				c0.1-0.2,0.3-0.4,0.4-0.6C659.4,349.3,658.9,350,658.6,350.6z M665.2,352.3c0.2-0.3,0.4-0.7,0.5-1c0,0.2,0,0.3,0,0.5
				C665.5,351.9,665.3,352.1,665.2,352.3z M667.6,350.5c0.1-0.1,0.3-0.3,0.4-0.4c-0.2,0.5-0.5,1-0.7,1.5
				C667.4,351.2,667.5,350.9,667.6,350.5z M670,351.9L670,351.9c0,0.1-0.1,0.1-0.1,0.2C669.9,352.1,670,352,670,351.9z M707.2,357.2
				L707.2,357.2c-0.1-0.1-0.2-0.3-0.3-0.5l0,0c0-0.1-0.1-0.3-0.1-0.4C707,356.6,707.1,356.9,707.2,357.2z"/>
		</g>
		<g id="XMLID_37_">
			<path id="XMLID_82_" class="st17" d="M696,194.2c2.5-15.2,32-57.7,39-71c6-11.5,35.2-55.8,52.9-68.3
				c-7.5,8.7-14.7,27.4-15.8,30.2C784.7,65,800.7,52,811.3,46.7c-5,5.8-13.7,12.1-15.4,20.2c5.1-3.5,10.6-9.7,19.6-11.1
				c-4.8,3.9-7.8,10.8-9.7,13.6c8.4-6.2,20.7-12.6,30.9-14.6c-10.3,5.2-18.4,12.3-26.1,17.3c6.2-0.3,12.9,0.6,19.2,1.4
				c-7.4,1.1-14.8,3.2-21.8,6.1c5.9-0.8,16.5,5.6,16.7,10.5c-6.6-5-12.4-6.6-19.1-7c-4.3-0.2,5.1,5-0.1,15.4
				c-0.2-6.6-4-13.8-9.2-15.9c4.6,8.9,1.4,21.1-2.7,27.1c-0.5-5.5-0.5-11.1-9.4-15.2c0.5,4.1,5.8,7.3,3.4,14.3
				c-5.9-6-11.8-4.5-16.7,0c7.9-0.3,13,3.3,18.5,9.9c-7.4-3-13.9-2.6-20.1-0.2c5.8,2.7,11.3,5.5,14.9,12c-6.7-3.2-14.8-6.6-22.5-2.9
				c5.6-0.5,12.3,4.5,13.8,6.8c-4.5-1.2-8.2-3.4-13.3-1.1c3.7,0.3,6.4,1.2,8.2,5.8c-6.3-3.1-20.4,1.9-17.3,2.1
				c6.6,0.3,10.4,6,10.3,10.1c-5.8-6.6-13.2-2.7-18.7,0.2c1,0.7,4.9,1.7,6.9,4.6c-5.4-0.2-10.9,2.5-14.8,4
				c4.5,0.3,10.8,4.7,10.6,10.8c-5.5-6.8-10.2-5.8-15.6-6c-2.8,1.3-0.1,7.4,5.1,11.9c-16.7-5.5-28.1,11.9-30.9,18.6
				C703,202.1,693.5,209.3,696,194.2z"/>
			<path id="XMLID_81_" class="st17" d="M849.7,104.3c-15.4,4.6-28,14.2-32.4,19.9c13.3-8.1,22.5-8,31.7-7.6
				c-7.7,2.1-21.7,5-30.4,13.2c13.7-4.6,32.7-4.9,39.2,1.3c-8.1-1-16.7-0.7-21.8-0.1c4.4,0.6,13.2,3.7,15,6.9
				c-9.9-2.5-18.9-1.5-29.4,0.9c12.1,0.5,20.9,4.9,26.3,7.9c-10.1-2.8-26.1-2.4-32.4,0.6c12.6,2,25.5,8.3,28.1,19.3
				c-11.4-8.6-26.6-10.4-42-7.4c5.2,2.1,9.6,6.8,10.8,9.8c-7.2-2.8-19.9-2.8-28.3-1.3c2.4,0.5,6.1,2.5,8.6,4.4
				c-6.4-0.4-10-1.6-17.6,0.7c3.6,1.6,8.9,3.9,10.5,6.2c-6.5-1.2-20.2-0.7-28.5,1.3c5.7,0.1,9.5,3.3,11,4.8
				c-8.2-1.4-21,2.6-28.8,3.9c6.4,0.8,10.3,2.4,11.6,5.2c-11.8-2.2-30,7.4-38.7,11.1c-8.2,3.5-23.8,13.3-15-0.6
				C705.8,191.4,758.5,122.2,849.7,104.3z"/>
			<path id="XMLID_73_" class="st17" d="M528.2,118.4c13.7,1.2,26.2,8.8,31.2,14c-12.7-5.7-20.2-3.3-27.5-0.5
				c6.7,0.5,18.8,0.1,27.8,7c-12.3-1.7-27.7,2.8-31.4,11.4c6.3-3.2,13.4-5,17.7-5.6c-3.4,1.8-9.8,7.5-10.5,11.5
				c7.4-5.3,15-6.5,24.2-6.4c-9.7,3.6-15.8,10.7-19.3,15.4c7.5-5.7,20.6-9.3,26.3-7.5c-9.7,5.4-18.5,15.7-17.9,28.7
				c7.1-12.5,19-18.3,32.2-18.8c-3.6,3.6-6,10-6.3,13.6c5.2-4.9,15.4-8.1,22.6-8.6c-1.8,1.2-4.4,4.3-5.9,7c5-2,7.7-4.3,14.4-3.7
				c-2.5,2.7-6.3,6.6-7,9.5c4.9-3,16.2-5.9,23.4-5.8c-4.6,1.5-6.9,6-7.7,8.2c6.3-3.7,17.7-2.6,24.3-3.1c-5,2.6-7.7,5.4-8,8.8
				c8.9-5.5,26.1,0.6,34.1,2.5c7.6,1.8,22.6,8.8,12-4.4C666.5,178.9,606.4,115.2,528.2,118.4z"/>
			<path id="XMLID_72_" class="st17" d="M708.2,201.8c40.7-56.5,74.9-71.5,92.5-76.3c10.2-2.8,28.5-9.1,39.1-2.8
				c-9.1,0.4-18,1.8-26,5.7c17.9,0,29.2,4.3,35.7,16.4c-5.5-2.9-9.5-7.3-14.8-7.1c7.8,4.2,17.5,14.6,23.3,28.5
				c-4.2-4.2-9.8-10.8-17.9-12.9c5.1,3.8,8.1,10.4,10.2,13.2c-8-8.9-20.1-14.3-27.8-16.3c3.8,2.1,7.9,6.2,9.2,9.4
				c-4.1-3.4-16.2-7-21.2-8c3.2,3,5.3,5.8,5.8,10.4c-3.2-5.1-11.7-8.7-17.9-8.4c5.8,3,9.1,6.4,11.7,13.2
				c-6.6-6.3-18.1-14.2-29.6-15.2c10.2,6.5,18.8,13.5,23.6,22.6c-7.4-6-19.7-12.5-28.5-12.5c7.4,6,15.3,14.4,19.4,23.7
				c-7.5-7.5-20.7-16.5-29.1-18c4.6,2.4,10.2,9.1,14,16.5c-6.5-4.8-11.7-9-19.2-8.3c3.7,2.8,5.9,6.1,8.1,10.4
				c-23.1-8.9-33.6,1.3-38.9,2.5c9.5-2.2,19-1.7,23.6,2.2c-19.2-1.5-29.1,10.6-33.3,14.3C708.6,215.1,692.5,223.6,708.2,201.8z"/>
			<path id="XMLID_69_" class="st17" d="M702.3,187.1c29.8-88.8,17.4-135.4,7.6-156.8c-5.7-12.5-14.3-35.8-30.9-40.8
				c7.5,9.3,13.6,19.3,16.2,30.5C679.5,2.4,664.8-5,645.1-0.9c8.1,2.9,16.7,3,21.1,8.4c-11.8-4-32.1-4.6-53.2,1.7
				c8.6,0.5,21,0.3,30.5,6.4c-8.8-1.7-19.1,1-24.2,1.4c17.2,0.2,33.9,7.4,43.1,13.3c-5.8-1.9-14.1-2.4-18.9-0.9
				c7.6,1.1,22.2,9.8,27.9,13.9c-6.2-0.6-11.4-0.2-17.1,3.3c8.8-1.2,20.3,4,25.3,10.4c-8.5-3.1-15.4-3.4-25.5-0.1
				c13,1,32.2,5.5,43.3,16c-16.4-4.5-31.9-6.8-46.8-3.7c13.4,2.2,31.6,8.6,39.3,17.3c-13.4-2.1-30-2.6-44.4,1.5
				c15.3,0.8,37.1,6.1,46.2,13.1c-6.8-2.4-19.4-2.2-31.2,0.4c11.2,2.2,20.6,3.7,26.3,11.7c-6.4-1.2-12.2-0.6-19.1,1
				c30.3,15,16.4,20.2,7.8,19.1c18.5,17.6,13.1,37.8,12.6,45.1C686.5,198.2,690.8,221.4,702.3,187.1z"/>
			<path id="XMLID_68_" class="st17" d="M693.2,163.8c0.9-8.4,1.9-56.8-9.1-80c-5.7-11.9-11.3-22.5-18.9-33.6
				c-8.5-12.3-26-18-34.3-28.7c3.5,9.6,11.9,15.5,19.2,22.8c-13.2-6.2-35.7-16.8-46.6-24.5c8.7,15.2,32,22.8,44.9,32.1
				c-9.3-0.7-16.8-3-34.1-9.4c9.5,7.8,20.1,10.9,25.1,13.4c-4.9,1.2-10.4,0.4-14.6-1.5c8,8,21.9,10.3,31.2,11.5
				c-10.3,3.6-23.1,2.2-30.7-0.6c13.2,8.8,28.3,6.3,35.4,10.7c-5.5,1.4-19.5,0.6-27.6-0.8c7.2,3.6,15.1,7.8,25.8,8.8
				c-5.5,1.1-8.7,0.8-13.8,0c3.9,3.7,15,8.7,20.8,8.2c-6.4,1.7-13.4-2.3-23.8-0.8c5.6,1,17.9,6.1,25.9,14
				c-5.9-0.9-10.4-1.9-16.1-1.9c4.9,3,15.1,7.4,18,7.5c-1.3,0.8-6.8,3.2-10.8,2.2c4.2,4.3,8.5,5.4,11.9,6.5c-1.4,0.8-2.9,2.1-4,2.8
				c3.2,6,8,9.5,13.8,13.1c-1.9,0.9-6.2-1.5-7.8-0.7c13.4,15.3,11.7,26.5,11.2,35.1C683.2,181.1,691.4,180.1,693.2,163.8z"/>
			<path id="XMLID_40_" class="st17" d="M691.5,183.7c-8.3-37.8-36-88.3-48.9-103.2c-15.9-18.4-15.8-32.2-30.5-43.2
				c1.8,8,4.8,15.3,3.9,20.1c-7.8-8.4-13.4-18.1-19.6-23.1c2.5,4.9,5.6,11.1,6.4,16c-7.2-8.6-18.9-14.5-29.1-14.2
				c8.3,5,16.9,10,21,18.9c-10-3.5-26.6-15-43-7c6.8-0.9,17.1,6.7,23.1,10.5c-18.5-5.9-30.3-3.6-40.3-1.9
				c11.3,0.8,22.2,5.9,30.9,8.6C556.2,64,537.7,64.9,526,77c9.8-4.7,23.4-5.4,28.8-4.2c-9.7,3.7-16.4,9.7-18,14.1
				c4.6-0.8,8.8-0.9,11.6,1.5c-3.7,8.6-13.7,14.7-12.4,13.8c11.8-3.6,22.3-11.3,31.6-18c-3,6.7-8.3,14.2-13.9,20.4
				c8.6-3.7,12.5-5.3,18.1-11.5c-2.2,5.4-4.6,11-4.5,15.4c8.6-14.6,21.2-10.2,28.4-18.7c-0.9,3.3-3.1,7.7-5.2,11
				c5-3.7,8.8-8.7,15.7-7.8c-1,7.9-7.6,14.7-12.2,18.4c6.7-2,15.9-5.2,24.7-6.6c-2.7,3.5-10.6,9.3-13.2,12.7c2.1-1,9.6-3.5,12-3.7
				c-0.4,1.7-6.9,5.5-6.8,7.2c7.4-1.7,11.5-0.2,17.4,0.5c-0.6,2.6-7.4,6.6-4.6,6.4c4.9-0.4,11,3.5,12.9,3.1
				c8.7-1.6,3.7,4.4,0.2,10.8c2.8,1,6.3,0,9.1-1.1c0.8,2.9-3,5.7-1.9,8.5c3.2,0.3,5.3,0.8,8,2.7c1.8,1.3,23.2,19.5,24.8,31.5
				C678.9,199.2,694.7,198.2,691.5,183.7z"/>
			<path id="XMLID_39_" class="st17" d="M732,75.1c4.1-7.7,4.2-30.4,20.1-45.8c-5.7,10.7-5,17.7-6.7,21.8
				c13.1-23.6,21.9-29.7,30.9-34.6c-4.3,5-8.9,10.7-9.1,14c6.6-7.7,16.8-12.8,26.7-16.4c-3.5,2.5-4.4,5.5-4.8,7
				c11.8-7.3,30.3-6.2,33.7-6.9c-11.5,3.8-25.7,10.3-38.2,18.1c8.9-0.6,15.9,1.4,20.7,5c-8.4-1-20.1,0.2-26.7,1.5
				c8.1,1.5,14.8,4.2,20.3,6.9c-6.3-0.1-12.6-0.9-18.3,0.6c0.9,0.6,6.5,5.1,7.2,5.9c-3.8,0.6-9.4-0.1-13.3,1.8
				c0.3,1.3,2.9,4.1,6.9,4.7c-6.6,2.6-15.8,4.1-22.8,3.3c5.1,5.4,15.5,9.2,22,11.7c-7,1.5-14.3,1.1-21.3,2.6c0.8,2.8,7,5.4,9.2,7.4
				c-4.3,1-8.8,1.3-13.2,2.2c2.9,1.4,7.8,3.8,8.5,4.8c-6.6,0.2-23.3,1.7-21.7,3.4c3.8,4.1,10.3,7.3,12.7,9.7
				c-8.1-0.6-16.2,1.5-20.1,5.2c3.5,4.6,7.8,4.6,14.1,5.6c-5.5,2.4-13.4,4.7-15.7,7.6c0.9,0.7,4.4,2.4,7.6,2.7
				c-2.8,1.8-11.4,1.5-12.6,4.7c-1.6,3.9-22.6,29.8-22.7,54.3c0,15.5-11.6,7.8-9.6-9.3C699.5,142.4,716.9,103.3,732,75.1z"/>
			<path id="XMLID_38_" class="st17" d="M635.3,128.3c-5.2-4.6-11.4-21.3-27.4-28.3c7.2,6.3,8.6,11.7,10.9,14.3
				c-16.2-13.8-24.3-15.9-32.3-17.1c4.5,2.5,9.5,5.5,10.6,7.8c-7-3.9-15.9-4.9-24.3-4.8c3.3,0.9,4.8,2.9,5.4,3.8
				c-10.7-2.2-24.1,3.7-26.8,4.2c9.6-0.3,21.8,0.6,33.2,2.9c-6.8,2-11.4,5.4-14,9.4c5.9-3,14.9-5.4,20.2-6.2
				c-5.6,3.3-9.8,7.2-13.1,10.7c4.6-1.8,9.1-4.1,13.7-4.6c-0.5,0.7-3.4,5.5-3.7,6.3c3-0.6,6.9-2.6,10.3-2.3c0.1,1-1,3.9-3.8,5.4
				c5.6,0.1,12.8-1.3,17.8-3.9c-2.3,5.4-8.9,11.1-13,14.7c5.5-0.8,10.9-3.1,16.5-3.9c0.2,2.3-3.7,5.9-4.8,8c3.4-0.4,6.9-1.5,10.4-2
				c-1.8,1.9-4.7,4.9-5,5.9c4.9-1.6,17.7-5.1,17-3.4c-1.7,4.1-5.6,8.3-6.7,10.6c5.8-2.7,12.4-3.3,16.3-1.7c-1.3,4.3-4.5,5.6-8.9,8
				c4.7,0.3,11.2-0.2,13.7,1.3c-0.4,0.7-2.6,3-4.8,4.1c2.5,0.6,8.8-2,10.6,0c2.2,2.4,24.9,15.8,31.7,33.9c4.3,11.4,10.7,2.6,4.6-9.5
				C677.7,169,654.1,144.9,635.3,128.3z"/>
		</g>
		<polygon id="XMLID_31_" class="st17" points="701.7,223.3 673.5,198 654.5,173.8 662.5,149 695.5,142.2 728.3,146.4 746.6,167.8 
			708,207.3 		"/>
	</g>
	<path id="XMLID_2_" class="st17" d="M684.4,621c0,0,98.6,12,106,20c7.3,8,94,16,94,16s98.7,24.7,99.3,36
		c0.7,11.3,116.5,42.1,116.5,42.1s69,22.5,73.5,34.5s93,31.5,93,31.5l25.5,19.9H637V612C637,612,672.1,626.8,684.4,621z"/>
	<g id="XMLID_130_" class="st6">
		<path id="XMLID_151_" class="st18" d="M2871-261V821H637V-261H2871 M3171-561h-300H637H337v300V821v300h300h2234h300V821V-261
			V-561L3171-561z"/>
	</g>
	<g id="XMLID_131_">
		<path id="XMLID_140_" class="st17" d="M2701.3,237c0,0-12.4-9.6-13.9-10s-6.4-4.3-12.8-5.5c0,0-1.5,5.3-6.2,1.3l-3.3-0.1l2.5-1.4
			l-0.1-0.4c0,0-4.5,1.8-4.5,1.9s-1.3,1.1-2.3,2.2c-1.1,1.1-10.6,13.8-14.4,14.4l-0.7,0.1c0,0,2.4-2.2,3-2.9
			c0.6-0.7,5.1-7.1,7.9-9.5c0,0,2.2-1.9,2.2-2.2s3.5-4.7,8.5-5.3c0,0,1.7-1.3,3.3-1.9c0,0,2.1-1.2,4.5,1.2c0,0,2.3,0.2,8.1,2.1
			c0,0,3.6,1,6.7,5.4C2689.8,226.2,2699.9,236.8,2701.3,237z"/>
		<path id="XMLID_137_" class="st17" d="M2674.3,162.6l-4.5-5.2c0,0-3.7-2.1-8,0l-1.3,0.9c0,0,1.3,2.6-1,4.3
			c-2.3,1.7-4.8,0.6-4.8,0.6l-3.4-4h0.7v-0.6c0,0-3.8-1.8-5.8-1.7c0,0-2.3-0.4-2.7,0.4c0,0-9.1,8.2-10.7,10.4c0,0-0.9,0.5-0.7-0.2
			c0.2-0.7,6.5-10,13.6-13.3c0,0,2.3-1.5,3.7,1c0,0,0.9,1,2.6,1.8l6.9,0.1c0,0,2,0.1,3.9-1.6c0,0,1.3-0.8,4.5-1.6
			c0,0,2.6-0.9,4.9,1.1c0,0,4.8,4.4,5.7,8.2c0,0,0.6,1.1,0.3,2.5c0,0-0.7,1.2-2-0.4L2674.3,162.6z"/>
		<path id="XMLID_136_" class="st17" d="M2591.3,210.1c0,0-7.5,4.3-7.9,5.3c-0.4,1-3.4,5-3.5,8.1c0,0,2.3,4.1-0.5,6.2
			c0,0-1.4,2.2-4.5,1.3c0,0-0.5-0.5-0.7-1.3l-3.4,0.3c0,0-1.2,0.1,2.2-1.5c0,0,0.1-1,0.5-1.7c0,0,0.4-1-5.3-5.2c0,0-2.3-1.9-8.2-1.8
			c0,0-5.7-0.2-6.3,0.2l-6.3,1.5c0,0-2.7,0.3,0.6-1.4c0,0,7.7-3.7,14.7-2.8c0,0,3.3-1.3,11.9,6.2c0,0,0.4,0.3,2.6-1.1
			c0,0,0.3,0.3,2.9-4.5c0,0,1.3-2.6,2.9-4c0,0,3.5-2.9,4.1-3.6c0,0,3.8-2.3,5.9-3.1C2592.8,207.3,2596.6,206.9,2591.3,210.1z"/>
		<path id="XMLID_135_" class="st17" d="M2614.9,189c0,0-4.3-1.9-12.6-7.8c0,0-4.2-3.7-12.3-1.7c0,0,0.5,2.7-0.7,3.8
			c0,0-1,1.4-2.5,1.6c0,0-1.6,0-2.9-1.5l-3.2,0.2l1.8-1.4c0,0,0.2-0.9-1.5,0.4c0,0-4.4,2.5-5.3,5.2c-0.9,2.7-2.6,7-3.4,11.6
			c0,0-2.7,9-2.9,8.7c-0.2-0.3,0.2-2.3,0.7-4.4c0,0,1.5-5.8,3.3-12.4c1.8-6.6,4.1-8.8,8-10.2l2.5-2.1l0.7-0.6
			c0.5-0.4,1.2-0.7,1.8-0.7c0.2,0,0.5,0,0.7,0c1.2,0,2.6,0,2.9,0c0,0,1.5-0.8,3.6-1.4c0,0,5.7-1.2,10.4,2.5
			c4.8,3.7,11.7,9.3,11.7,9.3S2617.5,189.9,2614.9,189z"/>
		<path id="XMLID_134_" class="st17" d="M2613,90.8c0,0-1.8-0.8-6.8-0.2l-9.2,1.8c0,0-1.7,0.2,0.9-1.9c0,0,5.9-3.3,10.7-3.3
			c0,0,6.8-0.8,11.5,7.8c0,0,0.6,0.1,3.4-0.5c0,0,0.4-0.1,0.7-1.5c0,0,0.3-5.5,2.8-9.2c0,0,5.1-6.9,11.7-9.2c0,0,6-2.4,3.5,0
			c0,0-6.5,4.3-7.7,5.1c-1.3,0.9-5.9,4.7-5.9,4.7s-2.9,3.5-2.8,10c0,0,1.3,2.3,1.4,4.5c0,0,0,1.2-2.1,3.3c0,0-1.2,0.8-2.1,0.5
			c0,0-1.7-0.5-2.2-1.1l-0.3-0.4l-1.2,0.6c0,0-0.4,0.1,0.5-1c0,0-1-0.5-0.3-2.4c0,0,1-0.2-3.8-5.4c0,0-1.3-1.4-2.6-2
			c-0.1,0-0.2-0.1-0.3-0.1"/>
		<path id="XMLID_133_" class="st17" d="M2638.5,74.4"/>
		<path id="XMLID_132_" class="st17" d="M2572.5,133.1c0,0-9,0.4-12.2,1.1c-3.2,0.6-5.4,1.2-9.3,4.4c-3.8,3.2-2.6,2.2-2.6,2.2
			s1.1,3-2.1,4.9l-1.5,1.1c0,0-1.6,0.3-1.9,0c-0.3-0.3-1.1-1.3-1.1-1.3s0.7-0.2-2.7-0.2l-0.3-0.7c0,0,0.9-0.5,1.3-1l-0.2-2.7
			c0,0,0.4-3.3-4.3-8.6c0,0,0-1-11.2-2.9c0,0-5.3-1.8,1.4-2.5c0,0,8,0.5,10.4,1.8c0,0,0.2-1,6.2,10l0.3,0.6c0,0,2.2-0.3,3.6,0.3
			c0,0,1.4-0.5,2.7-1.3c0,0,7.9-7.9,22-6.5C2571.2,131.8,2581.9,131.6,2572.5,133.1z"/>
		<path id="XMLID_141_" class="st17" d="M2514.5,155.1c0,0-5.6,0.6-5.1,6.3c0,0,6.3,6-2.1,7.5c0,0-2.3,0.1-5.2-2l-1.9,0.6
			c0,0-2.9,0.6-4,3.9c0,0-2.2,4.6-2.8,8.2c0,0-1.5,8.5-1.8,8.9c0,0-1,2,0-4.6c0,0,1.6-8.7,2.1-10.3c0,0,1.6-5,4.1-6.5
			c0,0,1.9-1.1,3.4-1.3c0,0,3.6-3.6,5.6-4.3c0,0,0-3.3,0.9-4.5s2.8-3.7,5.7-3.4S2515.5,154.3,2514.5,155.1z"/>
	</g>
</g>
</svg>
